<?xml version="1.0" encoding="UTF-8"?>
<svg id="Layer_2" data-name="Layer 2" xmlns="http://www.w3.org/2000/svg" viewBox="0 0 51.2 46.6">
  <defs>
    <style>
      .cls-1 {
        fill: #00a94f;
      }

      .cls-2 {
        fill: #fff;
      }
    </style>
  </defs>
  <g id="Layer_1-2" data-name="Layer 1">
    <g>
      <g>
        <path class="cls-2" d="M25.6,44.1c12.8,0,23.1-9.3,23.1-20.8S38.4,2.6,25.6,2.6,2.5,11.8,2.5,23.3s10.3,20.8,23.1,20.8Z"/>
        <path class="cls-2" d="M0,23.3c0,12.9,11.5,23.3,25.6,23.3s25.6-10.5,25.6-23.3S39.8,0,25.6,0,0,10.5,0,23.3ZM5.1,23.3C5.1,13.3,14.3,5.1,25.6,5.1s20.5,8.2,20.5,18.2-9.2,18.2-20.5,18.2S5.1,33.4,5.1,23.3Z"/>
      </g>
      <g>
        <path d="M25.6,44.7c-13.1,0-23.7-9.6-23.7-21.4S12.5,1.9,25.6,1.9s23.7,9.6,23.7,21.4-10.6,21.4-23.7,21.4ZM25.6,3.2C13.3,3.2,3.2,12.2,3.2,23.3s10.1,20.1,22.4,20.1,22.4-9,22.4-20.1S38,3.2,25.6,3.2Z"/>
        <path d="M32.2,8.3s0,.2.1.2.2-.2.2-.4c0-.5-.5-.9-.5-.9,0,0-.3-.4-.6-.3-.5.1-.4.3-.3.4,0,.1.4.2.6.3.2.1.3.4.4.4l.1.2v.1Z"/>
        <path d="M35.5,10.8c-.2,0-.2.1-.1.2,0,0,.6.3.7.4,0,.1.3.4.3.4,0,0,.8.3.9,1.1v.7c.1.2.6.1.6.2,0,0,.2,0,.3.1h.4s.4.3.5.4c.3.1.5.6.6.7,0,.1.3.4.4.8,0,.1.2.3.2.3h.2c.1,0,.1-.2.1-.3s-.5-1-.5-1c0,0-.3-.4-.4-.5-.1,0-.1-.1-.3-.5-.2-.3-1.1-1.4-1.3-1.5s-.7-.2-1-.5c-.2-.2-.3-.5-.5-.7-.2-.1-.9-.5-1.1-.5v.2Z"/>
        <path class="cls-1" d="M30.5,23.2s-.2.2-.5.2-1.6-.2-1.2.8c0,0,0,.2.3.4.3.3.9.5,1,.7,0,.2.5.4.7.5.2,0,0,.9,0,.9,0,0,0,.3.3.3s.8-.4.9-.5.3-1.4.1-1.7c-.1-.3-1.1-.8-1.3-1-.2-.3-.1-.5-.2-.6,0,0-.1,0-.1,0Z"/>
        <path d="M31.8,22.8s-.4.2-.2.5c.1.3.8.4.8.4,0,0,.9.6.9,1v2.4c0,.1-.3.4-.8.4,0,0-.5,0,0,.3.4.3.7.2.7.3,0,0,.1.2.2.3,0,0,.6.4.9.3.3,0,.5.2.8-.4.2-.3,0-1.9,0-2.4-.2-.7-.2-1-.2-1.1,0-.5.2-.5.2-.5,0,0,.1-.2-.1-.2-.3,0-1.3,0-1.5-.2s-.8-.7-.9-.8c0,0-.8-.3-.8-.3Z"/>
        <path class="cls-1" d="M21.7,23.4h-.2s-.3.2-.5.9c0,.2-.1.2-.2.3v.6s-.1.4,0,.4.5-.2.5-.2c0,0,.6-.5.6-.8,0-.2,0-1.2-.2-1.2Z"/>
        <path d="M25.8,20s.4,0,.6-.1c.3-.2.4-.2.4-.2l1-.2s.3,0,.4.2,0,.5.2,1c.2.4,1.1,1,1.1,1.2s0,0,.2.3c.2.4-.1.4-.1.4,0,0-1.6,0-1.9.8,0,0-.6,1.1.8,2.1,0,0,.5.5.9.6,0,0,.8.4,0,.9h-.3c0,.1-.4.4-.7.7s-.7,1-.5,1.7.5,1.2.5,1.4.2,1.1.2,1.4-.3,1.7-.2,2.4c.1.8,1,1.7,1.3,2s.4.5.4.5c0,0,3.6,1.1,3.9,1.2h.5c.1,0,.4.2.4.4s-.5.5-.5.6c0,0,0,.1-.2.2,0,0-.8.5-.9.5h-.3l-.2.2s-.2.3-.4.4c-.2,0-.4,0-.5.1,0,0-.2.3-.3.3h-.4c-.2,0,0,.6-1.4.4-1.4-.2-1.4,0-1.4,0,0,0-.5.4-1.1.2s-1,.4-1.3.4-2.2-.6-2.2-.6l-.4-.2s-.8-.3-1-.2c-.2,0-1.6-.2-2.5-.5-.8-.2-1.9-.5-2-.8,0-.3,0-.6.3-.7.2,0,.7,0,1.1-.2.3-.1,1.4-1.3,1.8-1.5s.5-.4.7-1,1.4-2.1,1.4-2.3c.2-1-.2-.7,0-2.3,0-1.8.7-1.9.3-2.2-.3-.2-.6-.5-.7-1.4,0,0,0-.2-.3-.3-.3,0-1.4.4-2.6.2,0,0-.8.3-.9.2-.1,0-.4-.4-.5-.7,0-.3-.2-.6,0-1s.5-.8.5-.8c0,0,.1-.3.3-.7,0,0,.4-.4.3-.7,0-.3,0-.6-.8-.4,0,0-.1.1-.3.2-.2.1-.8.2-1.1.3-.3.1-1,.6-1,.6,0,0-.5.3-.6.5s-.4,1.3-.4,1.3c0,0-.2,1.8-.3,2v1s-.2.6-.5.4-1.1-1.4-1.1-1.4h.2c.2,0,.3,0,.5-.2.3-.4.2-1.2,0-1.5-.1-.3-.8-.4-.8-.4,0,0-.1,0-.1-.1s.4-.3.6-.4c.3-.1.7-.8.8-1,.1-.4,1-1.8.9-3.3v-.5c.1-.8.9-1,1.1-1.2.2-.3.3-.7,1.2-.3.4.2,1,0,1,0,0,0,.9,0,0,.6-.4.2-1.3.6-1.7,1.4-.2.3-.6,1.3-.3,1.7.2.3.5.4.5.4,0,0,.6,0,1-.4s.7-.6,1-.6.9-.8,1.2-.8c0,0,.5-.2.6,0,0,.3.3.8-.6,2.3,0,0-.1.4-.1.6s-.2.5-.2.6-.3.4-.2.5c0,.2.3.3.4.3h.4s.8-.1.9-.1h.3s.4,0,.5-.3c.1-.2.7-1.1.7-1.1l.1-.3c0-.1-.2-1.7-.3-1.8v-.5c0-.1.5-.7.5-1.2v-1.1c.1-.3.6-1.9,1.5-.6,0,0,.7.6,1,.5h-.3ZM24.6,22.9c0,.4-.2.2-.2.5,0,.4.2.5.2.5.3.3.4,2.1.4,2.1,0,0,.1.6.4.2s.4-1.7.3-1.7v-.4c.6-1.8.2-1.8,0-2,0-.2-.4-.4-.8-.3-.3,0-.6.5-.6.5v.6h.3Z"/>
        <path class="cls-1" d="M21.2,29.4s0-.2.2-.3c0,0,.2,0,.2.1,0,.2,0,.4.1.5s-.1,1.5-.1,1.7-.3.3-.4,0c0-.3-.2-.4-.2-.5v-1.4l.2-.1Z"/>
        <path class="cls-1" d="M20.2,29.2s0-.2-.4-.3c0,0-1,0-1.3.6,0,0-.2,1.9-.1,2.2.1.2.1,0,.3.2.1.1.1.4.2.6,0,.2.3.4.3.4,0,0,0,.8.4.9,0,0,.4,0,.5-.2v-1.6c0-.2.4-1.4.4-1.4v-1.4h-.3Z"/>
        <path class="cls-1" d="M17.6,25.3c-.2,0-1.1.6-1.2.7,0,.1-.1,0-.4.9-.1.5,0,.5-.5,2.5-.4,2,.4,3.1.4,3.1,0,0,.1.2.3-.1.1-.3-.3-.9-.2-1.1.2-.2.6-.1.6,0,0,.3,0,.2.1.4v1c0,.2,0,1.1.4,1.1.3,0,.3-.8.3-.8v-.9c0-.4-.2-.3,0-.7,0-.2.1-.6.1-.6v-2.1c0-.3-.6-1.3-.6-1.7s.3-.8.5-1.2c.2-.3.2,0,.3-.4,0-.2-.2-.2-.2-.2l.1.1Z"/>
        <path class="cls-1" d="M29.3,29.7c-.8-.8-.3-1.4-.3-1.4.2-.3.2-.4.9-.6,1.1-.4,1.6.6,1.6.6,2.6,1.6,3.4,1.2,3.4,1.2,0,0,.4,0,1-.3.5-.3.4-.8.4-.8v-1.6c-.1,0,0-.8,0-.9s-.2-.7-.2-.7v-.6c.1-.1.4-.7.1-.8-.2-.1-.5-1.2-.7-1.5-.1-.4-.6,0-.6,0v.6c0,.3-.8.1-1,0-.3,0-.5-.6-.6-.9,0-.3.1-.6.2-.8,0-.2.1-.6-.3-.8-.3-.1-.6,0-.6.5,0,.4,0,.7-.1.8-.1.2-.5,0-.9,0s-.7.6-.9.5c-.1,0,0-.3-.1-.8s-1.1-1.2-1.3-1.4c-.1-.2,0-.4,0-.7s-.3-.6-.3-.6c0,0-.4-.5-.9-.5-.3,0-1.4.3-1.4.3,0,0-.5.3-.9.2-.4,0-.3-.3-.4-.4,0-.1-1.2-.8-1.6-.7-.3,0-.9,1.1-1.1,1.5s-.3,1.9-.3,1.9c0,0-.1.3-.4.4s-.5-.2-.5-.2c-.9-.8-1.4-.1-1.8,0-.4.2-.7.5-.9.7-.6.3-.7.6-.7.6-.8.5-.4-.3-.4-.3,0-.4.4-.7.4-.7,1.1-.6,2.5-1.9,2.6-2.1,0-.2-.4-.5-.6-.7-.3-.2-1.1-.2-1.2,0-.1,0-.7.1-1.1-.2-.4-.3-1,0-1,0,0,0-.3.4-.5.5-.3.1-.5.2-.8.6s-.9,1-.7,2c.3,1-.2.5-.2.5-1.5-1-2.5.4-2.6,1.3,0,.9,1,.9,1.4.8s.6-.2.6,0c-.3.9-1.4,1.7-1.6,1.7-1.3.3-1.1,1-1.1,1,0,0,0,.4.2.5.2.2.8.3.7.5,0,.6.1.7.1.7,1.2.9,1,1.8,1,2.1,0,.9-.2,1.1-.3,1.4s0,.9,0,1.2c0,.2-.3.2-.3.2l-.2-.3c0-.2.1-.5,0-1.6-.1-1.6-.7-1.7-.7-1.7-.8.6-.6,1.4-.5,1.8,0,.4-.3.8-.3,1.2s.3,1.2.3,1.5-.3.7-.6.4c-.3-.2-1.1-1.5-1-2v-1.1c-.3-1.2,0-1.5,0-1.5.9-1.9.3-1.9.3-1.9-.3-.7-.6,0-.6,0l-.5,1.4s0,1.2-.1,1.4c0,.2-.2.4-.3.5-.2,0-.7-.8-.7-1.1.1-.7-.1-1.2-.1-1.4s.1-.1.1-.7-.3-.6-.4-.3c0,.3-.3.5-.4.4-.2-.2-.2-.3-.2-.7,0-.7-.4-1.7-.3-2.4,0-.7.4-1.1.2-1.7-.2-.4-.6-.7-.5-1.1.2-.7.2-1.9.2-2,0-.2.1-.7.4-.6,0,0,.1.3.2.4.2.2.5.3.7,0,.3-.4,0-1.4-.5-1.7-.3-.2-.6-.8-.4-1.6.1-.5.7-.7.8-1.1,0-.4.4-1,1.2-1.8s.9-.4,1.1-.3c.1,0,.5,0,.4-.4v-1.4c0-.2.7-.2.8-.7.1-.4.6-.9.9-1.1.3-.2,1.7-.6,2-.3.3.4,0,.6,0,.6-2.4.8-2.4,2.1-2.6,2.7-.2.6.2.8.5.8.4,0,.9-.5,1.2-.9.2-.4.8-.4,1.3-.1.1,0,.2.4-.3,1.2-.2.2,0,.2-.2.6,0,.2.1.6.1.6,0,0,0,.3.2.5s.7.2.9.2.4-.3.5-.4c0-.1.5-1.1.5-1.5s.3-1,.4-1.2v-1.1c0-.3-.9-1-1-1.3s-.2-1.2-.2-1.6.8-2.3,1.3-2.9,1.1-.9,1.1-.9c1.4-.8,1.1,1.1.8,1.5-.3.4-1.9,1.2-2.1,1.7s.2,1,.4,1.1c.2,0,.8.1,1.1,0,.8-.4.6-.5,1.4-1,.6-.3,1-.8,1-1,0-.1-.2-.8-.2-.8l-.6-.6c-.6-.9.8-1.5,1.1-1.4.6.1.8.5,1,.5.5,0,.6-.7,1.1-.8.5-.2,1.7.5,2.1.4.3-.1.5-.5.7-.6.3,0,.6.1.8,0,.1,0,.3-.2.8,0,.4.2.7.3.8.2.2,0,.6-.2.6-.2,1-.8,1.7,0,1.9.5.2.4.7.3.7.6s-.8,0-.9.4c-.2.3,0,.4,0,.7s.8.4,1.1.4.5.4.5.4c0,0,.2.7.6.9.2,0,.7.3,1,0s.3-.8.2-.9c0-.2-.3-.7-.3-.9s0-.8.5-.5c.2.1.6.3.7.5.2.3.3.3.4.4,0,.1.1.4,0,.4,0,0-.2.1-.2.2-.1.4.3.6.4.8,0,.1-.1.5-.1.5,0,0-.2.4-.1.6,0,.2.1.2.1.3s-.1.2-.1.3.2.7.4.8c.1.1.8.4,1,.6.2.1.4.4.5.6,0,.2,0,.8.1,1s.4.5.5.6h1.2c.2,0,.7.7.8.8v.6c0,.2.4.6.6.7.2.1.7.2,1,.2s.6-.2.7-.3c0,0,.1-.2.2-.4,0-.3.2-.4,0-.6,0-.2-.3-.6-.3-.8s-.3-.4-.4-.6c0-.2-.2-.5-.3-.6-.2-.2-.3-.2-.4-.3-.2-.1-.3-.7-.5-1s-.4-.4-.4-.4l-.6-.4s-.4-.3-.5-.3-.6-.4-.6-.4c0,0-.3-.4-.5-.4s-.1,0-.6-.2c-.3,0-.2-.2-.2-.3v-.7c0-.4.7-.3,1-.2.3,0,.7.4.9.4s.8.2.9.5c.1.4,1.1,1.4,1.7,1.7.6.3,1.2,1.6,1.3,1.7,0,.1.4.2.4.2.7.2.9,1.5,1,1.7.2.2.6,0,.8.2.2.1.2.3.4.8.1.4.5,1,.5,1.3,0,.2-.2,1.4-.2,1.6s.2,2.6.2,2.6c0,0-.2.4-.2.6s.7.5.7.5c0,0,.2,0,0,.5-.2.8.4,1.1,0,2.3-.1.4-.5.7-.5.8v.3s-.2,0-.2.2c0,0,.1.5,0,.8,0,.3,0,.7-.2.8-.1.1-.3,1.2-.2,1.3,0,.2-.2.3-.4.4-.1.2-.3.1-.3,0s.2-.8.1-1q0-.2-.1-.4c0-.1-.1-.5-.1-.5-.2-.5-.5,0-.5.2v2.6c0,.4-.2.7-.4.8-.2,0-.5-.3-.7-.2-.1,0-.4.3-.4.7v1.4c-.1.4-.6.3-.7,0,0-.3,0-.6-.1-1,0-.4-.1-.6-.2-.7-.1-.1-.4,0-.6-.1-.2-.1,0-1.1-.2-1.3-.2-.3-.3-.3-.5-.3s-.3.5-.5.9c-.1.5.2,1.6.2,1.6v.8c0,.1-.3.6-.3.7s-.1.4-.1.4c-.2.5-.6.2-.6,0v-.8c0-.5-.6-.2-.7-.7,0-.2.2-.5.2-.8s-.2-.6-.2-.6c-.3-.4,0-.4,0-.6-.1-.2-.2-.2-.6-.3-.3,0-.1.4-.1.4,0,0,.1.2.1.4s-.4,1.5-.4,1.8.2,1.5,0,2.3c-.1.4-.7.3-.8,0-.1-.2-.1-.9-.1-.9v-2.5c0-.2.1-.8,0-1,0-.3-.1-.5-.4-.7-.2-.2-1.2-.7-1.5-.7s-.6.2-.7.3c-.2.2-.4,1.1-.4,1.3,0,.5.2,1.1.2,1.1v.5c-.2.5-.6.5-.7.9,0,.3,0,.4-.2.5-.2.2-.5,0-.5,0l-.3-.3c-.4-1.2.1-2,.1-2.1v-.5c-.9-1-.7-1.9-.7-2.1s-.1-.1-.4,0h-.3l-.8,1.1ZM40.2,23.7s-.5,1.3-.3,2.1c.2.6.4.5.4.6,0,0,0,.5.2.7,0,.1.3.3.5,0,0,0,.3-.3.2-.9,0-.4-.3-.4-.3-.4,0,0-.6,0-.3-1.5,0,0,.2-1.2-.4-.5v-.1ZM41.7,22.7s0,.4.2.5c0,0,.4.3.7.1.2,0,.2-.4.2-.5s0-.3-.2-.5-.4-.3-.5-.2c-.1,0-.5.3-.4.6ZM35.6,18.5s-.2,0,0,.3c0,.2.3.6.3.6,0,0,.1.3.2.2.2,0,.3-.3.3-.3v-.8c-.1,0-.5-.4-.7,0h-.1ZM32.1,16.6v.2s.3.5.5.5.6,0,.8-.4c.2-.3.5-1.7.5-1.7,0,0-.1-.4-.4-.5-.2,0-.6-.3-1,0s-.5,1.8-.5,1.8l.1.1ZM29,16.1s0,.4.2.5.2.6.3.6c0,0,0,.2.2.2.1,0,.6-.1.3-1-.2-.8-.7-.6-.7-.6,0,0-.2,0-.3.3ZM10.3,18.9l-.2.4s-.1.6.3.6.5-.2.6-.3c0-.1.1-.5,0-.6-.4-.3-.7,0-.7,0v-.1ZM8.8,21.9h-.4s-.6,0-.6.5-.3,1.4-.3,1.6c.1.2.4.9.6,1,.2,0,.6.3.9,0,.2-.2.3-1.3.2-1.8,0-.5,0-1.1-.4-1.3ZM18.6,14.8s-.9-.3-1.1,0c-.2.2-.3.4-.3.5,0,0,0,.6.4.9,0,0,.6.3,1.2.1,0,0,.3,0,.2-.9,0-.8-.3-.6-.3-.6h-.1ZM19.5,14.3s.2.2.3.2h.2s.2-.1.1-.3c0-.2-.2-.3-.2-.3,0,0-.5-.3-.4.4ZM23.2,10.4c-.2-.5-.8-.6-1.2-.3-.2.3-.4.4-.3.7.2.4.3.9.6,1.3.2.2.5.6.8.3.1,0,.4-.1.5-.3.2-.5,0-.5,0-1.2q0-.3-.3-.6l-.1.1ZM26.1,8.7c-.2,0-.5,0-.6.2v.1c-.1.3-.1.6,0,.8,0,.1.2.1.3,0,0,0,.1,0,.1-.1,0,0,.2-.1.3-.2h0c.2-.1.2-.3.2-.4h0v-.3h-.2"/>
        <path d="M18.4,8.5c.3-.3.3-.4.6-.3.2,0,.3.3-.2.7s-1,.9-1.4,1.1c-.4.2-1,.1-.7-.3.4-.6.8-.3,1.8-1.1l-.1-.1Z"/>
        <path class="cls-1" d="M13.4,31.8s-.3.9-.3,1.1,0,1.5.3,1.8.4.3.4.5.2.3.4.2c.2,0,.3-.7.3-1s-.4-.5-.4-1.1.3-1.2.3-1.2c0,0,0-.7-.2-.9-.3-.2-.7.2-.7.4h0l-.1.2Z"/>
        <path d="M12.4,27.3s-.4,0-.4.2.2.5.3.5c.3.2.4.1.6,0,.2-.2-.1-.5-.1-.5h-.4v-.2Z"/>
        <path d="M8.4,22.4s-.1,0-.2.2c0,.2-.1,1.3-.1,1.3v.6c.1,0,.3,0,.3-.2v-1c0-.1.2-.7.2-.8l-.2-.2v.1Z"/>
        <path d="M13.1,22.8s.4,0,.3.1c0,.2-.5.7-.7.7s-.5,0-.4-.3c.2-.4.8-.5.8-.5Z"/>
        <path d="M13.9,15.8c0,.4-.1.5.2.6.3,0,.3-.2.4-.5,0-.3,0-.9.2-1,0-.1.8-1.4.3-1.9-.4-.5-1.3-1-2.2-.5-1,.5-1.1,1.1-1.2,1.3,0,.2,0,.3.1.1s.4-.5.5-.6.7-.3.7-.3c0,0,2.2,0,1.5,1.8,0,0-.6.7-.6,1.1l.1-.1Z"/>
      </g>
    </g>
  </g>
</svg>