<?xml version="1.0" encoding="UTF-8"?>
<svg id="Layer_2" xmlns="http://www.w3.org/2000/svg" viewBox="0 0 197.72 46.64">
  <defs>
    <style>
      .cls-1 {
        fill: #009d42;
      }

      .cls-2 {
        fill: #fff;
      }
    </style>
  </defs>
  <g id="_레이어_1" data-name="레이어_1">
    <g id="_로고-화이트" data-name="로고-화이트">
      <g>
        <g>
          <path class="cls-2" d="M168.45,14.39v-3.77h5.75v-1.99h4.81v1.99h5.93v3.78h-1.78c1.46,1.24,2.38,2.91,2.38,4.79,0,3.86-3.95,7-8.83,7s-8.82-3.14-8.82-7c0-1.88.92-3.55,2.41-4.81h-1.84ZM176.7,22.74c2.32,0,4.19-1.6,4.19-3.56s-1.87-3.58-4.19-3.58-4.18,1.6-4.18,3.58,1.87,3.56,4.18,3.56Z"/>
          <path class="cls-2" d="M197.6,31.49c.08.24.12.5.12.75,0,3.15-6.34,5.74-14.15,5.74s-14.14-2.59-14.14-5.74,6.33-5.72,14.14-5.72c3.48,0,6.66.49,9.12,1.33v-9.13h-1.79v7.27h-4.56v-15.69h4.56v4.28h1.79v-4.32h4.87l.03,21.22ZM183.57,34.47c5.06,0,9.17-1,9.17-2.23s-4.11-2.24-9.17-2.24-9.17,1.01-9.17,2.24,4.1,2.23,9.17,2.23Z"/>
        </g>
        <g>
          <path class="cls-2" d="M129.78,16.86c0-4.03,5.13-7.28,11.44-7.28s11.47,3.25,11.47,7.28-5.14,7.27-11.47,7.27-11.44-3.25-11.44-7.27ZM141.22,20.64c3.58,0,6.48-1.71,6.48-3.78s-2.9-3.79-6.48-3.79-6.46,1.7-6.46,3.79,2.89,3.78,6.46,3.78Z"/>
          <path class="cls-2" d="M158.45,29.96c.23.46.35.95.35,1.44,0,3.65-6.3,6.6-14.09,6.6s-14.08-2.96-14.08-6.6,6.31-6.59,14.08-6.59c3.48,0,6.64.58,9.1,1.55v-13.33c0-3.17,2.52-2.77,2.52-2.77h6.29v3.6h-4.17l.02,2.23h4.15v3.84h-4.16v10.03ZM144.71,34.55c4.93,0,8.95-1.39,8.95-3.15s-4.01-3.15-8.95-3.15-8.94,1.42-8.94,3.15,4.02,3.15,8.94,3.15Z"/>
        </g>
        <g>
          <path class="cls-2" d="M122.15,13.83h4.27v-3.61l-6.38.02s-2.65-.42-2.65,2.59v21.06h-17.74v-4.76h-5.09v5.66s-.44,2.51,2.55,2.51h25.04V13.83Z"/>
          <path class="cls-2" d="M104.67,25.3c3.64,0,6.57-1.91,6.57-4.27s-2.93-4.28-6.57-4.28-6.6,1.92-6.6,4.28,2.96,4.27,6.6,4.27ZM93.56,14.78v-3.84h8.4v-1.78h5.31v1.81h8.49v3.81h-4.37c2.89,1.39,4.77,3.68,4.77,6.26,0,4.26-5.13,7.71-11.49,7.71s-11.51-3.45-11.51-7.71c0-2.58,1.88-4.87,4.76-6.26h-4.36Z"/>
        </g>
        <g>
          <polygon class="cls-2" points="57.71 27.11 88.01 27.11 88.01 30.95 82.96 30.95 82.96 37.3 77.68 37.3 77.68 30.95 67.96 30.95 67.96 37.3 62.75 37.3 62.75 30.95 57.71 30.95 57.71 27.11"/>
          <path class="cls-2" d="M87.49,17.79c0,4.66-6.56,8.42-14.68,8.42s-14.7-3.77-14.7-8.42,6.58-8.44,14.7-8.44,14.68,3.79,14.68,8.44ZM72.82,22.48c5.13,0,9.3-2.1,9.3-4.69s-4.17-4.67-9.3-4.67-9.29,2.09-9.29,4.67,4.15,4.69,9.29,4.69Z"/>
        </g>
      </g>
      <g>
        <g>
          <path class="cls-2" d="M25.62,44.1c12.76,0,23.09-9.3,23.09-20.78S38.38,2.56,25.62,2.56,2.55,11.84,2.55,23.32s10.34,20.78,23.08,20.78Z"/>
          <path class="cls-2" d="M0,23.32c0,12.85,11.49,23.32,25.62,23.32s25.62-10.47,25.62-23.32S39.76,0,25.62,0,0,10.47,0,23.32ZM5.09,23.32C5.09,13.28,14.3,5.09,25.62,5.09s20.53,8.19,20.53,18.23-9.21,18.23-20.53,18.23S5.09,33.37,5.09,23.32Z"/>
        </g>
        <g>
          <path d="M25.63,44.73c-13.08,0-23.72-9.61-23.72-21.42S12.55,1.91,25.63,1.91s23.71,9.6,23.71,21.4-10.64,21.42-23.71,21.42ZM25.63,3.21C13.26,3.21,3.2,12.23,3.2,23.31s10.06,20.12,22.42,20.12,22.42-9.03,22.42-20.12S37.99,3.21,25.63,3.21Z"/>
          <path d="M32.23,8.32s-.01.23.13.23c.14-.01.23-.16.19-.42-.07-.5-.52-.92-.52-.92,0,0-.33-.37-.62-.3-.48.11-.38.3-.33.41.05.12.44.19.65.34.21.15.29.36.36.42.07.06.14.24.14.24Z"/>
          <path d="M35.53,10.75c-.2,0-.16.13-.14.2.02.08.62.26.68.37.05.12.3.35.3.35,0,0,.77.32.93,1.15,0,0,.02.63.09.72.14.16.56.14.62.17.07.05.17.05.32.12.17.08.27.05.36.1.09.06.4.33.52.36.28.11.54.62.63.74.09.12.27.4.38.77.04.15.17.33.17.33,0,0,.05.1.16.05.11-.05.14-.17.14-.32-.02-.15-.49-.96-.49-.96,0,0-.26-.41-.4-.46-.13-.05-.15-.14-.3-.5-.16-.35-1.07-1.38-1.29-1.53-.21-.14-.7-.21-1.01-.53-.16-.17-.27-.54-.51-.69-.24-.14-.95-.45-1.14-.46Z"/>
          <path class="cls-1" d="M30.48,23.18s-.24.2-.53.25c-.29.05-1.62-.2-1.24.81,0,0,.07.23.3.44.3.3.94.51,1.04.69.09.19.53.4.69.46.16.06.05.92.05.92,0,0,0,.32.3.28.3-.05.84-.42.91-.48.15-.15.25-1.39.13-1.71-.13-.31-1.14-.76-1.29-1.03-.16-.26-.14-.54-.21-.62-.05-.08-.15,0-.15,0Z"/>
          <path d="M31.82,22.82s-.39.18-.25.46c.15.26.85.39.85.39,0,0,.89.58.89,1.03s-.06,1.12-.06,1.25.1,1.02.06,1.17c-.06.13-.26.44-.79.39,0,0-.5.05-.05.31.45.27.66.22.75.27.09.05.14.23.2.27.05.04.64.36.94.27.29-.09.49.19.84-.37.22-.35.06-1.94-.03-2.38-.15-.68-.16-1-.17-1.13-.02-.47.17-.52.17-.52,0,0,.12-.21-.15-.19-.28.02-1.3-.02-1.54-.17-.25-.15-.8-.68-.87-.77-.07-.09-.79-.28-.79-.28Z"/>
          <path class="cls-1" d="M21.73,23.43l-.22.06s-.3.15-.48.81c-.06.22-.12.24-.18.33-.05.1-.09.62-.09.62,0,0-.13.41.07.41s.48-.23.48-.23c0,0,.57-.54.59-.8.02-.17.03-1.17-.17-1.2Z"/>
          <path d="M25.77,19.97s.39.09.64-.14c.25-.22.45-.22.45-.22l1-.15s.3.07.41.24c.12.19-.04.53.18.97.22.44,1.09.98,1.14,1.2.05.23-.05-.08.2.31.25.4-.15.44-.15.44,0,0-1.61-.04-1.86.76,0,0-.63,1.14.77,2.05,0,0,.5.45.9.58,0,0,.79.36,0,.86l-.35.13s-.4.27-.7.54c-.3.26-.69.98-.49,1.65.2.66.49,1.2.49,1.38s.2,1.08.2,1.39-.34,1.66-.2,2.41c.15.75.99,1.7,1.29,2,.29.32.44.54.44.54,0,0,3.62,1.11,3.87,1.16.25.04.44.05.55.09.11.04.44.22.44.44s-.47.54-.54.63c-.07.08-.06.13-.15.21-.08.09-.76.49-.94.54-.16.05-.21.03-.3.09-.08.05-.19.21-.19.21,0,0-.25.29-.44.36-.2.06-.41.09-.5.13-.09.05-.2.26-.3.31-.1.04-.35,0-.44.04-.18.09,0,.58-1.44.36-1.44-.22-1.38.06-1.38.06,0,0-.5.39-1.14.21-.65-.18-1.05.35-1.34.4-.3.05-2.23-.58-2.23-.58l-.4-.22s-.84-.27-1.03-.23c-.2.04-1.64-.22-2.46-.46-.76-.22-1.89-.54-1.98-.85-.1-.31.09-.57.29-.67.2-.08.75-.08,1.09-.23.34-.14,1.37-1.32,1.77-1.49.39-.19.49-.41.69-.99.19-.58,1.35-2.08,1.38-2.27.2-1.03-.18-.74-.1-2.28.1-1.83.69-1.92.3-2.18-.33-.23-.59-.54-.69-1.43,0,0-.06-.23-.35-.28-.3-.04-1.4.41-2.58.18,0,0-.79.27-.95.23-.15-.04-.44-.41-.49-.71-.04-.31-.25-.62-.04-1.03.19-.39.54-.79.54-.79,0,0,.1-.33.25-.72,0,0,.35-.39.3-.67-.06-.27-.1-.62-.8-.4,0,0-.14.13-.29.25-.16.12-.82.21-1.06.34-.25.13-.97.57-.97.57,0,0-.47.33-.6.54-.13.21-.39,1.3-.39,1.3,0,0-.25,1.79-.31,1.96-.04.18-.04.99-.04.99,0,0-.2.57-.55.39-.34-.17-1.11-1.44-1.11-1.44,0,0,.06-.09.18-.09.15,0,.25.07.49-.2.32-.37.19-1.21.05-1.52-.15-.31-.78-.41-.78-.41,0,0-.13-.02-.14-.11-.02-.14.41-.34.63-.44.27-.13.68-.84.75-1.03.15-.4,1.02-1.81.87-3.33,0,0-.02-.12.05-.53.14-.81.91-.98,1.09-1.25.2-.31.28-.67,1.2-.29.38.15.96-.02.96-.02,0,0,.94.06-.02.58-.4.2-1.29.63-1.73,1.39-.16.27-.57,1.27-.26,1.68.25.33.52.42.52.42,0,0,.59.04.97-.36.36-.39.69-.55.99-.6.3-.04.95-.85,1.19-.85,0,0,.53-.24.59.09.07.34.34.8-.62,2.29,0,0-.1.45-.1.63s-.2.5-.2.58-.27.36-.17.54c.1.17.3.34.44.31.15-.02.37-.07.37-.07,0,0,.8-.13.89-.13s.29.03.29.03c0,0,.37-.07.47-.3.11-.22.66-1.15.66-1.15,0,0,.1-.07.12-.26.01-.12-.24-1.72-.29-1.76-.04-.04.03-.42.08-.54.05-.11.5-.74.54-1.25,0,0-.04-.76.05-1.09.1-.34.64-1.88,1.54-.55,0,0,.72.55,1.02.53ZM24.56,22.9c-.04.38-.2.17-.15.53.05.37.22.54.22.54.33.26.45,2.05.45,2.05,0,0,.12.62.4.24.26-.37.39-1.65.34-1.74-.05-.09,0-.42,0-.42.57-1.8.18-1.83.1-2.01-.07-.18-.44-.37-.79-.29-.35.08-.57.51-.57.51-.09.17.02.33,0,.59Z"/>
          <path class="cls-1" d="M21.16,29.36s.1-.25.17-.28c.08-.02.25-.04.22.14-.02.18.02.36.12.52.1.14-.12,1.47-.15,1.66-.02.2-.27.27-.37-.09-.07-.26-.2-.42-.17-.53.02-.11.1-.61.1-.79s.07-.64.07-.64Z"/>
          <path class="cls-1" d="M20.23,29.25s-.07-.2-.44-.26c-.07-.02-1.01.08-1.31.6,0,0-.25,1.94-.12,2.19.12.25.14.07.27.22.14.15.1.37.2.56.1.18.27.39.27.39,0,0,.1.79.35.92,0,0,.39.06.47-.24.07-.31-.08-.63-.08-.63,0,0,.05-.18.08-.4.02-.23-.05-.42-.05-.56s.44-1.38.44-1.38c.05-1.1-.02-1.3-.09-1.41Z"/>
          <path class="cls-1" d="M17.63,25.29c-.24-.05-1.13.58-1.16.69-.02.11-.14.02-.36.89-.13.49-.05.48-.46,2.47-.4,2,.43,3.12.43,3.12,0,0,.15.18.27-.13.12-.31-.33-.87-.15-1.08.18-.2.6-.13.65.07.07.25.07.18.1.36.03.18-.04.83-.09,1.03-.05.21.04,1.11.41,1.14.27.03.32-.79.32-.79,0-.54.07-.9.07-.9-.04-.37-.15-.3-.09-.68.03-.19.12-.65.12-.65,0,0-.02-1.78-.06-2.07-.02-.3-.55-1.32-.55-1.74-.01-.42.28-.84.51-1.16.22-.31.18-.1.26-.35.07-.25-.16-.21-.23-.21Z"/>
          <path class="cls-1" d="M29.3,29.65c-.8-.75-.3-1.4-.3-1.4.22-.31.17-.36.87-.58,1.12-.37,1.65.65,1.65.65,2.58,1.6,3.38,1.2,3.38,1.2,0,0,.44.04.99-.26.54-.31.44-.81.44-.81l-.15-1.55s.05-.76.05-.9-.2-.72-.2-.72c0,0-.09-.45,0-.58.1-.14.36-.7.11-.82-.25-.15-.52-1.17-.66-1.54-.15-.35-.57-.02-.59.1-.03.12.05.31,0,.62-.06.31-.75.14-1.04.04-.3-.09-.5-.58-.6-.89-.1-.31.14-.61.17-.77.04-.16.12-.64-.29-.82-.31-.15-.6.07-.57.53.03.42-.05.7-.11.78-.11.16-.49-.07-.89.02-.39.09-.74.63-.89.54-.15-.1,0-.27-.15-.76-.15-.5-1.14-1.24-1.26-1.42-.12-.18-.02-.43-.08-.68-.06-.26-.29-.58-.29-.58,0,0-.36-.52-.94-.45-.33.04-1.44.27-1.44.27,0,0-.55.27-.89.22-.35-.04-.29-.31-.4-.44-.1-.14-1.24-.76-1.59-.72-.35.05-.94,1.06-1.14,1.53-.2.44-.3,1.87-.3,1.87,0,0-.11.26-.45.41-.35.13-.55-.18-.55-.18-.94-.81-1.38-.14-1.79.04-.39.18-.66.54-.94.67-.61.31-.74.63-.74.63-.84.49-.45-.27-.45-.27,0-.36.45-.67.45-.67,1.09-.57,2.53-1.92,2.58-2.13.05-.23-.39-.54-.64-.72-.25-.18-1.09-.18-1.24-.1-.15.1-.69.14-1.09-.17-.39-.31-1.03-.09-1.03-.09,0,0-.3.4-.54.54-.25.14-.5.22-.85.58-.34.36-.94,1.03-.7,2.01.25.98-.2.49-.2.49-1.49-1.02-2.48.45-2.58,1.34-.1.9,1,.93,1.4.8.4-.13.64-.25.59-.04-.25.91-1.39,1.7-1.59,1.73-1.34.31-1.09.99-1.09.99,0,0,.08.37.25.53.17.17.77.32.75.52-.04.58.14.7.14.7,1.21.93,1.01,1.82,1,2.14-.04.89-.17,1.14-.28,1.43-.12.29,0,.95-.09,1.17-.1.23-.33.17-.33.17,0,0-.1-.1-.2-.27-.1-.18.15-.49.05-1.56-.14-1.62-.71-1.66-.71-1.66-.84.59-.58,1.44-.53,1.84.05.4-.29.79-.29,1.25s.25,1.16.25,1.52-.3.66-.59.43c-.3-.22-1.08-1.53-1.04-1.95.04-.43.09-1.07.09-1.07-.34-1.17-.04-1.52-.04-1.52.89-1.92.34-1.88.34-1.88-.34-.67-.64.09-.64.09l-.49,1.43s-.06,1.16-.11,1.38c-.05.22-.16.43-.35.46-.18.01-.74-.76-.69-1.08.12-.71-.15-1.21-.15-1.38,0-.18.1-.14.1-.71s-.35-.55-.39-.28c-.05.26-.31.5-.42.37-.18-.2-.25-.29-.23-.66.02-.72-.37-1.75-.33-2.41.06-.68.4-1.15.18-1.7-.17-.39-.57-.71-.46-1.12.2-.71.23-1.87.19-2.05-.05-.18.11-.74.38-.6.04,0,.12.33.19.38.25.22.53.28.69.04.26-.37-.02-1.43-.47-1.72-.29-.19-.6-.84-.43-1.62.11-.53.69-.71.79-1.07.1-.36.39-1.03,1.18-1.83.79-.81.95-.36,1.1-.31.14.05.49-.09.45-.36-.06-.26,0-1.2.1-1.38.09-.18.69-.22.84-.67.15-.44.59-.89.94-1.08.34-.17,1.74-.62,2.03-.27.3.35-.1.58-.1.58-2.43.8-2.43,2.09-2.63,2.72-.2.63.2.76.55.85.35.09.95-.49,1.19-.89.25-.41.79-.36,1.29-.13.14.06.23.43-.3,1.16-.15.21-.07.23-.15.57-.04.18.11.61.11.61,0,0,.05.34.2.51.15.18.69.21.9.18.2-.03.43-.28.5-.38.06-.1.49-1.15.49-1.45s.34-.98.45-1.16c.1-.18.05-.8-.06-1.12-.1-.31-.88-1.01-.99-1.29-.11-.27-.2-1.17-.2-1.56s.76-2.28,1.3-2.85c.53-.59,1.14-.9,1.14-.9,1.39-.85,1.1,1.08.84,1.52-.26.44-1.88,1.2-2.13,1.7-.25.49.15,1.02.35,1.11.2.09.83.11,1.14-.04.79-.4.61-.54,1.4-.98.58-.32.96-.84,1.03-.98.05-.12-.2-.76-.2-.76l-.65-.62c-.59-.94.85-1.45,1.09-1.39.58.15.84.5,1.05.49.46,0,.6-.68,1.09-.84.48-.17,1.75.46,2.08.35.34-.11.47-.54.74-.62.27-.08.65.15.79.04.15-.1.34-.21.79,0,.44.23.67.3.84.23.18-.06.62-.21.62-.21,1.02-.76,1.66.07,1.91.52.25.44.71.31.66.6-.05.27-.75.05-.93.35-.18.31-.08.4.02.71.1.31.84.44,1.09.44s.53.38.53.38c0,0,.18.71.64.95.19.1.71.29,1.01.03.3-.27.27-.79.25-.94-.02-.17-.26-.7-.35-.94-.09-.24.08-.75.5-.5.2.12.57.32.69.52.18.3.31.31.39.43.09.11.14.37.1.45-.04.07-.21.11-.25.22-.13.39.33.6.35.76.02.15-.1.53-.1.53,0,0-.19.44-.15.64.05.18.15.18.15.31,0,.12-.12.2-.15.31-.02.12.21.66.35.8.14.14.79.43.99.58.2.15.43.43.5.63.05.2.04.84.14,1.03.11.18.36.5.54.58.2.07.65.09.65.09,0,0,.34-.01.54.05.2.05.74.68.8.84.06.17.02.43.1.58.07.15.43.61.59.71.17.1.71.21,1,.18.29-.03.63-.2.69-.27.07-.07.15-.18.21-.45.05-.26.17-.41.07-.59-.1-.18-.26-.55-.32-.75-.06-.18-.3-.4-.4-.62-.1-.23-.18-.46-.35-.63-.16-.17-.28-.17-.45-.31-.16-.14-.33-.71-.54-1.03-.22-.32-.35-.35-.35-.35l-.64-.45s-.4-.27-.55-.31c-.15-.04-.59-.4-.59-.4,0,0-.35-.41-.5-.41s-.15-.09-.6-.22c-.34-.1-.18-.18-.2-.27,0-.1-.1-.36-.1-.36,0,0-.02.06,0-.31.01-.37.75-.31.99-.22.25.09.74.44.9.44.14,0,.79.18.94.54.14.36,1.09,1.43,1.68,1.7.6.27,1.25,1.64,1.32,1.75.08.12.41.22.41.22.7.18.86,1.49,1.04,1.65.18.15.58.09.79.23.22.12.2.35.35.79.15.45.54,1.04.5,1.25-.05.22-.25,1.43-.15,1.61.1.19.2,2.63.2,2.63,0,0-.2.41-.2.62,0,.23.69.49.69.49,0,0,.16.06.04.49-.22.77.38,1.14.05,2.32-.12.44-.46.65-.55.76-.08.11,0,.19-.05.27-.04.08-.2.09-.25.18-.05.09.12.48.1.8-.02.33-.1.72-.19.85-.1.14-.25,1.16-.2,1.34.04.18-.2.28-.35.45-.15.18-.34.13-.34-.04s.2-.77.15-.98c-.05-.21-.09-.23-.15-.36-.06-.12-.14-.47-.14-.47-.23-.52-.5.09-.47.25.02.06.06.37.01.77-.05.39.04,1.42.04,1.78s-.25.73-.44.78c-.2.04-.55-.31-.7-.22-.15.08-.36.33-.4.69-.03.36.04.93-.08,1.37-.12.45-.64.28-.74,0-.1-.27-.06-.62-.12-.96-.06-.35-.1-.62-.25-.74-.13-.1-.42-.01-.59-.12-.17-.12-.04-1.08-.21-1.33-.15-.26-.27-.31-.49-.27-.22.04-.35.45-.5.94-.15.49.15,1.6.15,1.6l.05.46s.02.12,0,.26c-.03.15-.3.57-.34.72-.06.15-.11.38-.11.38-.24.53-.57.2-.59.05-.02-.14-.05-.31-.05-.8s-.59-.21-.74-.71c-.07-.21.18-.5.2-.76.01-.26-.15-.58-.15-.58-.34-.41.03-.43-.1-.63-.13-.2-.25-.19-.6-.27-.35-.09-.14.36-.14.36,0,0,.13.16.14.36.01.2-.41,1.45-.45,1.78-.04.34.23,1.54-.01,2.27-.14.39-.66.26-.77.06-.12-.21-.15-.85-.15-.85,0,0-.1-.67-.1-.99s.09-.58.1-.81c0-.21-.1-.53-.1-.71,0-.18.1-.78.04-1.02-.05-.25-.15-.48-.35-.72-.19-.25-1.23-.71-1.52-.71s-.63.16-.75.26c-.25.21-.35,1.08-.36,1.29-.02.52.2,1.07.2,1.07,0,0,.07.07-.1.47-.18.46-.56.49-.7.9-.1.31,0,.36-.2.54-.2.17-.5-.04-.5-.04l-.25-.32c-.39-1.15.1-1.96.15-2.1.06-.13.06-.48.06-.48-.89-1.03-.74-1.91-.74-2.14s-.14-.12-.38,0c-.18.08-.26-.09-.26-.09ZM40.21,23.71s-.47,1.33-.26,2.07c.17.6.39.51.44.6.06.1.05.51.15.65.09.14.32.28.52.02,0,0,.25-.34.21-.91-.07-.37-.33-.43-.33-.43,0,0-.55-.04-.3-1.47,0,0,.24-1.17-.43-.52ZM41.71,22.71s.09.36.17.47c.05.07.36.29.74.13.25-.1.23-.36.23-.47s-.07-.34-.23-.52c-.15-.17-.39-.27-.52-.22-.12.05-.52.29-.39.6ZM35.61,18.46s-.17.09-.07.31c.09.21.29.63.29.63,0,0,.1.29.25.23.15-.07.25-.27.25-.27l-.12-.8s-.34-.41-.59-.09ZM32.12,16.58v.25s.34.49.54.52c.2.02.59-.05.79-.36.19-.31.54-1.74.54-1.74,0,0-.14-.45-.35-.53-.19-.09-.59-.29-.98.04-.39.33-.54,1.83-.54,1.83ZM29.04,16.11s-.02.37.22.5c.25.13.23.55.27.63.05.06.02.23.17.2.15-.06.57-.11.34-1.04-.2-.79-.69-.58-.69-.58,0,0-.25.06-.32.3ZM10.25,18.85l-.25.4s-.1.63.34.63.54-.17.6-.32c.05-.13.13-.51,0-.63-.37-.33-.69-.09-.69-.09ZM8.77,21.93l-.39-.09s-.6.09-.65.59c-.05.48-.35,1.43-.25,1.6.1.18.39.94.59,1.03.2.09.65.26.89.04.25-.23.3-1.3.25-1.82-.04-.54,0-1.12-.44-1.35ZM18.61,14.77s-.87-.28-1.09-.06c-.22.22-.27.44-.29.51-.03.07-.07.6.35.92,0,0,.64.29,1.16.11,0,0,.27-.07.2-.91-.07-.85-.32-.57-.32-.57ZM19.53,14.26s.17.2.27.22c.1.02.17,0,.17,0,0,0,.18-.11.12-.3-.05-.18-.17-.32-.17-.32,0,0-.52-.28-.4.39ZM23.19,10.42c-.18-.46-.76-.56-1.19-.26-.16.32-.41.43-.27.71.23.44.33.91.62,1.31.18.25.51.58.81.35.12-.09.4-.14.48-.31.22-.46.01-.48-.1-1.22-.09-.28-.02-.31-.35-.58ZM26.08,8.67c-.17-.04-.49.03-.58.16-.02.03-.03.07-.05.11-.1.27-.14.57-.05.83.04.12.17.1.29.07.01-.06.13-.03.12-.11.09-.08.22-.11.32-.2.02-.02.02-.05.03-.06.15-.1.25-.27.24-.41,0,0,0-.02-.02-.04-.04-.04-.04-.09-.08-.11-.04-.05-.04-.11-.04-.18-.08,0-.08-.07-.15-.08-.02,0-.08-.01-.07-.06"/>
          <path d="M18.39,8.48c.34-.27.32-.35.55-.35.2.02.3.26-.23.67-.54.4-1.03.91-1.39,1.07-.36.17-1.03.12-.7-.34.42-.57.82-.3,1.78-1.06Z"/>
          <path class="cls-1" d="M13.43,31.77s-.27.88-.29,1.06c-.02.17,0,1.49.27,1.82.27.34.41.29.41.49s.18.28.36.24c.18-.04.34-.66.29-.98-.04-.32-.37-.47-.39-1.05-.02-.58.27-1.19.27-1.19,0,0,.08-.67-.2-.87-.27-.21-.65.24-.69.41,0,0,0,.03-.03.08Z"/>
          <path d="M12.45,27.32s-.39-.08-.39.15c0,.25.2.48.32.54.33.16.4.14.59-.08.19-.22-.12-.5-.12-.5l-.41-.1Z"/>
          <path d="M8.44,22.4s-.11.02-.2.2c-.09.17-.12,1.35-.12,1.35,0,0-.03.52.08.6.12.08.26.05.32-.17.05-.22-.06-.89-.06-.96s.22-.71.17-.79c-.06-.07-.2-.23-.2-.23Z"/>
          <path d="M13.14,22.79s.36-.03.28.15c-.08.17-.53.7-.75.65-.22-.06-.53.07-.36-.3.16-.38.83-.5.83-.5Z"/>
          <path d="M13.89,15.82c-.01.41-.1.48.21.56.32.09.29-.19.39-.49.1-.3.1-.89.17-1.02.07-.13.76-1.38.33-1.88-.44-.5-1.26-.99-2.17-.49-.97.53-1.14,1.08-1.23,1.26-.09.17.02.31.14.14.12-.18.38-.5.5-.64.12-.13.66-.32.73-.3.07.02,2.2.04,1.52,1.81,0,0-.59.65-.6,1.06Z"/>
        </g>
      </g>
    </g>
  </g>
</svg>