<?xml version="1.0" encoding="UTF-8"?>
<svg xmlns="http://www.w3.org/2000/svg" version="1.1" viewBox="0 0 197.7 46.6">
  <defs>
    <style>
      .cls-1 {
        fill: #fff;
      }

      .cls-2 {
        fill: #009d42;
      }
    </style>
  </defs>
  <!-- Generator: Adobe Illustrator 28.6.0, SVG Export Plug-In . SVG Version: 1.2.0 Build 709)  -->
  <g>
    <g id="Layer_2">
      <g id="_레이어_1">
        <g id="_로고-화이트">
          <g>
            <g>
              <path class="cls-1" d="M168.4,14.4v-3.8h5.8v-2h4.8v2h5.9v3.8h-1.8c1.5,1.2,2.4,2.9,2.4,4.8,0,3.9-3.9,7-8.8,7s-8.8-3.1-8.8-7,.9-3.6,2.4-4.8h-1.8ZM176.7,22.7c2.3,0,4.2-1.6,4.2-3.6s-1.9-3.6-4.2-3.6-4.2,1.6-4.2,3.6,1.9,3.6,4.2,3.6Z"/>
              <path class="cls-1" d="M197.6,31.5c0,.2.1.5.1.7,0,3.2-6.3,5.7-14.1,5.7s-14.1-2.6-14.1-5.7,6.3-5.7,14.1-5.7,6.7.5,9.1,1.3v-9.1h-1.8v7.3h-4.6v-15.7h4.6v4.3h1.8v-4.3h4.9v21.2s0,0,0,0ZM183.6,34.5c5.1,0,9.2-1,9.2-2.2s-4.1-2.2-9.2-2.2-9.2,1-9.2,2.2,4.1,2.2,9.2,2.2Z"/>
            </g>
            <g>
              <path class="cls-1" d="M129.8,16.9c0-4,5.1-7.3,11.4-7.3s11.5,3.2,11.5,7.3-5.1,7.3-11.5,7.3-11.4-3.2-11.4-7.3ZM141.2,20.6c3.6,0,6.5-1.7,6.5-3.8s-2.9-3.8-6.5-3.8-6.5,1.7-6.5,3.8,2.9,3.8,6.5,3.8Z"/>
              <path class="cls-1" d="M158.4,30c.2.5.4,1,.4,1.4,0,3.6-6.3,6.6-14.1,6.6s-14.1-3-14.1-6.6,6.3-6.6,14.1-6.6,6.6.6,9.1,1.5v-13.3c0-3.2,2.5-2.8,2.5-2.8h6.3v3.6h-4.2v2.2h4.2v3.8h-4.2v10h0ZM144.7,34.5c4.9,0,8.9-1.4,8.9-3.1s-4-3.1-8.9-3.1-8.9,1.4-8.9,3.1,4,3.1,8.9,3.1Z"/>
            </g>
            <g>
              <path class="cls-1" d="M122.2,13.8h4.3v-3.6h-6.4s-2.7-.4-2.7,2.6v21.1h-17.7v-4.8h-5.1v5.7s-.4,2.5,2.6,2.5h25V13.8Z"/>
              <path class="cls-1" d="M104.7,25.3c3.6,0,6.6-1.9,6.6-4.3s-2.9-4.3-6.6-4.3-6.6,1.9-6.6,4.3,3,4.3,6.6,4.3ZM93.6,14.8v-3.8h8.4v-1.8h5.3v1.8h8.5v3.8h-4.4c2.9,1.4,4.8,3.7,4.8,6.3,0,4.3-5.1,7.7-11.5,7.7s-11.5-3.5-11.5-7.7,1.9-4.9,4.8-6.3c0,0-4.4,0-4.4,0Z"/>
            </g>
            <g>
              <polygon class="cls-1" points="57.7 27.1 88 27.1 88 31 83 31 83 37.3 77.7 37.3 77.7 31 68 31 68 37.3 62.8 37.3 62.8 31 57.7 31 57.7 27.1"/>
              <path class="cls-1" d="M87.5,17.8c0,4.7-6.6,8.4-14.7,8.4s-14.7-3.8-14.7-8.4,6.6-8.4,14.7-8.4,14.7,3.8,14.7,8.4ZM72.8,22.5c5.1,0,9.3-2.1,9.3-4.7s-4.2-4.7-9.3-4.7-9.3,2.1-9.3,4.7,4.2,4.7,9.3,4.7Z"/>
            </g>
          </g>
          <g>
            <g>
              <path class="cls-1" d="M25.6,44.1c12.8,0,23.1-9.3,23.1-20.8S38.4,2.6,25.6,2.6,2.5,11.8,2.5,23.3s10.3,20.8,23.1,20.8h0Z"/>
              <path class="cls-1" d="M0,23.3c0,12.8,11.5,23.3,25.6,23.3s25.6-10.5,25.6-23.3S39.8,0,25.6,0,0,10.5,0,23.3ZM5.1,23.3C5.1,13.3,14.3,5.1,25.6,5.1s20.5,8.2,20.5,18.2-9.2,18.2-20.5,18.2S5.1,33.4,5.1,23.3Z"/>
            </g>
            <g>
              <path d="M25.6,44.7c-13.1,0-23.7-9.6-23.7-21.4S12.6,1.9,25.6,1.9s23.7,9.6,23.7,21.4-10.6,21.4-23.7,21.4ZM25.6,3.2C13.3,3.2,3.2,12.2,3.2,23.3s10.1,20.1,22.4,20.1,22.4-9,22.4-20.1S38,3.2,25.6,3.2Z"/>
              <path d="M32.2,8.3s0,.2.1.2c.1,0,.2-.2.2-.4,0-.5-.5-.9-.5-.9,0,0-.3-.4-.6-.3-.5.1-.4.3-.3.4,0,.1.4.2.6.3s.3.4.4.4.1.2.1.2Z"/>
              <path d="M35.5,10.8c-.2,0-.2.1-.1.2,0,0,.6.3.7.4,0,.1.3.4.3.4,0,0,.8.3.9,1.1,0,0,0,.6,0,.7.1.2.6.1.6.2,0,0,.2,0,.3.1.2,0,.3,0,.4.1,0,0,.4.3.5.4.3.1.5.6.6.7s.3.4.4.8c0,.1.2.3.2.3,0,0,0,.1.2,0,.1,0,.1-.2.1-.3,0-.1-.5-1-.5-1,0,0-.3-.4-.4-.5-.1,0-.2-.1-.3-.5-.2-.4-1.1-1.4-1.3-1.5-.2-.1-.7-.2-1-.5-.2-.2-.3-.5-.5-.7-.2-.1-1-.4-1.1-.5h0Z"/>
              <path class="cls-2" d="M30.5,23.2s-.2.2-.5.2-1.6-.2-1.2.8c0,0,0,.2.3.4.3.3.9.5,1,.7,0,.2.5.4.7.5s0,.9,0,.9c0,0,0,.3.3.3.3,0,.8-.4.9-.5.1-.1.3-1.4.1-1.7-.1-.3-1.1-.8-1.3-1-.2-.3-.1-.5-.2-.6,0,0-.1,0-.1,0h0Z"/>
              <path d="M31.8,22.8s-.4.2-.2.5c.1.3.8.4.8.4,0,0,.9.6.9,1s0,1.1,0,1.2,0,1,0,1.2c0,.1-.3.4-.8.4,0,0-.5,0,0,.3.5.3.7.2.8.3,0,0,.1.2.2.3,0,0,.6.4.9.3.3,0,.5.2.8-.4.2-.4,0-1.9,0-2.4-.2-.7-.2-1-.2-1.1,0-.5.2-.5.2-.5,0,0,.1-.2-.2-.2-.3,0-1.3,0-1.5-.2-.2-.1-.8-.7-.9-.8s-.8-.3-.8-.3Z"/>
              <path class="cls-2" d="M21.7,23.4h-.2c0,0-.3.2-.5.9,0,.2-.1.2-.2.3,0,.1,0,.6,0,.6,0,0-.1.4,0,.4s.5-.2.5-.2c0,0,.6-.5.6-.8,0-.2,0-1.2-.2-1.2Z"/>
              <path d="M25.8,20s.4,0,.6-.1c.2-.2.5-.2.5-.2h1c0-.1.3,0,.4,0,.1.2,0,.5.2,1,.2.4,1.1,1,1.1,1.2,0,.2,0,0,.2.3.2.4-.1.4-.1.4,0,0-1.6,0-1.9.8,0,0-.6,1.1.8,2,0,0,.5.5.9.6,0,0,.8.4,0,.9h-.4c0,.1-.4.4-.7.7-.3.3-.7,1-.5,1.6.2.7.5,1.2.5,1.4s.2,1.1.2,1.4-.3,1.7-.2,2.4c.1.8,1,1.7,1.3,2,.3.3.4.5.4.5,0,0,3.6,1.1,3.9,1.2.2,0,.4,0,.5,0s.4.2.4.4-.5.5-.5.6c0,0,0,.1-.2.2,0,0-.8.5-.9.5-.2,0-.2,0-.3,0,0,0-.2.2-.2.2,0,0-.2.3-.4.4-.2,0-.4,0-.5.1,0,0-.2.3-.3.3-.1,0-.4,0-.4,0-.2,0,0,.6-1.4.4s-1.4,0-1.4,0c0,0-.5.4-1.1.2-.6-.2-1,.3-1.3.4-.3,0-2.2-.6-2.2-.6l-.4-.2s-.8-.3-1-.2c-.2,0-1.6-.2-2.5-.5-.8-.2-1.9-.5-2-.8-.1-.3,0-.6.3-.7.2,0,.8,0,1.1-.2.3-.1,1.4-1.3,1.8-1.5.4-.2.5-.4.7-1,.2-.6,1.4-2.1,1.4-2.3.2-1-.2-.7-.1-2.3.1-1.8.7-1.9.3-2.2-.3-.2-.6-.5-.7-1.4,0,0,0-.2-.4-.3-.3,0-1.4.4-2.6.2,0,0-.8.3-1,.2-.1,0-.4-.4-.5-.7,0-.3-.2-.6,0-1,.2-.4.5-.8.5-.8,0,0,.1-.3.2-.7,0,0,.4-.4.3-.7,0-.3-.1-.6-.8-.4,0,0-.1.1-.3.2-.2.1-.8.2-1.1.3-.2.1-1,.6-1,.6,0,0-.5.3-.6.5-.1.2-.4,1.3-.4,1.3,0,0-.2,1.8-.3,2,0,.2,0,1,0,1,0,0-.2.6-.6.4-.3-.2-1.1-1.4-1.1-1.4,0,0,0,0,.2,0s.2,0,.5-.2c.3-.4.2-1.2,0-1.5-.1-.3-.8-.4-.8-.4,0,0-.1,0-.1-.1,0-.1.4-.3.6-.4.3-.1.7-.8.8-1,.1-.4,1-1.8.9-3.3,0,0,0-.1,0-.5.1-.8.9-1,1.1-1.2.2-.3.3-.7,1.2-.3.4.1,1,0,1,0,0,0,.9,0,0,.6-.4.2-1.3.6-1.7,1.4-.2.3-.6,1.3-.3,1.7.2.3.5.4.5.4,0,0,.6,0,1-.4.4-.4.7-.5,1-.6.3,0,1-.9,1.2-.9,0,0,.5-.2.6,0,0,.3.3.8-.6,2.3,0,0-.1.5-.1.6s-.2.5-.2.6-.3.4-.2.5c.1.2.3.3.4.3.1,0,.4,0,.4,0,0,0,.8-.1.9-.1s.3,0,.3,0c0,0,.4,0,.5-.3.1-.2.7-1.1.7-1.1,0,0,.1,0,.1-.3,0-.1-.2-1.7-.3-1.8,0,0,0-.4,0-.5,0-.1.5-.7.5-1.2,0,0,0-.8,0-1.1.1-.3.6-1.9,1.5-.5,0,0,.7.5,1,.5h0ZM24.6,22.9c0,.4-.2.2-.1.5,0,.4.2.5.2.5.3.3.5,2,.5,2,0,0,.1.6.4.2.3-.4.4-1.6.3-1.7s0-.4,0-.4c.6-1.8.2-1.8.1-2,0-.2-.4-.4-.8-.3s-.6.5-.6.5c0,.2,0,.3,0,.6Z"/>
              <path class="cls-2" d="M21.2,29.4s.1-.2.2-.3c0,0,.2,0,.2.1,0,.2,0,.4.1.5.1.1-.1,1.5-.1,1.7,0,.2-.3.3-.4,0,0-.3-.2-.4-.2-.5,0-.1.1-.6.1-.8s0-.6,0-.6h0Z"/>
              <path class="cls-2" d="M20.2,29.2s0-.2-.4-.3c0,0-1,0-1.3.6,0,0-.2,1.9-.1,2.2.1.2.1,0,.3.2.1.2.1.4.2.6.1.2.3.4.3.4,0,0,.1.8.4.9,0,0,.4,0,.5-.2,0-.3,0-.6,0-.6,0,0,0-.2,0-.4,0-.2,0-.4,0-.6s.4-1.4.4-1.4c0-1.1,0-1.3,0-1.4h0Z"/>
              <path class="cls-2" d="M17.6,25.3c-.2,0-1.1.6-1.2.7,0,.1-.1,0-.4.9-.1.5,0,.5-.5,2.5-.4,2,.4,3.1.4,3.1,0,0,.1.2.3-.1s-.3-.9-.1-1.1c.2-.2.6-.1.6,0,0,.2,0,.2.1.4s0,.8,0,1c0,.2,0,1.1.4,1.1.3,0,.3-.8.3-.8,0-.5,0-.9,0-.9,0-.4-.1-.3,0-.7,0-.2.1-.6.1-.6,0,0,0-1.8,0-2.1,0-.3-.5-1.3-.5-1.7,0-.4.3-.8.5-1.2.2-.3.2-.1.3-.4,0-.2-.2-.2-.2-.2h0Z"/>
              <path class="cls-2" d="M29.3,29.6c-.8-.8-.3-1.4-.3-1.4.2-.3.2-.4.9-.6,1.1-.4,1.6.6,1.6.6,2.6,1.6,3.4,1.2,3.4,1.2,0,0,.4,0,1-.3.5-.3.4-.8.4-.8l-.2-1.5s0-.8,0-.9-.2-.7-.2-.7c0,0,0-.5,0-.6,0-.1.4-.7.1-.8-.2-.1-.5-1.2-.7-1.5-.2-.4-.6,0-.6.1,0,.1,0,.3,0,.6,0,.3-.8.1-1,0-.3,0-.5-.6-.6-.9s.1-.6.2-.8c0-.2.1-.6-.3-.8-.3-.1-.6,0-.6.5,0,.4,0,.7-.1.8-.1.2-.5,0-.9,0-.4,0-.7.6-.9.5-.1-.1,0-.3-.1-.8-.1-.5-1.1-1.2-1.3-1.4s0-.4,0-.7c0-.3-.3-.6-.3-.6,0,0-.4-.5-.9-.5-.3,0-1.4.3-1.4.3,0,0-.5.3-.9.2-.4,0-.3-.3-.4-.4-.1-.1-1.2-.8-1.6-.7-.4,0-.9,1.1-1.1,1.5-.2.4-.3,1.9-.3,1.9,0,0-.1.3-.5.4-.4.1-.5-.2-.5-.2-.9-.8-1.4-.1-1.8,0-.4.2-.7.5-.9.7-.6.3-.7.6-.7.6-.8.5-.5-.3-.5-.3,0-.4.5-.7.5-.7,1.1-.6,2.5-1.9,2.6-2.1,0-.2-.4-.5-.6-.7-.2-.2-1.1-.2-1.2-.1-.1.1-.7.1-1.1-.2-.4-.3-1,0-1,0,0,0-.3.4-.5.5-.2.1-.5.2-.9.6-.3.4-.9,1-.7,2,.2,1-.2.5-.2.5-1.5-1-2.5.5-2.6,1.3-.1.9,1,.9,1.4.8.4-.1.6-.2.6,0-.2.9-1.4,1.7-1.6,1.7-1.3.3-1.1,1-1.1,1,0,0,0,.4.2.5.2.2.8.3.8.5,0,.6.1.7.1.7,1.2.9,1,1.8,1,2.1,0,.9-.2,1.1-.3,1.4-.1.3,0,1,0,1.2-.1.2-.3.2-.3.2,0,0-.1,0-.2-.3-.1-.2.1-.5,0-1.6-.1-1.6-.7-1.7-.7-1.7-.8.6-.6,1.4-.5,1.8,0,.4-.3.8-.3,1.2s.2,1.2.2,1.5-.3.7-.6.4c-.3-.2-1.1-1.5-1-2,0-.4,0-1.1,0-1.1-.3-1.2,0-1.5,0-1.5.9-1.9.3-1.9.3-1.9-.3-.7-.6,0-.6,0l-.5,1.4s0,1.2-.1,1.4c0,.2-.2.4-.3.5-.2,0-.7-.8-.7-1.1.1-.7-.2-1.2-.2-1.4s0-.1,0-.7-.3-.5-.4-.3c0,.3-.3.5-.4.4-.2-.2-.2-.3-.2-.7,0-.7-.4-1.8-.3-2.4,0-.7.4-1.1.2-1.7-.2-.4-.6-.7-.5-1.1.2-.7.2-1.9.2-2,0-.2.1-.7.4-.6,0,0,.1.3.2.4.2.2.5.3.7,0,.3-.4,0-1.4-.5-1.7-.3-.2-.6-.8-.4-1.6.1-.5.7-.7.8-1.1s.4-1,1.2-1.8c.8-.8.9-.4,1.1-.3.1,0,.5,0,.4-.4,0-.3,0-1.2.1-1.4,0-.2.7-.2.8-.7.1-.4.6-.9.9-1.1.3-.2,1.7-.6,2-.3.3.4-.1.6-.1.6-2.4.8-2.4,2.1-2.6,2.7s.2.8.6.9.9-.5,1.2-.9c.2-.4.8-.4,1.3-.1.1,0,.2.4-.3,1.2-.1.2,0,.2-.1.6,0,.2.1.6.1.6,0,0,0,.3.2.5.1.2.7.2.9.2.2,0,.4-.3.5-.4,0-.1.5-1.1.5-1.4s.3-1,.5-1.2c.1-.2,0-.8,0-1.1-.1-.3-.9-1-1-1.3-.1-.3-.2-1.2-.2-1.6s.8-2.3,1.3-2.8c.5-.6,1.1-.9,1.1-.9,1.4-.8,1.1,1.1.8,1.5s-1.9,1.2-2.1,1.7c-.2.5.2,1,.3,1.1.2,0,.8.1,1.1,0,.8-.4.6-.5,1.4-1,.6-.3,1-.8,1-1,0-.1-.2-.8-.2-.8l-.6-.6c-.6-.9.9-1.4,1.1-1.4.6.2.8.5,1,.5.5,0,.6-.7,1.1-.8.5-.2,1.8.5,2.1.3.3-.1.5-.5.7-.6s.6.2.8,0c.1,0,.3-.2.8,0,.4.2.7.3.8.2.2,0,.6-.2.6-.2,1-.8,1.7,0,1.9.5.2.4.7.3.7.6,0,.3-.8,0-.9.3-.2.3,0,.4,0,.7s.8.4,1.1.4.5.4.5.4c0,0,.2.7.6.9.2.1.7.3,1,0,.3-.3.3-.8.2-.9,0-.2-.3-.7-.3-.9,0-.2,0-.8.5-.5.2.1.6.3.7.5.2.3.3.3.4.4,0,.1.1.4,0,.5,0,0-.2.1-.2.2-.1.4.3.6.3.8,0,.1,0,.5,0,.5,0,0-.2.4-.2.6,0,.2.2.2.2.3s-.1.2-.2.3c0,.1.2.7.3.8s.8.4,1,.6.4.4.5.6c0,.2,0,.8.1,1,.1.2.4.5.5.6.2,0,.7,0,.7,0,0,0,.3,0,.5,0,.2,0,.7.7.8.8,0,.2,0,.4,0,.6,0,.1.4.6.6.7.2.1.7.2,1,.2.3,0,.6-.2.7-.3,0,0,.2-.2.2-.5,0-.3.2-.4,0-.6s-.3-.6-.3-.8c0-.2-.3-.4-.4-.6,0-.2-.2-.5-.3-.6-.2-.2-.3-.2-.5-.3-.2-.1-.3-.7-.5-1-.2-.3-.3-.4-.3-.4l-.6-.4s-.4-.3-.5-.3c-.2,0-.6-.4-.6-.4,0,0-.3-.4-.5-.4s-.2,0-.6-.2c-.3-.1-.2-.2-.2-.3,0-.1,0-.4,0-.4,0,0,0,0,0-.3,0-.4.8-.3,1-.2.2,0,.7.4.9.4s.8.2.9.5c.1.4,1.1,1.4,1.7,1.7.6.3,1.2,1.6,1.3,1.8,0,.1.4.2.4.2.7.2.9,1.5,1,1.6.2.1.6,0,.8.2.2.1.2.4.3.8.2.5.5,1,.5,1.2,0,.2-.2,1.4-.2,1.6,0,.2.2,2.6.2,2.6,0,0-.2.4-.2.6s.7.5.7.5c0,0,.2,0,0,.5-.2.8.4,1.1,0,2.3-.1.4-.5.6-.5.8,0,.1,0,.2,0,.3,0,0-.2,0-.2.2s.1.5,0,.8c0,.3,0,.7-.2.9,0,.1-.2,1.2-.2,1.3,0,.2-.2.3-.3.5-.2.2-.3.1-.3,0s.2-.8.2-1,0-.2-.2-.4c0-.1-.1-.5-.1-.5-.2-.5-.5,0-.5.2,0,0,0,.4,0,.8,0,.4,0,1.4,0,1.8s-.2.7-.4.8c-.2,0-.5-.3-.7-.2-.2,0-.4.3-.4.7,0,.4,0,.9,0,1.4-.1.5-.6.3-.7,0,0-.3,0-.6-.1-1,0-.3,0-.6-.2-.7-.1,0-.4,0-.6-.1-.2-.1,0-1.1-.2-1.3-.2-.3-.3-.3-.5-.3-.2,0-.3.5-.5.9-.2.5.2,1.6.2,1.6v.5s0,.1,0,.3c0,.2-.3.6-.3.7,0,.2-.1.4-.1.4-.2.5-.6.2-.6,0,0-.1,0-.3,0-.8s-.6-.2-.7-.7c0-.2.2-.5.2-.8,0-.3-.2-.6-.2-.6-.3-.4,0-.4,0-.6-.1-.2-.2-.2-.6-.3-.3,0-.1.4-.1.4,0,0,.1.2.1.4,0,.2-.4,1.5-.5,1.8,0,.3.2,1.5,0,2.3-.1.4-.7.3-.8,0-.1-.2-.2-.8-.2-.8,0,0,0-.7,0-1s0-.6,0-.8c0-.2,0-.5,0-.7s0-.8,0-1c0-.2-.2-.5-.3-.7-.2-.2-1.2-.7-1.5-.7s-.6.2-.8.3c-.2.2-.4,1.1-.4,1.3,0,.5.2,1.1.2,1.1,0,0,0,0,0,.5-.2.5-.6.5-.7.9-.1.3,0,.4-.2.5-.2.2-.5,0-.5,0l-.2-.3c-.4-1.2.1-2,.1-2.1,0-.1,0-.5,0-.5-.9-1-.7-1.9-.7-2.1s-.1-.1-.4,0c-.2,0-.3,0-.3,0h0ZM40.2,23.7s-.5,1.3-.3,2.1c.2.6.4.5.4.6,0,.1,0,.5.2.6,0,.1.3.3.5,0,0,0,.2-.3.2-.9,0-.4-.3-.4-.3-.4,0,0-.5,0-.3-1.5,0,0,.2-1.2-.4-.5h0ZM41.7,22.7s0,.4.2.5c0,0,.4.3.7.1.2-.1.2-.4.2-.5s0-.3-.2-.5c-.2-.2-.4-.3-.5-.2-.1,0-.5.3-.4.6h0ZM35.6,18.5s-.2,0,0,.3c0,.2.3.6.3.6,0,0,0,.3.2.2.2,0,.2-.3.2-.3v-.8c-.1,0-.5-.4-.7,0h0ZM32.1,16.6v.2s.3.5.5.5c.2,0,.6,0,.8-.4.2-.3.5-1.7.5-1.7,0,0-.1-.4-.3-.5-.2,0-.6-.3-1,0s-.5,1.8-.5,1.8h0ZM29,16.1s0,.4.2.5c.2.1.2.5.3.6,0,0,0,.2.2.2.1,0,.6-.1.3-1-.2-.8-.7-.6-.7-.6,0,0-.2,0-.3.3h0ZM10.2,18.9l-.2.4s-.1.6.3.6.5-.2.6-.3c0-.1.1-.5,0-.6-.4-.3-.7,0-.7,0h0ZM8.8,21.9h-.4c0,0-.6,0-.7.5,0,.5-.3,1.4-.2,1.6,0,.2.4.9.6,1s.6.3.9,0c.2-.2.3-1.3.2-1.8,0-.5,0-1.1-.4-1.4ZM18.6,14.8s-.9-.3-1.1,0c-.2.2-.3.4-.3.5,0,0,0,.6.4.9,0,0,.6.3,1.2.1,0,0,.3,0,.2-.9,0-.9-.3-.6-.3-.6h0ZM19.5,14.3s.2.2.3.2.2,0,.2,0c0,0,.2-.1.1-.3,0-.2-.2-.3-.2-.3,0,0-.5-.3-.4.4h0ZM23.2,10.4c-.2-.5-.8-.6-1.2-.3-.2.3-.4.4-.3.7.2.4.3.9.6,1.3.2.2.5.6.8.4.1,0,.4-.1.5-.3.2-.5,0-.5-.1-1.2,0-.3,0-.3-.3-.6ZM26.1,8.7c-.2,0-.5,0-.6.2,0,0,0,0,0,.1-.1.3-.1.6,0,.8,0,.1.2.1.3,0,0,0,.1,0,.1-.1,0,0,.2-.1.3-.2,0,0,0,0,0,0,.1-.1.2-.3.2-.4,0,0,0,0,0,0,0,0,0,0,0-.1,0,0,0-.1,0-.2,0,0,0,0-.1,0,0,0,0,0,0,0"/>
              <path d="M18.4,8.5c.3-.3.3-.4.5-.4.2,0,.3.3-.2.7-.5.4-1,.9-1.4,1.1-.4.2-1,.1-.7-.3.4-.6.8-.3,1.8-1.1h0Z"/>
              <path class="cls-2" d="M13.4,31.8s-.3.9-.3,1.1c0,.2,0,1.5.3,1.8.3.3.4.3.4.5s.2.3.4.2c.2,0,.3-.7.3-1,0-.3-.4-.5-.4-1,0-.6.3-1.2.3-1.2,0,0,0-.7-.2-.9-.3-.2-.6.2-.7.4,0,0,0,0,0,0h0Z"/>
              <path d="M12.4,27.3s-.4,0-.4.1.2.5.3.5c.3.2.4.1.6,0,.2-.2-.1-.5-.1-.5h-.4c0-.1,0-.1,0-.1Z"/>
              <path d="M8.4,22.4s-.1,0-.2.2c0,.2-.1,1.4-.1,1.4,0,0,0,.5,0,.6.1,0,.3,0,.3-.2,0-.2,0-.9,0-1s.2-.7.2-.8c0,0-.2-.2-.2-.2h0Z"/>
              <path d="M13.1,22.8s.4,0,.3.1c0,.2-.5.7-.8.6-.2,0-.5,0-.4-.3.2-.4.8-.5.8-.5Z"/>
              <path d="M13.9,15.8c0,.4-.1.5.2.6.3,0,.3-.2.4-.5.1-.3.1-.9.2-1s.8-1.4.3-1.9c-.4-.5-1.3-1-2.2-.5-1,.5-1.1,1.1-1.2,1.3,0,.2,0,.3.1.1.1-.2.4-.5.5-.6.1-.1.7-.3.7-.3,0,0,2.2,0,1.5,1.8,0,0-.6.6-.6,1.1h0Z"/>
            </g>
          </g>
        </g>
      </g>
    </g>
  </g>
</svg>