<svg width="1420" height="827" viewBox="0 0 1420 827" fill="none" xmlns="http://www.w3.org/2000/svg">
<rect width="1420" height="824" transform="translate(0 2.5)" fill="white"/>
<path d="M191.5 2.5V5H1228.5V2.5V0H191.5V2.5ZM1228.5 148.5V146H191.5V148.5V151H1228.5V148.5Z" fill="#008944"/>
<path d="M197.125 50.5938H214.422C218.312 50.5938 221.559 51.25 224.16 52.5625C226.762 53.875 228.684 55.7148 229.926 58.082C231.168 60.4492 231.789 63.1797 231.789 66.2734C231.789 69.3203 231.168 72.0039 229.926 74.3242C228.684 76.6445 226.762 78.4609 224.16 79.7734C221.559 81.0859 218.336 81.7422 214.492 81.7422H200.57V75.9766H214.211C216.883 75.9766 219.051 75.5898 220.715 74.8164C222.379 74.043 223.598 72.9414 224.371 71.5117C225.145 70.082 225.531 68.3359 225.531 66.2734C225.531 64.1641 225.145 62.3594 224.371 60.8594C223.598 59.3594 222.367 58.2109 220.68 57.4141C218.992 56.6172 216.812 56.2188 214.141 56.2188H203.453V101.5H197.125V50.5938ZM233.758 101.5H226.375L214.07 78.6484H221.242L233.758 101.5ZM254.57 102.203C251.336 102.203 248.488 101.594 246.027 100.375C243.566 99.1562 241.668 97.4688 240.332 95.3125C238.996 93.1562 238.328 90.7188 238.328 88C238.328 85.9375 238.762 84.0977 239.629 82.4805C240.496 80.8633 241.68 79.3633 243.18 77.9805C244.68 76.5977 246.602 75.1094 248.945 73.5156L256.469 67.9609C258.062 66.8828 259.246 65.8164 260.02 64.7617C260.793 63.707 261.18 62.3828 261.18 60.7891C261.18 59.8984 260.922 59.0312 260.406 58.1875C259.891 57.3438 259.164 56.6523 258.227 56.1133C257.289 55.5742 256.234 55.3047 255.062 55.3047C253.844 55.3047 252.73 55.6094 251.723 56.2188C250.715 56.8281 249.93 57.6367 249.367 58.6445C248.805 59.6523 248.523 60.6953 248.523 61.7734C248.523 62.7578 248.781 63.7891 249.297 64.8672C249.812 65.9453 250.445 66.9883 251.195 67.9961C251.945 69.0039 252.953 70.2812 254.219 71.8281C254.547 72.2031 254.875 72.6016 255.203 73.0234L278.617 101.5H271.375L252.039 78.2969C251.383 77.5 250.727 76.7031 250.07 75.9062C248.242 73.75 246.836 71.9922 245.852 70.6328C244.867 69.2734 244.059 67.8555 243.426 66.3789C242.793 64.9023 242.477 63.3438 242.477 61.7031C242.477 59.4062 242.992 57.3789 244.023 55.6211C245.055 53.8633 246.496 52.5039 248.348 51.543C250.199 50.582 252.367 50.1016 254.852 50.1016C257.336 50.1016 259.516 50.582 261.391 51.543C263.266 52.5039 264.707 53.793 265.715 55.4102C266.723 57.0273 267.227 58.8203 267.227 60.7891C267.227 63.0859 266.664 65.125 265.539 66.9062C264.414 68.6875 262.727 70.4219 260.477 72.1094L250.352 79.7031C248.945 80.6875 247.809 81.7188 246.941 82.7969C246.074 83.875 245.453 84.8594 245.078 85.75C244.703 86.6406 244.516 87.3906 244.516 88C244.516 89.5469 244.938 91 245.781 92.3594C246.625 93.7188 247.797 94.8086 249.297 95.6289C250.797 96.4492 252.508 96.8594 254.43 96.8594C257.008 96.8594 259.48 96.1211 261.848 94.6445C264.215 93.168 266.137 91.082 267.613 88.3867C269.09 85.6914 269.828 82.6094 269.828 79.1406H275.664C275.664 82.1875 275.312 84.7891 274.609 86.9453C273.906 89.1016 273.121 90.7773 272.254 91.9727C271.387 93.168 270.414 94.2812 269.336 95.3125C269.148 95.5938 268.961 95.8281 268.773 96.0156C268.727 96.1562 268.645 96.2852 268.527 96.4023C268.41 96.5195 268.305 96.6484 268.211 96.7891C266.617 98.5234 264.59 99.8594 262.129 100.797C259.668 101.734 257.148 102.203 254.57 102.203ZM288.32 101.5V95.875H300.203C304.328 95.875 307.762 95.0781 310.504 93.4844C313.246 91.8906 315.297 89.6172 316.656 86.6641C318.016 83.7109 318.695 80.1484 318.695 75.9766C318.695 71.8516 318.027 68.3125 316.691 65.3594C315.355 62.4062 313.363 60.1445 310.715 58.5742C308.066 57.0039 304.773 56.2188 300.836 56.2188H288.039V50.5938H301.258C306.18 50.5938 310.41 51.6016 313.949 53.6172C317.488 55.6328 320.195 58.5508 322.07 62.3711C323.945 66.1914 324.883 70.7266 324.883 75.9766C324.883 81.2734 323.934 85.832 322.035 89.6523C320.137 93.4727 317.371 96.4023 313.738 98.4414C310.105 100.48 305.734 101.5 300.625 101.5H288.32ZM291.133 101.5H284.805V50.5938H291.133V101.5ZM362.219 86.8047H356.805V75.9062H362.219V86.8047ZM388.023 78.5078H331.07V73.9375H388.023V78.5078ZM359.547 85.1172C364.047 85.1172 367.902 85.5391 371.113 86.3828C374.324 87.2266 376.785 88.4805 378.496 90.1445C380.207 91.8086 381.062 93.8125 381.062 96.1562C381.062 98.4531 380.207 100.41 378.496 102.027C376.785 103.645 374.324 104.887 371.113 105.754C367.902 106.621 364.047 107.055 359.547 107.055C355.047 107.055 351.18 106.621 347.945 105.754C344.711 104.887 342.238 103.645 340.527 102.027C338.816 100.41 337.961 98.4531 337.961 96.1562C337.961 93.8125 338.816 91.8086 340.527 90.1445C342.238 88.4805 344.711 87.2266 347.945 86.3828C351.18 85.5391 355.047 85.1172 359.547 85.1172ZM359.547 89.4062C356.219 89.4062 353.359 89.6758 350.969 90.2148C348.578 90.7539 346.75 91.5273 345.484 92.5352C344.219 93.543 343.586 94.75 343.586 96.1562C343.586 97.5156 344.219 98.6875 345.484 99.6719C346.75 100.656 348.578 101.418 350.969 101.957C353.359 102.496 356.219 102.766 359.547 102.766C362.828 102.766 365.676 102.496 368.09 101.957C370.504 101.418 372.344 100.656 373.609 99.6719C374.875 98.6875 375.508 97.5156 375.508 96.1562C375.508 94.75 374.875 93.543 373.609 92.5352C372.344 91.5273 370.516 90.7539 368.125 90.2148C365.734 89.6758 362.875 89.4062 359.547 89.4062ZM360.883 51.7188C360.883 54.9531 359.758 57.8711 357.508 60.4727C355.258 63.0742 352.258 65.1953 348.508 66.8359C344.758 68.4766 340.68 69.5781 336.273 70.1406L334.305 65.7812C338.055 65.3594 341.594 64.4922 344.922 63.1797C348.25 61.8672 350.922 60.2031 352.938 58.1875C354.953 56.1719 355.961 54.0156 355.961 51.7188V49.8203H360.883V51.7188ZM363.133 51.7188C363.133 54.0156 364.141 56.1719 366.156 58.1875C368.172 60.2031 370.844 61.8672 374.172 63.1797C377.5 64.4922 381.062 65.3594 384.859 65.7812L382.82 70.1406C378.461 69.5781 374.406 68.4766 370.656 66.8359C366.906 65.1953 363.895 63.0742 361.621 60.4727C359.348 57.8711 358.211 54.9531 358.211 51.7188V49.8203H363.133V51.7188ZM382.961 52.1406H336.273V47.6406H382.961V52.1406ZM444.906 80.2656H439.422V44.7578H444.906V80.2656ZM444.906 106.352H404.266V83.8516H444.906V106.352ZM409.68 101.852H439.492V88.3516H409.68V101.852ZM414.461 53.3359C414.461 57.1328 413.711 60.7188 412.211 64.0938C410.711 67.4688 408.613 70.4102 405.918 72.918C403.223 75.4258 400.117 77.3359 396.602 78.6484L393.789 74.2891C396.93 73.1641 399.719 71.5469 402.156 69.4375C404.594 67.3281 406.48 64.8672 407.816 62.0547C409.152 59.2422 409.82 56.3359 409.82 53.3359V47.2188H414.461V53.3359ZM415.445 53.3359C415.445 56.1953 416.125 58.9492 417.484 61.5977C418.844 64.2461 420.73 66.5781 423.145 68.5938C425.559 70.6094 428.289 72.1562 431.336 73.2344L428.523 77.4531C425.102 76.2344 422.043 74.4414 419.348 72.0742C416.652 69.707 414.555 66.918 413.055 63.707C411.555 60.4961 410.805 57.0391 410.805 53.3359V47.2188H415.445V53.3359ZM521.477 51.9297H480.836V47.4297H521.477V51.9297ZM530.828 72.5312H473.594V68.1016H530.828V72.5312ZM523.305 51.4375C523.305 54.625 523.211 57.5664 523.023 60.2617C522.836 62.957 522.367 66.0156 521.617 69.4375L516.203 68.8047C516.906 65.4297 517.352 62.4531 517.539 59.875C517.727 57.2969 517.82 54.4844 517.82 51.4375V47.4297H523.305V51.4375ZM523.516 94.6094H486.039V103.469H480.484V90.25H518.031V83.2891H480.414V78.8594H523.516V94.6094ZM525.133 106.492H480.484V101.992H525.133V106.492ZM593.055 99.4609H535.82V94.8203H593.055V99.4609ZM566.969 96.8594H561.555V81.3906H566.969V96.8594ZM585.812 68.2422H548.477V80.8984H542.992V63.7422H580.398V53.8984H542.852V49.3281H585.812V68.2422ZM587.289 83.0078H542.992V78.4375H587.289V83.0078ZM646.141 63.25H627.93V58.6094H646.141V63.25ZM649.797 77.3125H644.312V44.6875H649.797V77.3125ZM649.797 95.1016H614.922V104.664H609.438V90.8828H644.312V84.7656H609.297V80.3359H649.797V95.1016ZM652.188 106.352H609.438V101.922H652.188V106.352ZM606.695 56.5703H624.133V47.6406H629.547V74.7812H601.211V47.6406H606.695V56.5703ZM624.133 70.2812V61H606.695V70.2812H624.133ZM713.781 55.7266H678.414V51.1562H713.781V55.7266ZM696.273 59.1719C699.039 59.1719 701.5 59.6641 703.656 60.6484C705.812 61.6328 707.5 63.0039 708.719 64.7617C709.938 66.5195 710.547 68.5469 710.547 70.8438C710.547 73.0938 709.938 75.1094 708.719 76.8906C707.5 78.6719 705.812 80.0547 703.656 81.0391C701.5 82.0234 699.039 82.5391 696.273 82.5859C693.555 82.5391 691.117 82.0234 688.961 81.0391C686.805 80.0547 685.129 78.6719 683.934 76.8906C682.738 75.1094 682.141 73.0938 682.141 70.8438C682.141 68.5469 682.738 66.5195 683.934 64.7617C685.129 63.0039 686.805 61.6328 688.961 60.6484C691.117 59.6641 693.555 59.1719 696.273 59.1719ZM696.273 63.4609C694.539 63.4609 692.98 63.7773 691.598 64.4102C690.215 65.043 689.148 65.9102 688.398 67.0117C687.648 68.1133 687.273 69.3906 687.273 70.8438C687.273 72.25 687.648 73.5156 688.398 74.6406C689.148 75.7656 690.215 76.6328 691.598 77.2422C692.98 77.8516 694.539 78.1562 696.273 78.1562C698.055 78.1562 699.637 77.8516 701.02 77.2422C702.402 76.6328 703.48 75.7656 704.254 74.6406C705.027 73.5156 705.414 72.25 705.414 70.8438C705.414 69.3906 705.027 68.1133 704.254 67.0117C703.48 65.9102 702.402 65.043 701.02 64.4102C699.637 63.7773 698.055 63.4609 696.273 63.4609ZM699.086 54.1094H693.602V44.1953H699.086V54.1094ZM730.164 84.3438H724.609V44.6875H730.164V84.3438ZM726.648 64.5859H713.781V60.1562H726.648V64.5859ZM726.648 76.4688H713.711V71.8281H726.648V76.4688ZM730.164 107.195H724.609V92.5H688.117V88H730.164V107.195ZM792.18 90.6016H786.695V44.7578H792.18V90.6016ZM794.148 105.859H751.82V101.219H794.148V105.859ZM757.305 103.469H751.82V86.3828H757.305V103.469ZM761.734 54.5312C761.734 58.5625 760.996 62.3711 759.52 65.957C758.043 69.543 755.98 72.6836 753.332 75.3789C750.684 78.0742 747.648 80.125 744.227 81.5312L741.203 77.2422C744.344 76.0234 747.121 74.2539 749.535 71.9336C751.949 69.6133 753.812 66.9414 755.125 63.918C756.438 60.8945 757.094 57.7656 757.094 54.5312V48.2734H761.734V54.5312ZM762.719 54.5312C762.719 57.625 763.375 60.6016 764.688 63.4609C766 66.3203 767.863 68.8398 770.277 71.0195C772.691 73.1992 775.422 74.8516 778.469 75.9766L775.586 80.4062C772.117 79.0469 769.07 77.1016 766.445 74.5703C763.82 72.0391 761.77 69.0508 760.293 65.6055C758.816 62.1602 758.078 58.4688 758.078 54.5312V48.2734H762.719V54.5312ZM872.477 90.6016H866.992V44.7578H872.477V90.6016ZM874.445 105.859H832.117V101.219H874.445V105.859ZM837.602 103.469H832.117V86.3828H837.602V103.469ZM842.031 54.5312C842.031 58.5625 841.293 62.3711 839.816 65.957C838.34 69.543 836.277 72.6836 833.629 75.3789C830.98 78.0742 827.945 80.125 824.523 81.5312L821.5 77.2422C824.641 76.0234 827.418 74.2539 829.832 71.9336C832.246 69.6133 834.109 66.9414 835.422 63.918C836.734 60.8945 837.391 57.7656 837.391 54.5312V48.2734H842.031V54.5312ZM843.016 54.5312C843.016 57.625 843.672 60.6016 844.984 63.4609C846.297 66.3203 848.16 68.8398 850.574 71.0195C852.988 73.1992 855.719 74.8516 858.766 75.9766L855.883 80.4062C852.414 79.0469 849.367 77.1016 846.742 74.5703C844.117 72.0391 842.066 69.0508 840.59 65.6055C839.113 62.1602 838.375 58.4688 838.375 54.5312V48.2734H843.016V54.5312ZM941.242 58.8906H930.344V54.3906H941.242V58.8906ZM941.242 72.3906H930.344V67.6797H941.242V72.3906ZM931.961 81.8828H926.477V44.6875H931.961V81.8828ZM931.961 107.195H926.477V89.3359H891.039V84.7656H931.961V107.195ZM900.672 48.4844C903.812 48.4375 906.625 49.0352 909.109 50.2773C911.594 51.5195 913.551 53.2656 914.98 55.5156C916.41 57.7656 917.125 60.3203 917.125 63.1797C917.125 66.0391 916.41 68.5938 914.98 70.8438C913.551 73.0938 911.594 74.8516 909.109 76.1172C906.625 77.3828 903.812 78.0156 900.672 78.0156C897.531 78.0156 894.719 77.3828 892.234 76.1172C889.75 74.8516 887.805 73.0938 886.398 70.8438C884.992 68.5938 884.289 66.0391 884.289 63.1797C884.289 60.3203 884.992 57.7773 886.398 55.5508C887.805 53.3242 889.75 51.5781 892.234 50.3125C894.719 49.0469 897.531 48.4375 900.672 48.4844ZM900.672 53.1953C898.609 53.1953 896.734 53.6172 895.047 54.4609C893.359 55.3047 892.047 56.4766 891.109 57.9766C890.172 59.4766 889.703 61.2109 889.703 63.1797C889.703 65.1484 890.172 66.8945 891.109 68.418C892.047 69.9414 893.359 71.125 895.047 71.9688C896.734 72.8125 898.609 73.2344 900.672 73.2344C902.781 73.2344 904.68 72.8125 906.367 71.9688C908.055 71.125 909.367 69.9414 910.305 68.418C911.242 66.8945 911.711 65.1484 911.711 63.1797C911.711 61.2109 911.242 59.4766 910.305 57.9766C909.367 56.4766 908.055 55.3047 906.367 54.4609C904.68 53.6172 902.781 53.1953 900.672 53.1953ZM1016.76 107.195H1011.34V44.6875H1016.76V107.195ZM1013.38 74.5H1001.08V69.9297H1013.38V74.5ZM990.32 52.8438C990.32 58.4688 989.57 63.7539 988.07 68.6992C986.57 73.6445 984.074 78.2617 980.582 82.5508C977.09 86.8398 972.461 90.5781 966.695 93.7656L963.461 89.8984C968.617 87.0391 972.789 83.7344 975.977 79.9844C979.164 76.2344 981.473 72.1797 982.902 67.8203C984.332 63.4609 985.047 58.7734 985.047 53.7578V52.8438H990.32ZM986.875 57.4141H965.852V52.8438H986.875V57.4141ZM1002.7 104.102H997.422V46.375H1002.7V104.102ZM1033.7 56.3594H1051.91V47.3594H1057.4V74.5703H1028.29V47.3594H1033.7V56.3594ZM1051.91 70.0703V60.6484H1033.7V70.0703H1051.91ZM1074.48 77.0312H1069V44.6875H1074.48V77.0312ZM1083.91 62.8984H1072.02V58.2578H1083.91V62.8984ZM1074.48 95.1016H1040.17V104.523H1034.76V90.8828H1069V84.4141H1034.62V79.9844H1074.48V95.1016ZM1076.8 106.492H1034.76V101.992H1076.8V106.492ZM1129.61 92.5H1124.05V82.1641H1129.61V92.5ZM1157.17 107.195H1151.69V44.6875H1157.17V107.195ZM1110.06 90.5312C1117.23 90.4844 1123.9 90.3203 1130.07 90.0391C1136.23 89.7578 1142.05 89.2656 1147.54 88.5625L1147.96 92.7812C1141.77 93.7656 1135.33 94.4219 1128.62 94.75C1121.92 95.0781 1114.75 95.2422 1107.11 95.2422L1106.27 90.5312H1110.06ZM1145.92 56.9219H1107.6V52.4219H1145.92V56.9219ZM1126.73 60.5078C1129.73 60.5078 1132.36 60.9883 1134.64 61.9492C1136.91 62.9102 1138.68 64.2578 1139.95 65.9922C1141.21 67.7266 1141.84 69.7656 1141.84 72.1094C1141.84 74.4062 1141.21 76.4102 1139.95 78.1211C1138.68 79.832 1136.91 81.168 1134.64 82.1289C1132.36 83.0898 1129.73 83.5703 1126.73 83.5703C1123.77 83.5703 1121.16 83.1016 1118.89 82.1641C1116.61 81.2266 1114.86 79.8906 1113.61 78.1562C1112.37 76.4219 1111.75 74.4062 1111.75 72.1094C1111.75 69.7656 1112.37 67.7266 1113.61 65.9922C1114.86 64.2578 1116.61 62.9102 1118.89 61.9492C1121.16 60.9883 1123.77 60.5078 1126.73 60.5078ZM1126.73 64.7969C1124.85 64.7969 1123.16 65.1016 1121.66 65.7109C1120.16 66.3203 1118.99 67.1758 1118.15 68.2773C1117.3 69.3789 1116.88 70.6562 1116.88 72.1094C1116.88 73.5156 1117.3 74.7578 1118.15 75.8359C1118.99 76.9141 1120.16 77.7461 1121.66 78.332C1123.16 78.918 1124.85 79.2109 1126.73 79.2109C1128.65 79.2109 1130.36 78.9297 1131.86 78.3672C1133.36 77.8047 1134.52 76.9727 1135.34 75.8711C1136.16 74.7695 1136.57 73.5156 1136.57 72.1094C1136.57 70.6562 1136.16 69.3789 1135.34 68.2773C1134.52 67.1758 1133.36 66.3203 1131.86 65.7109C1130.36 65.1016 1128.65 64.7969 1126.73 64.7969ZM1129.61 54.8125H1124.05V44.7578H1129.61V54.8125ZM1188.18 61.4922C1188.18 65.9922 1187.42 70.3984 1185.89 74.7109C1184.37 79.0234 1182.29 82.8438 1179.64 86.1719C1176.99 89.5 1174.02 92.0547 1170.74 93.8359L1167.23 89.4062C1170.27 87.9062 1173.04 85.6797 1175.52 82.7266C1178.01 79.7734 1179.99 76.4219 1181.46 72.6719C1182.94 68.9219 1183.68 65.1953 1183.68 61.4922V50.1016H1188.18V61.4922ZM1189.09 61.4922C1189.09 65.0547 1189.82 68.6289 1191.27 72.2148C1192.73 75.8008 1194.7 79 1197.18 81.8125C1199.66 84.625 1202.36 86.7578 1205.27 88.2109L1201.89 92.6406C1198.66 90.9062 1195.73 88.4336 1193.1 85.2227C1190.48 82.0117 1188.41 78.332 1186.91 74.1836C1185.41 70.0352 1184.66 65.8047 1184.66 61.4922V50.1016H1189.09V61.4922ZM1216.52 107.195H1211.03V44.6875H1216.52V107.195ZM1226.99 74.8516H1215.25V70.0703H1226.99V74.8516Z" fill="#008944"/>
<g clip-path="url(#clip0_2399_4972)">
<rect width="1420" height="678" transform="translate(0 148.5)" fill="white"/>
<g filter="url(#filter0_dii_2399_4972)">
<path d="M1091.5 262.5C1222.67 262.5 1329 368.832 1329 500C1329 631.168 1222.67 737.5 1091.5 737.5C1013.63 737.5 944.519 700.027 901.206 642.131C858.771 706.796 785.623 749.5 702.5 749.5C620.481 749.5 548.172 707.923 505.5 644.696C462.828 707.923 390.519 749.5 308.5 749.5C177.332 749.5 71 643.168 71 512C71 380.832 177.332 274.5 308.5 274.5C390.519 274.5 462.827 316.076 505.5 379.303C548.173 316.076 620.481 274.5 702.5 274.5C780.366 274.5 849.48 311.973 892.793 369.868C935.228 305.203 1008.38 262.5 1091.5 262.5Z" fill="white"/>
</g>
<g filter="url(#filter1_d_2399_4972)">
<circle cx="303" cy="506.5" r="140" fill="#F1F1F1"/>
</g>
<mask id="mask0_2399_4972" style="mask-type:alpha" maskUnits="userSpaceOnUse" x="276" y="450" width="56" height="57">
<rect x="276" y="450.5" width="56" height="56" fill="#D9D9D9"/>
</mask>
<g mask="url(#mask0_2399_4972)">
<path d="M294.901 499.996C292.062 498.771 289.593 497.108 287.493 495.008C285.393 492.908 283.73 490.439 282.505 487.6C281.28 484.761 280.668 481.728 280.668 478.5C280.668 474.067 281.825 469.974 284.139 466.221C286.453 462.468 289.593 459.6 293.56 457.617C293.599 458.356 293.676 459.104 293.793 459.863C293.91 460.621 294.104 461.506 294.376 462.517C291.576 464.228 289.369 466.493 287.755 469.312C286.142 472.132 285.335 475.194 285.335 478.5C285.335 483.711 287.143 488.125 290.76 491.742C294.376 495.358 298.79 497.167 304.001 497.167C309.212 497.167 313.626 495.358 317.243 491.742C320.86 488.125 322.668 483.711 322.668 478.5C322.668 475.194 321.861 472.122 320.247 469.283C318.633 466.444 316.407 464.169 313.568 462.458C313.84 461.447 314.035 460.562 314.151 459.804C314.268 459.046 314.365 458.317 314.443 457.617C318.41 459.6 321.55 462.458 323.864 466.192C326.178 469.925 327.335 474.028 327.335 478.5C327.335 481.728 326.722 484.761 325.497 487.6C324.272 490.439 322.61 492.908 320.51 495.008C318.41 497.108 315.94 498.771 313.101 499.996C310.262 501.221 307.229 501.833 304.001 501.833C300.774 501.833 297.74 501.221 294.901 499.996ZM294.085 488.417C291.362 485.694 290.001 482.389 290.001 478.5C290.001 476.244 290.497 474.125 291.489 472.142C292.48 470.158 293.89 468.506 295.718 467.183C295.912 467.767 296.126 468.437 296.36 469.196C296.593 469.954 296.904 470.897 297.293 472.025C296.437 472.919 295.786 473.911 295.339 475C294.892 476.089 294.668 477.256 294.668 478.5C294.668 481.067 295.582 483.264 297.41 485.092C299.237 486.919 301.435 487.833 304.001 487.833C306.568 487.833 308.765 486.919 310.593 485.092C312.421 483.264 313.335 481.067 313.335 478.5C313.335 477.256 313.111 476.089 312.664 475C312.217 473.911 311.565 472.919 310.71 472.025C311.021 471.092 311.303 470.226 311.555 469.429C311.808 468.632 312.032 467.883 312.226 467.183C314.054 468.506 315.474 470.158 316.485 472.142C317.496 474.125 318.001 476.244 318.001 478.5C318.001 482.389 316.64 485.694 313.918 488.417C311.196 491.139 307.89 492.5 304.001 492.5C300.112 492.5 296.807 491.139 294.085 488.417ZM301.668 470.333C300.229 465.978 299.286 462.915 298.839 461.146C298.392 459.376 298.168 457.772 298.168 456.333C298.168 454.7 298.732 453.319 299.86 452.192C300.987 451.064 302.368 450.5 304.001 450.5C305.635 450.5 307.015 451.064 308.143 452.192C309.271 453.319 309.835 454.7 309.835 456.333C309.835 457.772 309.611 459.376 309.164 461.146C308.717 462.915 307.774 465.978 306.335 470.333H301.668ZM300.705 481.796C299.792 480.882 299.335 479.783 299.335 478.5C299.335 477.217 299.792 476.118 300.705 475.204C301.619 474.29 302.718 473.833 304.001 473.833C305.285 473.833 306.383 474.29 307.297 475.204C308.211 476.118 308.668 477.217 308.668 478.5C308.668 479.783 308.211 480.882 307.297 481.796C306.383 482.71 305.285 483.167 304.001 483.167C302.718 483.167 301.619 482.71 300.705 481.796Z" fill="#333333"/>
</g>
<g filter="url(#filter2_d_2399_4972)">
<circle cx="700" cy="506.5" r="140" fill="#F1F1F1"/>
</g>
<mask id="mask1_2399_4972" style="mask-type:alpha" maskUnits="userSpaceOnUse" x="682" y="450" width="56" height="57">
<rect x="682" y="450.5" width="56" height="56" fill="#D9D9D9"/>
</mask>
<g mask="url(#mask1_2399_4972)">
<path d="M705.335 497.167H714.668V487.833H705.335V497.167ZM691.335 483.167H700.668V473.833H691.335V483.167ZM705.335 483.167H714.668V473.833H705.335V483.167ZM719.335 483.167H728.668V473.833H719.335V483.167ZM719.335 469.167H728.668V459.833H719.335V469.167ZM700.668 501.833V487.833H686.668V469.167H714.668V455.167H733.335V487.833H719.335V501.833H700.668Z" fill="#1C1B1F"/>
</g>
<path d="M617.914 555.715H615.809V531.406H617.914V555.715ZM616.602 543H611.816V541.223H616.602V543ZM607.633 534.578C607.633 536.766 607.341 538.821 606.758 540.744C606.174 542.667 605.204 544.463 603.846 546.131C602.488 547.799 600.688 549.253 598.445 550.492L597.188 548.988C599.193 547.876 600.815 546.591 602.055 545.133C603.294 543.674 604.192 542.098 604.748 540.402C605.304 538.707 605.582 536.884 605.582 534.934V534.578H607.633ZM606.293 536.355H598.117V534.578H606.293V536.355ZM612.445 554.512H610.395V532.062H612.445V554.512ZM632.57 546.691C634.229 546.691 635.66 546.865 636.863 547.211C638.066 547.557 638.987 548.068 639.625 548.742C640.263 549.417 640.582 550.228 640.582 551.176C640.582 552.124 640.263 552.935 639.625 553.609C638.987 554.284 638.071 554.799 636.877 555.154C635.683 555.51 634.247 555.697 632.57 555.715C630.911 555.697 629.476 555.51 628.264 555.154C627.051 554.799 626.122 554.284 625.475 553.609C624.827 552.935 624.504 552.124 624.504 551.176C624.504 550.228 624.827 549.417 625.475 548.742C626.122 548.068 627.051 547.557 628.264 547.211C629.476 546.865 630.911 546.691 632.57 546.691ZM632.57 548.387C631.349 548.387 630.296 548.501 629.412 548.729C628.528 548.956 627.849 549.275 627.375 549.686C626.901 550.096 626.664 550.592 626.664 551.176C626.664 551.741 626.901 552.233 627.375 552.652C627.849 553.072 628.533 553.395 629.426 553.623C630.319 553.851 631.367 553.965 632.57 553.965C633.792 553.965 634.849 553.851 635.742 553.623C636.635 553.395 637.319 553.072 637.793 552.652C638.267 552.233 638.504 551.741 638.504 551.176C638.504 550.592 638.267 550.096 637.793 549.686C637.319 549.275 636.64 548.956 635.756 548.729C634.872 548.501 633.81 548.387 632.57 548.387ZM640.363 546.035H638.23V531.406H640.363V546.035ZM644.027 539.363H639.762V537.531H644.027V539.363ZM624.504 536.656H631.586V532.938H633.719V544.148H622.398V532.938H624.504V536.656ZM631.586 542.398V538.352H624.504V542.398H631.586ZM664.371 539.035H659.34V537.258H664.371V539.035ZM664.344 543.766H659.312V541.988H664.344V543.766ZM659.34 535.891H645.586V534.141H659.34V535.891ZM652.531 537.148C653.607 537.148 654.568 537.335 655.416 537.709C656.264 538.083 656.92 538.607 657.385 539.281C657.85 539.956 658.082 540.74 658.082 541.633C658.082 542.526 657.85 543.314 657.385 543.998C656.92 544.682 656.264 545.21 655.416 545.584C654.568 545.958 653.607 546.145 652.531 546.145C651.456 546.145 650.499 545.958 649.66 545.584C648.822 545.21 648.174 544.682 647.719 543.998C647.263 543.314 647.035 542.526 647.035 541.633C647.035 540.74 647.263 539.951 647.719 539.268C648.174 538.584 648.822 538.06 649.66 537.695C650.499 537.331 651.456 537.148 652.531 537.148ZM652.531 538.762C651.839 538.762 651.228 538.885 650.699 539.131C650.171 539.377 649.76 539.714 649.469 540.143C649.177 540.571 649.031 541.068 649.031 541.633C649.031 542.198 649.177 542.695 649.469 543.123C649.76 543.551 650.171 543.884 650.699 544.121C651.228 544.358 651.839 544.477 652.531 544.477C653.224 544.477 653.839 544.358 654.377 544.121C654.915 543.884 655.334 543.551 655.635 543.123C655.936 542.695 656.086 542.198 656.086 541.633C656.086 541.068 655.936 540.571 655.635 540.143C655.334 539.714 654.915 539.377 654.377 539.131C653.839 538.885 653.224 538.762 652.531 538.762ZM653.625 535.344H651.492V531.215H653.625V535.344ZM665.711 547.129H663.551V531.406H665.711V547.129ZM657.699 547.375C659.395 547.375 660.853 547.535 662.074 547.854C663.296 548.173 664.23 548.646 664.877 549.275C665.524 549.904 665.848 550.656 665.848 551.531C665.848 552.388 665.524 553.126 664.877 553.746C664.23 554.366 663.291 554.84 662.061 555.168C660.83 555.496 659.376 555.66 657.699 555.66C656.004 555.66 654.546 555.496 653.324 555.168C652.103 554.84 651.164 554.366 650.508 553.746C649.852 553.126 649.523 552.388 649.523 551.531C649.523 550.656 649.852 549.904 650.508 549.275C651.164 548.646 652.103 548.173 653.324 547.854C654.546 547.535 656.004 547.375 657.699 547.375ZM657.699 549.043C656.478 549.043 655.421 549.139 654.527 549.33C653.634 549.521 652.946 549.804 652.463 550.178C651.98 550.551 651.738 551.003 651.738 551.531C651.738 552.042 651.98 552.479 652.463 552.844C652.946 553.208 653.634 553.491 654.527 553.691C655.421 553.892 656.478 553.992 657.699 553.992C658.902 553.992 659.946 553.892 660.83 553.691C661.714 553.491 662.393 553.208 662.867 552.844C663.341 552.479 663.578 552.042 663.578 551.531C663.578 551.003 663.341 550.551 662.867 550.178C662.393 549.804 661.719 549.521 660.844 549.33C659.969 549.139 658.921 549.043 657.699 549.043ZM690.566 535.699H676.812V533.922H690.566V535.699ZM683.758 537.039C684.833 537.039 685.79 537.23 686.629 537.613C687.467 537.996 688.124 538.529 688.598 539.213C689.072 539.896 689.309 540.685 689.309 541.578C689.309 542.453 689.072 543.237 688.598 543.93C688.124 544.622 687.467 545.16 686.629 545.543C685.79 545.926 684.833 546.126 683.758 546.145C682.701 546.126 681.753 545.926 680.914 545.543C680.076 545.16 679.424 544.622 678.959 543.93C678.494 543.237 678.262 542.453 678.262 541.578C678.262 540.685 678.494 539.896 678.959 539.213C679.424 538.529 680.076 537.996 680.914 537.613C681.753 537.23 682.701 537.039 683.758 537.039ZM683.758 538.707C683.083 538.707 682.477 538.83 681.939 539.076C681.402 539.322 680.987 539.66 680.695 540.088C680.404 540.516 680.258 541.013 680.258 541.578C680.258 542.125 680.404 542.617 680.695 543.055C680.987 543.492 681.402 543.829 681.939 544.066C682.477 544.303 683.083 544.422 683.758 544.422C684.451 544.422 685.066 544.303 685.604 544.066C686.141 543.829 686.561 543.492 686.861 543.055C687.162 542.617 687.312 542.125 687.312 541.578C687.312 541.013 687.162 540.516 686.861 540.088C686.561 539.66 686.141 539.322 685.604 539.076C685.066 538.83 684.451 538.707 683.758 538.707ZM684.852 535.07H682.719V531.215H684.852V535.07ZM696.938 546.828H694.777V531.406H696.938V546.828ZM695.57 539.145H690.566V537.422H695.57V539.145ZM695.57 543.766H690.539V541.961H695.57V543.766ZM696.938 555.715H694.777V550H680.586V548.25H696.938V555.715ZM721.055 549.262H718.922V531.434H721.055V549.262ZM721.82 555.195H705.359V553.391H721.82V555.195ZM707.492 554.266H705.359V547.621H707.492V554.266ZM709.215 535.234C709.215 536.802 708.928 538.283 708.354 539.678C707.779 541.072 706.977 542.294 705.947 543.342C704.917 544.39 703.737 545.188 702.406 545.734L701.23 544.066C702.452 543.592 703.532 542.904 704.471 542.002C705.41 541.1 706.134 540.061 706.645 538.885C707.155 537.709 707.41 536.492 707.41 535.234V532.801H709.215V535.234ZM709.598 535.234C709.598 536.438 709.853 537.595 710.363 538.707C710.874 539.819 711.598 540.799 712.537 541.646C713.476 542.494 714.538 543.137 715.723 543.574L714.602 545.297C713.253 544.768 712.068 544.012 711.047 543.027C710.026 542.043 709.229 540.881 708.654 539.541C708.08 538.201 707.793 536.766 707.793 535.234V532.801H709.598V535.234ZM736.258 531.844C738.062 531.844 739.607 532.003 740.893 532.322C742.178 532.641 743.158 533.115 743.832 533.744C744.507 534.373 744.844 535.134 744.844 536.027C744.844 536.939 744.507 537.709 743.832 538.338C743.158 538.967 742.178 539.445 740.893 539.773C739.607 540.102 738.062 540.275 736.258 540.293C734.453 540.275 732.908 540.102 731.623 539.773C730.338 539.445 729.354 538.967 728.67 538.338C727.986 537.709 727.645 536.939 727.645 536.027C727.645 535.134 727.986 534.373 728.67 533.744C729.354 533.115 730.338 532.641 731.623 532.322C732.908 532.003 734.453 531.844 736.258 531.844ZM736.258 533.457C734.927 533.457 733.783 533.557 732.826 533.758C731.869 533.958 731.14 534.255 730.639 534.646C730.137 535.038 729.887 535.499 729.887 536.027C729.887 536.592 730.133 537.071 730.625 537.463C731.117 537.855 731.842 538.151 732.799 538.352C733.756 538.552 734.909 538.652 736.258 538.652C737.607 538.652 738.76 538.552 739.717 538.352C740.674 538.151 741.403 537.85 741.904 537.449C742.406 537.048 742.656 536.574 742.656 536.027C742.656 535.499 742.401 535.043 741.891 534.66C741.38 534.277 740.646 533.981 739.689 533.771C738.732 533.562 737.589 533.457 736.258 533.457ZM747.332 543.684H725.184V541.934H747.332V543.684ZM744.488 551.23H730.051V554.184H727.918V549.645H742.383V547.43H727.863V545.789H744.488V551.23ZM745.227 555.441H727.918V553.746H745.227V555.441ZM778.559 546.062H756.383V544.312H778.559V546.062ZM768.523 545.051H766.391V541.113H768.523V545.051ZM775.934 541.906H759.336V540.184H775.934V541.906ZM775.797 533.867H761.496V541.086H759.336V532.117H775.797V533.867ZM775.141 537.777H760.84V536.137H775.141V537.777ZM767.484 547.895C769.271 547.876 770.784 548.018 772.023 548.318C773.263 548.619 774.211 549.061 774.867 549.645C775.523 550.228 775.852 550.939 775.852 551.777C775.852 552.616 775.523 553.322 774.867 553.896C774.211 554.471 773.263 554.908 772.023 555.209C770.784 555.51 769.271 555.66 767.484 555.66C765.698 555.66 764.176 555.51 762.918 555.209C761.66 554.908 760.708 554.471 760.061 553.896C759.413 553.322 759.09 552.616 759.09 551.777C759.09 550.921 759.418 550.205 760.074 549.631C760.73 549.057 761.683 548.619 762.932 548.318C764.18 548.018 765.698 547.876 767.484 547.895ZM767.484 549.508C766.154 549.508 765.023 549.594 764.094 549.768C763.164 549.941 762.458 550.196 761.975 550.533C761.492 550.87 761.25 551.285 761.25 551.777C761.25 552.27 761.487 552.68 761.961 553.008C762.435 553.336 763.141 553.582 764.08 553.746C765.019 553.91 766.154 553.992 767.484 553.992C768.815 553.992 769.941 553.91 770.861 553.746C771.782 553.582 772.484 553.336 772.967 553.008C773.45 552.68 773.691 552.27 773.691 551.777C773.691 551.285 773.45 550.87 772.967 550.533C772.484 550.196 771.777 549.941 770.848 549.768C769.918 549.594 768.797 549.508 767.484 549.508ZM799.613 549.645H797.48V531.434H799.613V549.645ZM803.277 541.25H798.93V539.445H803.277V541.25ZM795.156 536.164H780.664V534.414H795.156V536.164ZM787.91 537.504C789.059 537.504 790.075 537.691 790.959 538.064C791.843 538.438 792.531 538.967 793.023 539.65C793.516 540.334 793.762 541.132 793.762 542.043C793.762 542.936 793.516 543.72 793.023 544.395C792.531 545.069 791.843 545.593 790.959 545.967C790.075 546.34 789.059 546.527 787.91 546.527C786.762 546.527 785.741 546.34 784.848 545.967C783.954 545.593 783.266 545.069 782.783 544.395C782.3 543.72 782.059 542.936 782.059 542.043C782.059 541.132 782.3 540.334 782.783 539.65C783.266 538.967 783.954 538.438 784.848 538.064C785.741 537.691 786.762 537.504 787.91 537.504ZM787.91 539.199C787.163 539.199 786.497 539.313 785.914 539.541C785.331 539.769 784.884 540.102 784.574 540.539C784.264 540.977 784.109 541.478 784.109 542.043C784.109 542.608 784.264 543.1 784.574 543.52C784.884 543.939 785.331 544.262 785.914 544.49C786.497 544.718 787.163 544.832 787.91 544.832C788.658 544.832 789.323 544.718 789.906 544.49C790.49 544.262 790.941 543.939 791.26 543.52C791.579 543.1 791.738 542.608 791.738 542.043C791.738 541.478 791.579 540.977 791.26 540.539C790.941 540.102 790.49 539.769 789.906 539.541C789.323 539.313 788.658 539.199 787.91 539.199ZM788.977 535.316H786.844V531.434H788.977V535.316ZM800.734 555.195H784.41V553.391H800.734V555.195ZM786.516 554.129H784.41V548.195H786.516V554.129ZM632.857 568.316C632.857 569.866 632.575 571.306 632.01 572.637C631.445 573.967 630.647 575.125 629.617 576.109C628.587 577.094 627.389 577.85 626.021 578.379L624.846 576.629C626.085 576.191 627.179 575.558 628.127 574.729C629.075 573.899 629.809 572.933 630.328 571.83C630.848 570.727 631.107 569.556 631.107 568.316V565.801H632.857V568.316ZM633.24 568.234C633.24 569.365 633.491 570.449 633.992 571.488C634.493 572.527 635.2 573.434 636.111 574.209C637.023 574.984 638.071 575.572 639.256 575.973L638.053 577.641C636.74 577.148 635.592 576.442 634.607 575.521C633.623 574.601 632.853 573.516 632.297 572.268C631.741 571.019 631.463 569.674 631.463 568.234V565.801H633.24V568.234ZM645.025 578.816H642.865V564.406H645.025V578.816ZM636.959 579.527C638.654 579.527 640.113 579.705 641.334 580.061C642.555 580.416 643.49 580.94 644.137 581.633C644.784 582.326 645.107 583.155 645.107 584.121C645.107 585.069 644.784 585.885 644.137 586.568C643.49 587.252 642.555 587.771 641.334 588.127C640.113 588.482 638.654 588.66 636.959 588.66C635.282 588.66 633.833 588.482 632.611 588.127C631.39 587.771 630.451 587.252 629.795 586.568C629.139 585.885 628.811 585.069 628.811 584.121C628.811 583.155 629.139 582.326 629.795 581.633C630.451 580.94 631.39 580.416 632.611 580.061C633.833 579.705 635.282 579.527 636.959 579.527ZM636.959 581.223C635.738 581.223 634.671 581.337 633.76 581.564C632.848 581.792 632.151 582.125 631.668 582.562C631.185 583 630.943 583.52 630.943 584.121C630.943 584.686 631.185 585.183 631.668 585.611C632.151 586.04 632.848 586.368 633.76 586.596C634.671 586.824 635.738 586.938 636.959 586.938C638.199 586.938 639.27 586.824 640.172 586.596C641.074 586.368 641.767 586.04 642.25 585.611C642.733 585.183 642.975 584.686 642.975 584.121C642.975 583.52 642.733 583 642.25 582.562C641.767 582.125 641.074 581.792 640.172 581.564C639.27 581.337 638.199 581.223 636.959 581.223ZM643.33 571.406H637.451V569.629H643.33V571.406ZM660.064 579.773C661.814 579.773 663.327 579.947 664.604 580.293C665.88 580.639 666.864 581.15 667.557 581.824C668.249 582.499 668.596 583.301 668.596 584.23C668.596 585.142 668.249 585.93 667.557 586.596C666.864 587.261 665.875 587.771 664.59 588.127C663.305 588.482 661.796 588.66 660.064 588.66C658.333 588.66 656.829 588.482 655.553 588.127C654.277 587.771 653.292 587.261 652.6 586.596C651.907 585.93 651.561 585.142 651.561 584.23C651.561 583.301 651.907 582.499 652.6 581.824C653.292 581.15 654.277 580.639 655.553 580.293C656.829 579.947 658.333 579.773 660.064 579.773ZM660.064 581.414C658.788 581.414 657.667 581.528 656.701 581.756C655.735 581.984 654.992 582.312 654.473 582.74C653.953 583.169 653.693 583.665 653.693 584.23C653.693 584.777 653.953 585.26 654.473 585.68C654.992 586.099 655.735 586.418 656.701 586.637C657.667 586.855 658.788 586.965 660.064 586.965C661.359 586.965 662.484 586.855 663.441 586.637C664.398 586.418 665.141 586.099 665.67 585.68C666.199 585.26 666.463 584.777 666.463 584.23C666.463 583.665 666.199 583.169 665.67 582.74C665.141 582.312 664.398 581.984 663.441 581.756C662.484 581.528 661.359 581.414 660.064 581.414ZM667.502 567.414H651.725V565.664H667.502V567.414ZM671.221 577.504H649.1V575.754H671.221V577.504ZM660.365 576.301H658.26V571.051H660.365V576.301ZM668.404 567.715C668.404 569.027 668.368 570.148 668.295 571.078C668.222 572.008 668.031 573.038 667.721 574.168L665.615 573.922C665.907 572.792 666.089 571.785 666.162 570.9C666.235 570.016 666.271 568.954 666.271 567.715V565.664H668.404V567.715ZM681.885 578.926H679.752V575.836H681.885V578.926ZM692.248 580.73H690.088V564.434H692.248V580.73ZM695.885 573.594H691.346V571.789H695.885V573.594ZM673.162 578.242C675.113 578.242 676.89 578.229 678.494 578.201C680.098 578.174 681.794 578.101 683.58 577.982C685.367 577.864 687.035 577.695 688.584 577.477L688.775 579.035C686.46 579.436 684.072 579.696 681.611 579.814C679.15 579.933 676.416 579.992 673.408 579.992L673.162 578.242ZM692.248 588.715H690.088V583.656H676.143V581.934H692.248V588.715ZM687.846 568.289H673.764V566.648H687.846V568.289ZM680.791 569.219C681.939 569.219 682.942 569.365 683.799 569.656C684.656 569.948 685.321 570.363 685.795 570.9C686.269 571.438 686.506 572.072 686.506 572.801C686.506 573.53 686.269 574.168 685.795 574.715C685.321 575.262 684.656 575.686 683.799 575.986C682.942 576.287 681.939 576.438 680.791 576.438C679.661 576.438 678.667 576.287 677.811 575.986C676.954 575.686 676.288 575.262 675.814 574.715C675.34 574.168 675.104 573.53 675.104 572.801C675.104 572.072 675.34 571.438 675.814 570.9C676.288 570.363 676.954 569.948 677.811 569.656C678.667 569.365 679.661 569.219 680.791 569.219ZM680.791 570.75C680.062 570.732 679.424 570.805 678.877 570.969C678.33 571.133 677.906 571.37 677.605 571.68C677.305 571.99 677.154 572.363 677.154 572.801C677.154 573.22 677.305 573.589 677.605 573.908C677.906 574.227 678.33 574.473 678.877 574.646C679.424 574.82 680.062 574.906 680.791 574.906C681.538 574.906 682.186 574.82 682.732 574.646C683.279 574.473 683.703 574.227 684.004 573.908C684.305 573.589 684.455 573.22 684.455 572.801C684.455 572.363 684.305 571.99 684.004 571.68C683.703 571.37 683.279 571.133 682.732 570.969C682.186 570.805 681.538 570.732 680.791 570.75ZM681.885 567.496H679.752V564.215H681.885V567.496ZM719.701 577.176H697.443V575.508H719.701V577.176ZM716.912 584.559H702.311V587.457H700.15V583.055H714.779V580.977H700.123V579.391H716.912V584.559ZM717.705 588.441H700.15V586.883H717.705V588.441ZM716.83 570.148H702.475V572.828H700.342V568.699H714.67V566.676H700.26V565.145H716.83V570.148ZM717.268 573.785H700.342V572.227H717.268V573.785ZM705.592 580.402H703.486V576.164H705.592V580.402ZM713.686 580.402H711.553V576.164H713.686V580.402ZM749.479 588.715H747.428V564.406H749.479V588.715ZM743.189 574.934H738.432V573.184H743.189V574.934ZM744.557 587.457H742.533V565.008H744.557V587.457ZM735.451 571.352C735.451 573.102 735.219 574.792 734.754 576.424C734.289 578.055 733.633 579.518 732.785 580.812C731.938 582.107 730.93 583.118 729.764 583.848L728.396 582.234C729.508 581.578 730.47 580.68 731.281 579.541C732.092 578.402 732.708 577.121 733.127 575.699C733.546 574.277 733.756 572.828 733.756 571.352V568.18H735.451V571.352ZM735.834 571.352C735.834 572.755 736.039 574.132 736.449 575.48C736.859 576.829 737.461 578.042 738.254 579.117C739.047 580.193 739.99 581.049 741.084 581.688L739.771 583.273C738.605 582.562 737.607 581.596 736.777 580.375C735.948 579.154 735.314 577.764 734.877 576.205C734.439 574.646 734.221 573.029 734.221 571.352V568.18H735.834V571.352ZM740.291 569.055H729.08V567.277H740.291V569.055ZM771.053 568.645H755.248V566.867H771.053V568.645ZM775.045 585.27H752.896V583.492H775.045V585.27ZM763.697 584.422H761.592V574.797H763.697V584.422ZM772.393 569.301C772.393 570.741 772.374 571.939 772.338 572.896C772.301 573.854 772.219 574.984 772.092 576.287C771.964 577.59 771.764 578.999 771.49 580.512L769.303 580.266C769.594 578.826 769.809 577.467 769.945 576.191C770.082 574.915 770.164 573.781 770.191 572.787C770.219 571.794 770.232 570.632 770.232 569.301V566.867H772.393V569.301Z" fill="#333333"/>
<g filter="url(#filter3_d_2399_4972)">
<circle cx="1097" cy="506.5" r="140" fill="#F1F1F1"/>
</g>
<mask id="mask2_2399_4972" style="mask-type:alpha" maskUnits="userSpaceOnUse" x="1074" y="450" width="56" height="57">
<rect x="1074" y="450.5" width="56" height="56" fill="#D9D9D9"/>
</mask>
<g mask="url(#mask2_2399_4972)">
<path d="M1102 501.833C1098.77 501.833 1095.74 501.221 1092.9 499.996C1090.06 498.771 1087.59 497.108 1085.49 495.008C1083.39 492.908 1081.73 490.439 1080.51 487.6C1079.28 484.761 1078.67 481.728 1078.67 478.5C1078.67 475.272 1079.28 472.239 1080.51 469.4C1081.73 466.561 1083.39 464.092 1085.49 461.992C1087.59 459.892 1090.06 458.229 1092.9 457.004C1095.74 455.779 1098.77 455.167 1102 455.167C1105.23 455.167 1108.26 455.779 1111.1 457.004C1113.94 458.229 1116.41 459.892 1118.51 461.992C1120.61 464.092 1122.27 466.561 1123.5 469.4C1124.72 472.239 1125.33 475.272 1125.33 478.5C1125.33 481.728 1124.72 484.761 1123.5 487.6C1122.27 490.439 1120.61 492.908 1118.51 495.008C1116.41 497.108 1113.94 498.771 1111.1 499.996C1108.26 501.221 1105.23 501.833 1102 501.833ZM1102 497.167C1107.21 497.167 1111.63 495.358 1115.24 491.742C1118.86 488.125 1120.67 483.711 1120.67 478.5C1120.67 478.228 1120.66 477.946 1120.64 477.654C1120.62 477.363 1120.61 477.12 1120.61 476.925C1120.42 478.053 1119.89 478.986 1119.03 479.725C1118.18 480.464 1117.17 480.833 1116 480.833H1111.33C1110.05 480.833 1108.95 480.376 1108.04 479.463C1107.12 478.549 1106.67 477.45 1106.67 476.167V473.833H1097.33V469.167C1097.33 467.883 1097.79 466.785 1098.71 465.871C1099.62 464.957 1100.72 464.5 1102 464.5H1104.33C1104.33 463.606 1104.58 462.818 1105.06 462.138C1105.55 461.457 1106.14 460.903 1106.84 460.475C1106.07 460.281 1105.28 460.125 1104.48 460.008C1103.68 459.892 1102.86 459.833 1102 459.833C1096.79 459.833 1092.38 461.642 1088.76 465.258C1085.14 468.875 1083.33 473.289 1083.33 478.5H1095C1097.57 478.5 1099.77 479.414 1101.59 481.242C1103.42 483.07 1104.33 485.267 1104.33 487.833V490.167H1097.33V496.583C1098.11 496.778 1098.88 496.924 1099.64 497.021C1100.4 497.118 1101.18 497.167 1102 497.167Z" fill="#1C1B1F"/>
</g>
<path d="M1005.68 533.223H989.877V531.473H1005.68V533.223ZM1009.32 541.234H987.061V539.512H1009.32V541.234ZM1006.39 533.031C1006.39 534.271 1006.36 535.415 1006.28 536.463C1006.21 537.511 1006.03 538.701 1005.74 540.031L1003.63 539.785C1003.9 538.473 1004.08 537.315 1004.15 536.312C1004.22 535.31 1004.26 534.216 1004.26 533.031V531.473H1006.39V533.031ZM1006.47 549.82H991.9V553.266H989.74V548.125H1004.34V545.418H989.713V543.695H1006.47V549.82ZM1007.1 554.441H989.74V552.691H1007.1V554.441ZM1033.52 551.707H1011.26V549.902H1033.52V551.707ZM1023.37 550.695H1021.27V544.68H1023.37V550.695ZM1030.7 539.566H1016.18V544.488H1014.05V537.816H1028.6V533.988H1013.99V532.211H1030.7V539.566ZM1031.28 545.309H1014.05V543.531H1031.28V545.309ZM1054.16 537.625H1047.08V535.82H1054.16V537.625ZM1055.58 543.094H1053.45V530.406H1055.58V543.094ZM1055.58 550.012H1042.02V553.73H1039.89V548.371H1053.45V545.992H1039.83V544.27H1055.58V550.012ZM1056.51 554.387H1039.89V552.664H1056.51V554.387ZM1038.82 535.027H1045.6V531.555H1047.71V542.109H1036.69V531.555H1038.82V535.027ZM1045.6 540.359V536.75H1038.82V540.359H1045.6ZM1080.66 534.836H1066.99V533.059H1080.66V534.836ZM1066.38 546.867C1069.21 546.867 1071.93 546.822 1074.53 546.73C1077.14 546.639 1079.56 546.457 1081.81 546.184L1081.92 547.77C1079.64 548.134 1077.26 548.376 1074.78 548.494C1072.3 548.613 1069.59 548.681 1066.66 548.699L1066.38 546.867ZM1071.74 547.359H1069.67V534.371H1071.74V547.359ZM1077.95 547.359H1075.9V534.371H1077.95V547.359ZM1085.5 554.715H1083.37V530.406H1085.5V554.715ZM1089.57 541.973H1085.01V540.168H1089.57V541.973ZM1110.57 545.309H1093.76V543.559H1110.57V545.309ZM1113.14 551.543H1090.88V549.766H1113.14V551.543ZM1110.3 534.316H1095.94V544.078H1093.76V532.512H1110.3V534.316ZM1109.78 539.648H1095.26V537.926H1109.78V539.648ZM1135.26 554.77H1133.1V530.406H1135.26V554.77ZM1133.81 540.223H1125.53V538.445H1133.81V540.223ZM1118.58 548.207H1116.42V533.141H1118.58V548.207ZM1118.28 547.059C1120.4 547.04 1122.32 546.958 1124.04 546.812C1125.76 546.667 1127.5 546.421 1129.25 546.074L1129.52 547.852C1127.68 548.216 1125.88 548.476 1124.11 548.631C1122.34 548.786 1120.4 548.863 1118.28 548.863H1116.42V547.059H1118.28ZM1148.83 546.293H1146.69V541.699H1148.83V546.293ZM1145.3 548.207H1157.08V545.555H1159.19V554.387H1143.17V545.555H1145.3V548.207ZM1157.08 552.637V549.902H1145.3V552.637H1157.08ZM1159.19 544.379H1157.06V530.434H1159.19V544.379ZM1139.31 541.07C1142.65 541.07 1145.57 541.029 1148.09 540.947C1150.6 540.865 1153.04 540.678 1155.39 540.387L1155.53 541.918C1153.12 542.319 1150.65 542.574 1148.12 542.684C1145.58 542.793 1142.75 542.848 1139.61 542.848L1139.31 541.07ZM1148.17 532.238C1148.17 533.387 1147.89 534.453 1147.32 535.438C1146.76 536.422 1145.96 537.27 1144.94 537.98C1143.92 538.691 1142.74 539.22 1141.39 539.566L1140.4 537.871C1141.57 537.598 1142.61 537.183 1143.52 536.627C1144.43 536.071 1145.14 535.415 1145.65 534.658C1146.16 533.902 1146.42 533.095 1146.42 532.238V531.008H1148.17V532.238ZM1148.61 532.238C1148.61 533.04 1148.86 533.801 1149.37 534.521C1149.88 535.242 1150.59 535.861 1151.49 536.381C1152.39 536.9 1153.43 537.288 1154.6 537.543L1153.67 539.184C1152.34 538.874 1151.15 538.391 1150.12 537.734C1149.1 537.078 1148.29 536.281 1147.72 535.342C1147.14 534.403 1146.86 533.368 1146.86 532.238V531.008H1148.61V532.238ZM1192.66 545.062H1170.48V543.312H1192.66V545.062ZM1182.62 544.051H1180.49V540.113H1182.62V544.051ZM1190.03 540.906H1173.44V539.184H1190.03V540.906ZM1189.9 532.867H1175.6V540.086H1173.44V531.117H1189.9V532.867ZM1189.24 536.777H1174.94V535.137H1189.24V536.777ZM1181.58 546.895C1183.37 546.876 1184.88 547.018 1186.12 547.318C1187.36 547.619 1188.31 548.061 1188.97 548.645C1189.62 549.228 1189.95 549.939 1189.95 550.777C1189.95 551.616 1189.62 552.322 1188.97 552.896C1188.31 553.471 1187.36 553.908 1186.12 554.209C1184.88 554.51 1183.37 554.66 1181.58 554.66C1179.8 554.66 1178.28 554.51 1177.02 554.209C1175.76 553.908 1174.81 553.471 1174.16 552.896C1173.51 552.322 1173.19 551.616 1173.19 550.777C1173.19 549.921 1173.52 549.205 1174.17 548.631C1174.83 548.057 1175.78 547.619 1177.03 547.318C1178.28 547.018 1179.8 546.876 1181.58 546.895ZM1181.58 548.508C1180.25 548.508 1179.12 548.594 1178.19 548.768C1177.26 548.941 1176.56 549.196 1176.07 549.533C1175.59 549.87 1175.35 550.285 1175.35 550.777C1175.35 551.27 1175.59 551.68 1176.06 552.008C1176.53 552.336 1177.24 552.582 1178.18 552.746C1179.12 552.91 1180.25 552.992 1181.58 552.992C1182.91 552.992 1184.04 552.91 1184.96 552.746C1185.88 552.582 1186.58 552.336 1187.07 552.008C1187.55 551.68 1187.79 551.27 1187.79 550.777C1187.79 550.285 1187.55 549.87 1187.07 549.533C1186.58 549.196 1185.88 548.941 1184.95 548.768C1184.02 548.594 1182.9 548.508 1181.58 548.508ZM1213.71 548.645H1211.58V530.434H1213.71V548.645ZM1217.38 540.25H1213.03V538.445H1217.38V540.25ZM1209.26 535.164H1194.76V533.414H1209.26V535.164ZM1202.01 536.504C1203.16 536.504 1204.17 536.691 1205.06 537.064C1205.94 537.438 1206.63 537.967 1207.12 538.65C1207.62 539.334 1207.86 540.132 1207.86 541.043C1207.86 541.936 1207.62 542.72 1207.12 543.395C1206.63 544.069 1205.94 544.593 1205.06 544.967C1204.17 545.34 1203.16 545.527 1202.01 545.527C1200.86 545.527 1199.84 545.34 1198.95 544.967C1198.05 544.593 1197.37 544.069 1196.88 543.395C1196.4 542.72 1196.16 541.936 1196.16 541.043C1196.16 540.132 1196.4 539.334 1196.88 538.65C1197.37 537.967 1198.05 537.438 1198.95 537.064C1199.84 536.691 1200.86 536.504 1202.01 536.504ZM1202.01 538.199C1201.26 538.199 1200.6 538.313 1200.01 538.541C1199.43 538.769 1198.98 539.102 1198.67 539.539C1198.36 539.977 1198.21 540.478 1198.21 541.043C1198.21 541.608 1198.36 542.1 1198.67 542.52C1198.98 542.939 1199.43 543.262 1200.01 543.49C1200.6 543.718 1201.26 543.832 1202.01 543.832C1202.76 543.832 1203.42 543.718 1204.01 543.49C1204.59 543.262 1205.04 542.939 1205.36 542.52C1205.68 542.1 1205.84 541.608 1205.84 541.043C1205.84 540.478 1205.68 539.977 1205.36 539.539C1205.04 539.102 1204.59 538.769 1204.01 538.541C1203.42 538.313 1202.76 538.199 1202.01 538.199ZM1203.08 534.316H1200.94V530.434H1203.08V534.316ZM1214.83 554.195H1198.51V552.391H1214.83V554.195ZM1200.62 553.129H1198.51V547.195H1200.62V553.129ZM1017.89 569.012H1010.51V567.234H1017.89V569.012ZM1017.89 574.836H1010.51V573.059H1017.89V574.836ZM1019.31 581.398H1017.15V563.434H1019.31V581.398ZM1020 587.195H1003.7V585.391H1020V587.195ZM1005.86 586.129H1003.7V579.512H1005.86V586.129ZM1005.86 564.965C1007.04 564.965 1008.11 565.229 1009.06 565.758C1010.01 566.286 1010.76 567.011 1011.31 567.932C1011.87 568.852 1012.15 569.896 1012.15 571.062C1012.15 572.229 1011.87 573.273 1011.31 574.193C1010.76 575.114 1010.01 575.834 1009.06 576.354C1008.11 576.873 1007.04 577.133 1005.86 577.133C1004.66 577.133 1003.58 576.873 1002.62 576.354C1001.66 575.834 1000.91 575.114 1000.36 574.193C999.816 573.273 999.543 572.229 999.543 571.062C999.543 569.896 999.816 568.848 1000.36 567.918C1000.91 566.988 1001.66 566.264 1002.62 565.744C1003.58 565.225 1004.66 564.965 1005.86 564.965ZM1005.86 566.879C1005.04 566.879 1004.31 567.061 1003.66 567.426C1003.01 567.79 1002.51 568.287 1002.14 568.916C1001.78 569.545 1001.59 570.26 1001.59 571.062C1001.59 571.865 1001.78 572.58 1002.14 573.209C1002.51 573.838 1003.01 574.33 1003.66 574.686C1004.31 575.041 1005.04 575.219 1005.86 575.219C1006.64 575.219 1007.36 575.041 1008.01 574.686C1008.65 574.33 1009.16 573.833 1009.52 573.195C1009.89 572.557 1010.07 571.846 1010.07 571.062C1010.07 570.26 1009.89 569.545 1009.52 568.916C1009.16 568.287 1008.65 567.79 1008.01 567.426C1007.36 567.061 1006.64 566.879 1005.86 566.879ZM1041.49 566.77H1026.15V564.992H1041.49V566.77ZM1045.51 577.215H1023.36V575.438H1045.51V577.215ZM1035.47 587.77H1033.31V576.613H1035.47V587.77ZM1042.58 567.125C1042.58 568.273 1042.57 569.267 1042.54 570.105C1042.51 570.944 1042.43 571.91 1042.29 573.004C1042.16 574.098 1041.94 575.283 1041.65 576.559L1039.52 576.285C1039.81 575.064 1040.03 573.92 1040.16 572.854C1040.3 571.787 1040.38 570.844 1040.41 570.023C1040.44 569.203 1040.45 568.237 1040.45 567.125V564.992H1042.58V567.125ZM1068.31 587.715H1066.21V563.406H1068.31V587.715ZM1067 575H1062.21V573.223H1067V575ZM1058.03 566.578C1058.03 568.766 1057.74 570.821 1057.16 572.744C1056.57 574.667 1055.6 576.463 1054.24 578.131C1052.89 579.799 1051.09 581.253 1048.84 582.492L1047.59 580.988C1049.59 579.876 1051.21 578.591 1052.45 577.133C1053.69 575.674 1054.59 574.098 1055.15 572.402C1055.7 570.707 1055.98 568.884 1055.98 566.934V566.578H1058.03ZM1056.69 568.355H1048.52V566.578H1056.69V568.355ZM1062.84 586.512H1060.79V564.062H1062.84V586.512ZM1074.9 567.945H1081.98V564.445H1084.12V575.027H1072.8V564.445H1074.9V567.945ZM1081.98 573.277V569.613H1074.9V573.277H1081.98ZM1090.76 575.984H1088.63V563.406H1090.76V575.984ZM1094.43 570.488H1089.8V568.684H1094.43V570.488ZM1090.76 583.012H1077.42V586.676H1075.31V581.371H1088.63V578.855H1075.26V577.133H1090.76V583.012ZM1091.66 587.441H1075.31V585.691H1091.66V587.441ZM1121.63 568.766H1114.2V566.988H1121.63V568.766ZM1121.63 574.234H1114.2V572.457H1121.63V574.234ZM1123.14 587.715H1120.98V580.797H1106.79V579.074H1123.14V587.715ZM1123.14 577.734H1120.98V563.406H1123.14V577.734ZM1109.68 564.801C1110.87 564.801 1111.94 565.047 1112.9 565.539C1113.85 566.031 1114.61 566.719 1115.15 567.604C1115.7 568.488 1115.97 569.486 1115.97 570.598C1115.97 571.728 1115.7 572.735 1115.15 573.619C1114.61 574.503 1113.85 575.191 1112.9 575.684C1111.94 576.176 1110.87 576.422 1109.68 576.422C1108.48 576.422 1107.4 576.176 1106.44 575.684C1105.49 575.191 1104.73 574.503 1104.19 573.619C1103.64 572.735 1103.37 571.728 1103.37 570.598C1103.37 569.486 1103.64 568.488 1104.19 567.604C1104.73 566.719 1105.49 566.031 1106.44 565.539C1107.4 565.047 1108.48 564.801 1109.68 564.801ZM1109.68 566.633C1108.86 566.633 1108.13 566.801 1107.48 567.139C1106.84 567.476 1106.33 567.945 1105.96 568.547C1105.6 569.148 1105.42 569.832 1105.42 570.598C1105.42 571.382 1105.6 572.079 1105.96 572.689C1106.33 573.3 1106.84 573.774 1107.48 574.111C1108.13 574.449 1108.86 574.617 1109.68 574.617C1110.47 574.617 1111.18 574.444 1111.83 574.098C1112.48 573.751 1112.98 573.273 1113.35 572.662C1113.71 572.051 1113.89 571.363 1113.89 570.598C1113.89 569.832 1113.71 569.148 1113.35 568.547C1112.98 567.945 1112.48 567.476 1111.83 567.139C1111.18 566.801 1110.47 566.633 1109.68 566.633ZM1149.88 569.039H1145.5V567.234H1149.88V569.039ZM1149.88 574.18H1145.5V572.348H1149.88V574.18ZM1146.19 578.145H1144.05V563.434H1146.19V578.145ZM1130.16 574.891C1132.55 574.891 1134.6 574.836 1136.32 574.727C1138.03 574.617 1139.8 574.408 1141.62 574.098L1141.84 575.902C1140 576.212 1138.2 576.422 1136.45 576.531C1134.7 576.641 1132.61 576.695 1130.16 576.695H1128.28V574.891H1130.16ZM1139.24 571.5H1130.38V576.094H1128.28V569.805H1137.14V566.715H1128.22V564.938H1139.24V571.5ZM1138.39 578.855C1140.04 578.855 1141.46 579.029 1142.66 579.375C1143.86 579.721 1144.79 580.227 1145.44 580.893C1146.08 581.558 1146.41 582.355 1146.41 583.285C1146.41 584.197 1146.09 584.98 1145.45 585.637C1144.81 586.293 1143.89 586.794 1142.69 587.141C1141.48 587.487 1140.05 587.66 1138.39 587.66C1136.72 587.66 1135.28 587.487 1134.07 587.141C1132.87 586.794 1131.95 586.293 1131.3 585.637C1130.65 584.98 1130.33 584.197 1130.33 583.285C1130.33 582.355 1130.65 581.558 1131.3 580.893C1131.95 580.227 1132.88 579.721 1134.09 579.375C1135.3 579.029 1136.74 578.855 1138.39 578.855ZM1138.39 580.551C1137.17 580.551 1136.11 580.66 1135.21 580.879C1134.31 581.098 1133.62 581.412 1133.14 581.822C1132.67 582.232 1132.43 582.72 1132.43 583.285C1132.43 583.832 1132.67 584.311 1133.14 584.721C1133.62 585.131 1134.31 585.445 1135.21 585.664C1136.11 585.883 1137.17 585.992 1138.39 585.992C1139.62 585.992 1140.67 585.883 1141.57 585.664C1142.46 585.445 1143.14 585.135 1143.62 584.734C1144.09 584.333 1144.33 583.85 1144.33 583.285C1144.33 582.72 1144.09 582.232 1143.62 581.822C1143.14 581.412 1142.46 581.098 1141.57 580.879C1140.67 580.66 1139.62 580.551 1138.39 580.551ZM1177.41 578.008H1175.28V563.406H1177.41V578.008ZM1181.08 571.527H1176.81V569.75H1181.08V571.527ZM1170.8 565.211C1170.8 567.234 1170.34 569.089 1169.42 570.775C1168.5 572.462 1167.18 573.92 1165.46 575.15C1163.75 576.381 1161.71 577.342 1159.34 578.035L1158.44 576.285C1160.52 575.684 1162.31 574.882 1163.82 573.879C1165.34 572.876 1166.5 571.723 1167.31 570.42C1168.12 569.117 1168.53 567.708 1168.53 566.195V565.211H1170.8ZM1169.73 566.988H1159.5V565.211H1169.73V566.988ZM1169.73 578.281C1171.35 578.281 1172.77 578.468 1173.97 578.842C1175.17 579.215 1176.09 579.753 1176.73 580.455C1177.37 581.157 1177.69 581.991 1177.69 582.957C1177.69 583.923 1177.37 584.762 1176.73 585.473C1176.09 586.184 1175.17 586.726 1173.97 587.1C1172.77 587.473 1171.35 587.66 1169.73 587.66C1168.13 587.66 1166.72 587.473 1165.52 587.1C1164.32 586.726 1163.39 586.184 1162.74 585.473C1162.1 584.762 1161.77 583.923 1161.77 582.957C1161.77 581.991 1162.1 581.157 1162.74 580.455C1163.39 579.753 1164.32 579.215 1165.52 578.842C1166.72 578.468 1168.13 578.281 1169.73 578.281ZM1169.73 580.004C1168.56 579.986 1167.54 580.095 1166.65 580.332C1165.77 580.569 1165.09 580.915 1164.62 581.371C1164.14 581.827 1163.91 582.355 1163.91 582.957C1163.91 583.559 1164.14 584.083 1164.62 584.529C1165.09 584.976 1165.77 585.322 1166.65 585.568C1167.54 585.814 1168.56 585.938 1169.73 585.938C1170.92 585.938 1171.95 585.814 1172.83 585.568C1173.72 585.322 1174.4 584.976 1174.88 584.529C1175.37 584.083 1175.61 583.559 1175.61 582.957C1175.61 582.355 1175.37 581.827 1174.88 581.371C1174.4 580.915 1173.72 580.569 1172.83 580.332C1171.95 580.095 1170.92 579.986 1169.73 580.004ZM1191.17 581.863H1189.01V577.898H1191.17V581.863ZM1201.48 587.715H1199.32V563.406H1201.48V587.715ZM1205.36 575.574H1200.82V573.77H1205.36V575.574ZM1182.31 581.234C1185.39 581.234 1188.19 581.189 1190.7 581.098C1193.22 581.007 1195.6 580.797 1197.84 580.469L1197.98 582.109C1196.34 582.383 1194.63 582.588 1192.86 582.725C1191.1 582.861 1189.41 582.952 1187.82 582.998C1186.22 583.044 1184.51 583.066 1182.66 583.066L1182.31 581.234ZM1197.4 568.137H1182.75V566.387H1197.4V568.137ZM1190.1 569.559C1191.23 569.559 1192.23 569.745 1193.1 570.119C1193.96 570.493 1194.64 571.017 1195.13 571.691C1195.62 572.366 1195.87 573.159 1195.87 574.07C1195.87 574.964 1195.62 575.743 1195.13 576.408C1194.64 577.074 1193.96 577.593 1193.1 577.967C1192.23 578.34 1191.23 578.527 1190.1 578.527C1188.97 578.527 1187.97 578.34 1187.09 577.967C1186.22 577.593 1185.54 577.074 1185.07 576.408C1184.6 575.743 1184.36 574.964 1184.36 574.07C1184.36 573.159 1184.6 572.366 1185.07 571.691C1185.54 571.017 1186.22 570.493 1187.09 570.119C1187.97 569.745 1188.97 569.559 1190.1 569.559ZM1190.1 571.227C1189.37 571.227 1188.73 571.345 1188.16 571.582C1187.6 571.819 1187.15 572.152 1186.83 572.58C1186.51 573.008 1186.36 573.505 1186.36 574.07C1186.36 574.617 1186.51 575.105 1186.82 575.533C1187.13 575.962 1187.57 576.285 1188.15 576.504C1188.72 576.723 1189.37 576.832 1190.1 576.832C1190.83 576.832 1191.48 576.723 1192.04 576.504C1192.61 576.285 1193.05 575.962 1193.36 575.533C1193.67 575.105 1193.82 574.617 1193.82 574.07C1193.82 573.505 1193.67 573.008 1193.36 572.58C1193.05 572.152 1192.61 571.819 1192.04 571.582C1191.48 571.345 1190.83 571.227 1190.1 571.227ZM1191.17 567.508H1189.01V563.461H1191.17V567.508Z" fill="#333333"/>
<path d="M216.502 770.161C175.041 755.043 137.918 729.991 108.382 697.2C78.8466 664.409 57.7992 624.878 47.0822 582.067C36.3652 539.256 36.3054 494.471 46.9081 451.632C57.5107 408.793 78.4526 369.206 107.901 336.336" stroke="#008944" stroke-opacity="0.5" stroke-width="2" stroke-linecap="round" stroke-dasharray="5 5"/>
<path d="M1033.96 241.52C1077.01 231.804 1121.78 232.788 1164.36 244.386C1206.94 255.985 1246.03 277.844 1278.2 308.05C1310.38 338.256 1334.66 375.889 1348.92 417.653C1363.18 459.418 1366.98 504.041 1360 547.616" stroke="#008944" stroke-opacity="0.5" stroke-width="2" stroke-linecap="round" stroke-dasharray="5 5"/>
<path d="M419.002 381.5C333 290.5 135.503 337 129.503 503C124.641 637.505 232.499 687 306.499 687C549 687 462 334 703.003 334C774.504 334 814.003 372 831.003 394" stroke="#008944" stroke-width="3" stroke-linecap="round"/>
<path d="M979 644C1083.5 747.5 1276 679.109 1276 513C1276 374 1166.5 329 1092.5 329C865 329 948.5 691.5 698.998 691.5C627.497 691.5 592.498 648 575.498 626" stroke="#008944" stroke-width="3" stroke-linecap="round"/>
<circle cx="421" cy="383.5" r="6" fill="#008944"/>
<circle cx="575" cy="625.5" r="6" fill="#008944"/>
<circle cx="831" cy="395.5" r="6" fill="#008944"/>
<circle cx="980" cy="643.5" r="6" fill="#008944"/>
<path d="M222.396 531.938H216.162V530.16H222.396V531.938ZM223.326 541.262H221.166V523.434H223.326V541.262ZM224.01 547.195H207.713V545.391H224.01V547.195ZM209.873 546.266H207.713V539.648H209.873V546.266ZM211.24 528.438C211.24 529.878 210.953 531.245 210.379 532.539C209.805 533.833 209.003 534.964 207.973 535.93C206.943 536.896 205.753 537.634 204.404 538.145L203.283 536.395C204.468 535.975 205.53 535.36 206.469 534.549C207.408 533.738 208.141 532.803 208.67 531.746C209.199 530.689 209.463 529.586 209.463 528.438V526.441H211.24V528.438ZM211.623 528.438C211.623 529.477 211.878 530.488 212.389 531.473C212.899 532.457 213.605 533.332 214.508 534.098C215.41 534.863 216.445 535.447 217.611 535.848L216.49 537.57C215.178 537.096 214.025 536.399 213.031 535.479C212.038 534.558 211.263 533.487 210.707 532.266C210.151 531.044 209.873 529.768 209.873 528.438V526.441H211.623V528.438ZM217.064 527.18H203.967V525.402H217.064V527.18ZM250.041 529.094H245.693V527.316H250.041V529.094ZM250.041 534.207H245.693V532.402H250.041V534.207ZM230.354 535.109C232.742 535.109 234.792 535.055 236.506 534.945C238.219 534.836 239.988 534.626 241.811 534.316L242.029 536.094C240.188 536.404 238.393 536.613 236.643 536.723C234.893 536.832 232.796 536.887 230.354 536.887H228.467V535.109H230.354ZM239.432 531.582H230.572V536.012H228.467V529.887H237.326V526.633H228.412V524.883H239.432V531.582ZM246.377 538.199H244.244V523.434H246.377V538.199ZM246.377 547.715H244.244V541.234H230.463V539.484H246.377V547.715ZM271.615 536.039H269.51V523.406H271.615V536.039ZM271.643 543.012H257.998V546.512H255.893V541.398H269.51V538.91H255.838V537.215H271.643V543.012ZM272.518 547.441H255.893V545.719H272.518V547.441ZM259.912 526.852C259.912 528.255 259.62 529.572 259.037 530.803C258.454 532.033 257.633 533.104 256.576 534.016C255.519 534.927 254.307 535.611 252.939 536.066L251.928 534.371C253.149 533.97 254.229 533.387 255.168 532.621C256.107 531.855 256.84 530.976 257.369 529.982C257.898 528.989 258.162 527.945 258.162 526.852V525.539H259.912V526.852ZM260.322 526.852C260.322 527.891 260.587 528.88 261.115 529.818C261.644 530.757 262.382 531.577 263.33 532.279C264.278 532.981 265.363 533.514 266.584 533.879L265.518 535.547C264.169 535.109 262.97 534.467 261.922 533.619C260.874 532.771 260.058 531.764 259.475 530.598C258.891 529.431 258.6 528.182 258.6 526.852V525.539H260.322V526.852ZM265.928 526.578H252.475V524.801H265.928V526.578ZM294.748 542.438H292.588V523.406H294.748V542.438ZM298.385 533.742H293.846V531.938H298.385V533.742ZM295.623 547.195H279.299V545.391H295.623V547.195ZM281.459 545.965H279.299V541.152H281.459V545.965ZM284.385 538.609H282.252V535.301H284.385V538.609ZM275.662 537.871C278.524 537.871 281.249 537.812 283.838 537.693C286.426 537.575 288.842 537.342 291.084 536.996L291.275 538.527C289.671 538.819 287.976 539.047 286.189 539.211C284.403 539.375 282.712 539.48 281.117 539.525C279.522 539.571 277.786 539.603 275.908 539.621L275.662 537.871ZM290.346 527.426H276.264V525.812H290.346V527.426ZM283.291 528.492C284.439 528.492 285.442 528.638 286.299 528.93C287.156 529.221 287.821 529.65 288.295 530.215C288.769 530.78 289.006 531.454 289.006 532.238C289.006 532.986 288.769 533.642 288.295 534.207C287.821 534.772 287.156 535.205 286.299 535.506C285.442 535.807 284.439 535.957 283.291 535.957C282.161 535.957 281.167 535.807 280.311 535.506C279.454 535.205 278.788 534.772 278.314 534.207C277.84 533.642 277.604 532.986 277.604 532.238C277.604 531.454 277.84 530.785 278.314 530.229C278.788 529.673 279.454 529.244 280.311 528.943C281.167 528.643 282.161 528.492 283.291 528.492ZM283.291 530.023C282.562 530.023 281.924 530.11 281.377 530.283C280.83 530.456 280.406 530.712 280.105 531.049C279.805 531.386 279.654 531.783 279.654 532.238C279.654 532.676 279.805 533.059 280.105 533.387C280.406 533.715 280.83 533.97 281.377 534.152C281.924 534.335 282.562 534.426 283.291 534.426C284.038 534.426 284.686 534.335 285.232 534.152C285.779 533.97 286.203 533.715 286.504 533.387C286.805 533.059 286.955 532.676 286.955 532.238C286.955 531.783 286.809 531.386 286.518 531.049C286.226 530.712 285.802 530.456 285.246 530.283C284.69 530.11 284.038 530.023 283.291 530.023ZM284.385 526.578H282.252V523.352H284.385V526.578ZM318.455 526.496H302.787V524.719H318.455V526.496ZM322.229 535.902H299.971V534.18H322.229V535.902ZM312.221 541.781H310.115V535.191H312.221V541.781ZM319.303 526.633C319.303 528.182 319.257 529.577 319.166 530.816C319.075 532.056 318.856 533.487 318.51 535.109L316.377 534.836C316.632 533.742 316.814 532.717 316.924 531.76C317.033 530.803 317.102 529.955 317.129 529.217C317.156 528.479 317.17 527.617 317.17 526.633V524.719H319.303V526.633ZM319.822 547.195H302.787V545.391H319.822V547.195ZM304.947 545.91H302.787V539.594H304.947V545.91ZM338.799 534.672H334.123V532.895H338.799V534.672ZM345.006 547.715H342.928V523.406H345.006V547.715ZM340.111 546.484H338.061V523.926H340.111V546.484ZM329.693 525.457C330.751 525.457 331.671 525.799 332.455 526.482C333.239 527.166 333.85 528.146 334.287 529.422C334.725 530.698 334.943 532.193 334.943 533.906C334.943 535.602 334.725 537.087 334.287 538.363C333.85 539.639 333.239 540.624 332.455 541.316C331.671 542.009 330.751 542.355 329.693 542.355C328.654 542.355 327.738 542.009 326.945 541.316C326.152 540.624 325.542 539.639 325.113 538.363C324.685 537.087 324.471 535.602 324.471 533.906C324.471 532.193 324.685 530.698 325.113 529.422C325.542 528.146 326.152 527.166 326.945 526.482C327.738 525.799 328.654 525.457 329.693 525.457ZM329.693 527.48C329.037 527.48 328.467 527.74 327.984 528.26C327.501 528.779 327.132 529.522 326.877 530.488C326.622 531.454 326.494 532.594 326.494 533.906C326.494 535.201 326.622 536.331 326.877 537.297C327.132 538.263 327.506 539.006 327.998 539.525C328.49 540.045 329.055 540.305 329.693 540.305C330.35 540.305 330.919 540.045 331.402 539.525C331.885 539.006 332.259 538.263 332.523 537.297C332.788 536.331 332.92 535.201 332.92 533.906C332.92 532.594 332.788 531.454 332.523 530.488C332.259 529.522 331.885 528.779 331.402 528.26C330.919 527.74 330.35 527.48 329.693 527.48ZM376.178 547.715H374.127V523.406H376.178V547.715ZM374.674 534.973H369.916V533.195H374.674V534.973ZM370.545 546.457H368.576V523.953H370.545V546.457ZM357.857 539.867C359.844 539.867 361.494 539.822 362.807 539.73C364.119 539.639 365.45 539.457 366.799 539.184L366.99 540.988C365.605 541.262 364.242 541.449 362.902 541.549C361.562 541.649 359.881 541.699 357.857 541.699H356.299V539.867H357.857ZM365.404 528.164H358.432V540.715H356.299V526.387H365.404V528.164ZM398.6 541.645H396.467V523.434H398.6V541.645ZM402.264 533.25H397.916V531.445H402.264V533.25ZM394.143 528.164H379.65V526.414H394.143V528.164ZM386.896 529.504C388.045 529.504 389.061 529.691 389.945 530.064C390.829 530.438 391.518 530.967 392.01 531.65C392.502 532.334 392.748 533.132 392.748 534.043C392.748 534.936 392.502 535.72 392.01 536.395C391.518 537.069 390.829 537.593 389.945 537.967C389.061 538.34 388.045 538.527 386.896 538.527C385.748 538.527 384.727 538.34 383.834 537.967C382.941 537.593 382.253 537.069 381.77 536.395C381.286 535.72 381.045 534.936 381.045 534.043C381.045 533.132 381.286 532.334 381.77 531.65C382.253 530.967 382.941 530.438 383.834 530.064C384.727 529.691 385.748 529.504 386.896 529.504ZM386.896 531.199C386.149 531.199 385.484 531.313 384.9 531.541C384.317 531.769 383.87 532.102 383.561 532.539C383.251 532.977 383.096 533.478 383.096 534.043C383.096 534.608 383.251 535.1 383.561 535.52C383.87 535.939 384.317 536.262 384.9 536.49C385.484 536.718 386.149 536.832 386.896 536.832C387.644 536.832 388.309 536.718 388.893 536.49C389.476 536.262 389.927 535.939 390.246 535.52C390.565 535.1 390.725 534.608 390.725 534.043C390.725 533.478 390.565 532.977 390.246 532.539C389.927 532.102 389.476 531.769 388.893 531.541C388.309 531.313 387.644 531.199 386.896 531.199ZM387.963 527.316H385.83V523.434H387.963V527.316ZM399.721 547.195H383.396V545.391H399.721V547.195ZM385.502 546.129H383.396V540.195H385.502V546.129ZM258.258 563.953H252.051V562.148H258.258V563.953ZM247.402 560.918C247.402 562.449 247.12 563.894 246.555 565.252C245.99 566.61 245.201 567.795 244.189 568.807C243.178 569.818 241.997 570.598 240.648 571.145L239.5 569.395C240.703 568.939 241.77 568.283 242.699 567.426C243.629 566.569 244.358 565.576 244.887 564.445C245.415 563.315 245.68 562.139 245.68 560.918V557.91H247.402V560.918ZM247.785 561C247.785 562.112 248.04 563.192 248.551 564.24C249.061 565.288 249.772 566.214 250.684 567.016C251.595 567.818 252.634 568.438 253.801 568.875L252.598 570.543C251.322 570.033 250.191 569.299 249.207 568.342C248.223 567.385 247.452 566.273 246.896 565.006C246.34 563.739 246.062 562.404 246.062 561V557.91H247.785V561ZM259.625 574.645H257.465V556.434H259.625V574.645ZM260.172 580.195H243.902V578.391H260.172V580.195ZM246.062 579.184H243.902V572.566H246.062V579.184ZM266.297 568.082C268.339 568.082 270.007 568.036 271.301 567.945C272.595 567.854 273.889 567.681 275.184 567.426L275.402 569.203C274.017 569.458 272.668 569.636 271.355 569.736C270.043 569.837 268.357 569.887 266.297 569.887H264.766V568.082H266.297ZM274.199 559.988H266.816V569.039H264.766V558.184H274.199V559.988ZM273.926 564.719H266.16V563.023H273.926V564.719ZM284.316 571.172H282.266V556.434H284.316V571.172ZM282.922 564.527H278.246V562.777H282.922V564.527ZM278.848 571.008H276.852V556.898H278.848V571.008ZM284.316 580.715H282.211V574.18H267.938V572.43H284.316V580.715ZM300.094 560.863H288.992V559.113H300.094V560.863ZM294.98 574.289H292.875V566.059H294.98V574.289ZM301.352 560.371C301.333 561.52 301.315 562.472 301.297 563.229C301.279 563.985 301.219 564.96 301.119 566.154C301.019 567.348 300.859 568.638 300.641 570.023L298.48 569.832C298.79 567.9 298.986 566.209 299.068 564.76C299.15 563.311 299.191 561.848 299.191 560.371V559.113H301.352V560.371ZM306.629 580.715H304.496V556.406H306.629V580.715ZM310.566 568.438H306.055V566.578H310.566V568.438ZM287.625 573.578C290.578 573.56 293.317 573.501 295.842 573.4C298.367 573.3 300.741 573.122 302.965 572.867L303.074 574.48C300.777 574.827 298.344 575.064 295.773 575.191C293.203 575.319 290.578 575.374 287.898 575.355L287.625 573.578ZM327.438 560.426C327.438 561.811 327.146 563.119 326.562 564.35C325.979 565.58 325.163 566.646 324.115 567.549C323.067 568.451 321.868 569.139 320.52 569.613L319.398 567.918C320.62 567.535 321.704 566.965 322.652 566.209C323.6 565.452 324.343 564.573 324.881 563.57C325.419 562.568 325.688 561.52 325.688 560.426V558.512H327.438V560.426ZM327.848 560.426C327.848 561.465 328.117 562.458 328.654 563.406C329.192 564.354 329.935 565.184 330.883 565.895C331.831 566.605 332.906 567.143 334.109 567.508L333.016 569.203C331.667 568.766 330.468 568.118 329.42 567.262C328.372 566.405 327.551 565.384 326.959 564.199C326.367 563.014 326.07 561.757 326.07 560.426V558.512H327.848V560.426ZM333.453 559.797H320V558.047H333.453V559.797ZM339.168 569.559H337.035V556.406H339.168V569.559ZM325.551 573.715H337.035V570.762H339.168V580.387H323.418V570.762H325.551V573.715ZM337.035 578.637V575.438H325.551V578.637H337.035ZM355.41 572.785H353.305V568.547H355.41V572.785ZM365.445 569.559H343.297V567.781H365.445V569.559ZM354.371 572.129C356.121 572.129 357.62 572.293 358.869 572.621C360.118 572.949 361.075 573.437 361.74 574.084C362.406 574.731 362.738 575.51 362.738 576.422C362.738 577.315 362.406 578.076 361.74 578.705C361.075 579.334 360.118 579.817 358.869 580.154C357.62 580.492 356.121 580.66 354.371 580.66C352.621 580.66 351.117 580.492 349.859 580.154C348.602 579.817 347.64 579.334 346.975 578.705C346.309 578.076 345.977 577.315 345.977 576.422C345.977 575.51 346.309 574.731 346.975 574.084C347.64 573.437 348.602 572.949 349.859 572.621C351.117 572.293 352.621 572.129 354.371 572.129ZM354.371 573.797C353.077 573.797 351.965 573.902 351.035 574.111C350.105 574.321 349.395 574.622 348.902 575.014C348.41 575.406 348.164 575.875 348.164 576.422C348.164 576.951 348.41 577.406 348.902 577.789C349.395 578.172 350.105 578.468 351.035 578.678C351.965 578.887 353.077 578.992 354.371 578.992C355.647 578.992 356.755 578.887 357.693 578.678C358.632 578.468 359.348 578.172 359.84 577.789C360.332 577.406 360.578 576.951 360.578 576.422C360.578 575.875 360.332 575.406 359.84 575.014C359.348 574.622 358.637 574.321 357.707 574.111C356.777 573.902 355.665 573.797 354.371 573.797ZM354.891 559.141C354.891 560.398 354.453 561.533 353.578 562.545C352.703 563.557 351.536 564.382 350.078 565.02C348.62 565.658 347.034 566.086 345.32 566.305L344.555 564.609C346.013 564.445 347.389 564.108 348.684 563.598C349.978 563.087 351.017 562.44 351.801 561.656C352.585 560.872 352.977 560.034 352.977 559.141V558.402H354.891V559.141ZM355.766 559.141C355.766 560.034 356.158 560.872 356.941 561.656C357.725 562.44 358.764 563.087 360.059 563.598C361.353 564.108 362.738 564.445 364.215 564.609L363.422 566.305C361.727 566.086 360.15 565.658 358.691 565.02C357.233 564.382 356.062 563.557 355.178 562.545C354.294 561.533 353.852 560.398 353.852 559.141V558.402H355.766V559.141ZM363.477 559.305H345.32V557.555H363.477V559.305Z" fill="#333333"/>
</g>
<defs>
<filter id="filter0_dii_2399_4972" x="65" y="256.5" width="1270" height="505" filterUnits="userSpaceOnUse" color-interpolation-filters="sRGB">
<feFlood flood-opacity="0" result="BackgroundImageFix"/>
<feColorMatrix in="SourceAlpha" type="matrix" values="0 0 0 0 0 0 0 0 0 0 0 0 0 0 0 0 0 0 127 0" result="hardAlpha"/>
<feOffset dy="3"/>
<feGaussianBlur stdDeviation="3"/>
<feComposite in2="hardAlpha" operator="out"/>
<feColorMatrix type="matrix" values="0 0 0 0 1 0 0 0 0 1 0 0 0 0 1 0 0 0 1 0"/>
<feBlend mode="normal" in2="BackgroundImageFix" result="effect1_dropShadow_2399_4972"/>
<feBlend mode="normal" in="SourceGraphic" in2="effect1_dropShadow_2399_4972" result="shape"/>
<feColorMatrix in="SourceAlpha" type="matrix" values="0 0 0 0 0 0 0 0 0 0 0 0 0 0 0 0 0 0 127 0" result="hardAlpha"/>
<feOffset dx="6" dy="12"/>
<feGaussianBlur stdDeviation="15"/>
<feComposite in2="hardAlpha" operator="arithmetic" k2="-1" k3="1"/>
<feColorMatrix type="matrix" values="0 0 0 0 0 0 0 0 0 0 0 0 0 0 0 0 0 0 0.3 0"/>
<feBlend mode="normal" in2="shape" result="effect2_innerShadow_2399_4972"/>
<feColorMatrix in="SourceAlpha" type="matrix" values="0 0 0 0 0 0 0 0 0 0 0 0 0 0 0 0 0 0 127 0" result="hardAlpha"/>
<feOffset dx="-6" dy="-6"/>
<feGaussianBlur stdDeviation="15"/>
<feComposite in2="hardAlpha" operator="arithmetic" k2="-1" k3="1"/>
<feColorMatrix type="matrix" values="0 0 0 0 1 0 0 0 0 1 0 0 0 0 1 0 0 0 0.7 0"/>
<feBlend mode="normal" in2="effect2_innerShadow_2399_4972" result="effect3_innerShadow_2399_4972"/>
</filter>
<filter id="filter1_d_2399_4972" x="155" y="358.5" width="304" height="304" filterUnits="userSpaceOnUse" color-interpolation-filters="sRGB">
<feFlood flood-opacity="0" result="BackgroundImageFix"/>
<feColorMatrix in="SourceAlpha" type="matrix" values="0 0 0 0 0 0 0 0 0 0 0 0 0 0 0 0 0 0 127 0" result="hardAlpha"/>
<feOffset dx="4" dy="4"/>
<feGaussianBlur stdDeviation="6"/>
<feComposite in2="hardAlpha" operator="out"/>
<feColorMatrix type="matrix" values="0 0 0 0 0 0 0 0 0 0 0 0 0 0 0 0 0 0 0.1 0"/>
<feBlend mode="normal" in2="BackgroundImageFix" result="effect1_dropShadow_2399_4972"/>
<feBlend mode="normal" in="SourceGraphic" in2="effect1_dropShadow_2399_4972" result="shape"/>
</filter>
<filter id="filter2_d_2399_4972" x="552" y="358.5" width="304" height="304" filterUnits="userSpaceOnUse" color-interpolation-filters="sRGB">
<feFlood flood-opacity="0" result="BackgroundImageFix"/>
<feColorMatrix in="SourceAlpha" type="matrix" values="0 0 0 0 0 0 0 0 0 0 0 0 0 0 0 0 0 0 127 0" result="hardAlpha"/>
<feOffset dx="4" dy="4"/>
<feGaussianBlur stdDeviation="6"/>
<feComposite in2="hardAlpha" operator="out"/>
<feColorMatrix type="matrix" values="0 0 0 0 0 0 0 0 0 0 0 0 0 0 0 0 0 0 0.1 0"/>
<feBlend mode="normal" in2="BackgroundImageFix" result="effect1_dropShadow_2399_4972"/>
<feBlend mode="normal" in="SourceGraphic" in2="effect1_dropShadow_2399_4972" result="shape"/>
</filter>
<filter id="filter3_d_2399_4972" x="949" y="358.5" width="304" height="304" filterUnits="userSpaceOnUse" color-interpolation-filters="sRGB">
<feFlood flood-opacity="0" result="BackgroundImageFix"/>
<feColorMatrix in="SourceAlpha" type="matrix" values="0 0 0 0 0 0 0 0 0 0 0 0 0 0 0 0 0 0 127 0" result="hardAlpha"/>
<feOffset dx="4" dy="4"/>
<feGaussianBlur stdDeviation="6"/>
<feComposite in2="hardAlpha" operator="out"/>
<feColorMatrix type="matrix" values="0 0 0 0 0 0 0 0 0 0 0 0 0 0 0 0 0 0 0.1 0"/>
<feBlend mode="normal" in2="BackgroundImageFix" result="effect1_dropShadow_2399_4972"/>
<feBlend mode="normal" in="SourceGraphic" in2="effect1_dropShadow_2399_4972" result="shape"/>
</filter>
<clipPath id="clip0_2399_4972">
<rect width="1420" height="678" fill="white" transform="translate(0 148.5)"/>
</clipPath>
</defs>
</svg>
