<svg width="336" height="424" viewBox="0 0 336 424" fill="none" xmlns="http://www.w3.org/2000/svg">
<g clip-path="url(#clip0_2400_5048)">
<rect width="336" height="424" fill="white"/>
<path d="M24 17V18H312V17V16H24V17ZM312 61V60H24V61V62H312V61Z" fill="#008944"/>
<path d="M25.5625 31.8594H30.3672C31.4479 31.8594 32.3496 32.0417 33.0723 32.4062C33.7949 32.7708 34.3288 33.2819 34.6738 33.9395C35.0189 34.597 35.1914 35.3555 35.1914 36.2148C35.1914 37.0612 35.0189 37.8066 34.6738 38.4512C34.3288 39.0957 33.7949 39.6003 33.0723 39.9648C32.3496 40.3294 31.4544 40.5117 30.3867 40.5117H26.5195V38.9102H30.3086C31.0508 38.9102 31.653 38.8027 32.1152 38.5879C32.5775 38.373 32.916 38.0671 33.1309 37.6699C33.3457 37.2728 33.4531 36.7878 33.4531 36.2148C33.4531 35.6289 33.3457 35.1276 33.1309 34.7109C32.916 34.2943 32.5742 33.9753 32.1055 33.7539C31.6367 33.5326 31.0312 33.4219 30.2891 33.4219H27.3203V46H25.5625V31.8594ZM35.7383 46H33.6875L30.2695 39.6523H32.2617L35.7383 46ZM41.5195 46.1953C40.6211 46.1953 39.8301 46.026 39.1465 45.6875C38.4629 45.349 37.9355 44.8802 37.5645 44.2812C37.1934 43.6823 37.0078 43.0052 37.0078 42.25C37.0078 41.6771 37.1283 41.166 37.3691 40.7168C37.61 40.2676 37.9388 39.8509 38.3555 39.4668C38.7721 39.0827 39.306 38.6693 39.957 38.2266L42.0469 36.6836C42.4896 36.3841 42.8184 36.0879 43.0332 35.7949C43.248 35.502 43.3555 35.1341 43.3555 34.6914C43.3555 34.444 43.2839 34.2031 43.1406 33.9688C42.9974 33.7344 42.7956 33.5423 42.5352 33.3926C42.2747 33.2428 41.9818 33.168 41.6562 33.168C41.3177 33.168 41.0085 33.2526 40.7285 33.4219C40.4486 33.5911 40.2305 33.8158 40.0742 34.0957C39.918 34.3757 39.8398 34.6654 39.8398 34.9648C39.8398 35.2383 39.9115 35.5247 40.0547 35.8242C40.1979 36.1237 40.3737 36.4134 40.582 36.6934C40.7904 36.9733 41.0703 37.3281 41.4219 37.7578C41.513 37.862 41.6042 37.9727 41.6953 38.0898L48.1992 46H46.1875L40.8164 39.5547C40.6341 39.3333 40.4518 39.112 40.2695 38.8906C39.7617 38.2917 39.3711 37.8034 39.0977 37.4258C38.8242 37.0482 38.5996 36.6543 38.4238 36.2441C38.248 35.834 38.1602 35.401 38.1602 34.9453C38.1602 34.3073 38.3034 33.7441 38.5898 33.2559C38.8763 32.7676 39.2767 32.39 39.791 32.123C40.3053 31.8561 40.9076 31.7227 41.5977 31.7227C42.2878 31.7227 42.8932 31.8561 43.4141 32.123C43.9349 32.39 44.3353 32.748 44.6152 33.1973C44.8952 33.6465 45.0352 34.1445 45.0352 34.6914C45.0352 35.3294 44.8789 35.8958 44.5664 36.3906C44.2539 36.8854 43.7852 37.3672 43.1602 37.8359L40.3477 39.9453C39.957 40.2188 39.6413 40.5052 39.4004 40.8047C39.1595 41.1042 38.987 41.3776 38.8828 41.625C38.7786 41.8724 38.7266 42.0807 38.7266 42.25C38.7266 42.6797 38.8438 43.0833 39.0781 43.4609C39.3125 43.8385 39.638 44.1413 40.0547 44.3691C40.4714 44.597 40.9466 44.7109 41.4805 44.7109C42.1966 44.7109 42.8835 44.5059 43.541 44.0957C44.1986 43.6855 44.7324 43.1061 45.1426 42.3574C45.5527 41.6087 45.7578 40.7526 45.7578 39.7891H47.3789C47.3789 40.6354 47.2812 41.3581 47.0859 41.957C46.8906 42.556 46.6725 43.0215 46.4316 43.3535C46.1908 43.6855 45.9206 43.9948 45.6211 44.2812C45.569 44.3594 45.5169 44.4245 45.4648 44.4766C45.4518 44.5156 45.429 44.5514 45.3965 44.584C45.3639 44.6165 45.3346 44.6523 45.3086 44.6914C44.8659 45.1732 44.3027 45.5443 43.6191 45.8047C42.9355 46.0651 42.2357 46.1953 41.5195 46.1953ZM50.8945 46V44.4375H54.1953C55.3411 44.4375 56.2949 44.2161 57.0566 43.7734C57.8184 43.3307 58.388 42.6992 58.7656 41.8789C59.1432 41.0586 59.332 40.069 59.332 38.9102C59.332 37.7643 59.1465 36.7812 58.7754 35.9609C58.4043 35.1406 57.8509 34.5124 57.1152 34.0762C56.3796 33.64 55.4648 33.4219 54.3711 33.4219H50.8164V31.8594H54.4883C55.8555 31.8594 57.0306 32.1393 58.0137 32.6992C58.9967 33.2591 59.7487 34.0697 60.2695 35.1309C60.7904 36.1921 61.0508 37.4518 61.0508 38.9102C61.0508 40.3815 60.7871 41.6478 60.2598 42.709C59.7324 43.7702 58.9642 44.584 57.9551 45.1504C56.946 45.7168 55.7318 46 54.3125 46H50.8945ZM51.6758 46H49.918V31.8594H51.6758V46ZM71.4219 41.918H69.918V38.8906H71.4219V41.918ZM78.5898 39.6133H62.7695V38.3438H78.5898V39.6133ZM70.6797 41.4492C71.9297 41.4492 73.0007 41.5664 73.8926 41.8008C74.7845 42.0352 75.4681 42.3835 75.9434 42.8457C76.4186 43.3079 76.6562 43.8646 76.6562 44.5156C76.6562 45.1536 76.4186 45.6973 75.9434 46.1465C75.4681 46.5957 74.7845 46.9408 73.8926 47.1816C73.0007 47.4225 71.9297 47.543 70.6797 47.543C69.4297 47.543 68.3555 47.4225 67.457 47.1816C66.5586 46.9408 65.8717 46.5957 65.3965 46.1465C64.9212 45.6973 64.6836 45.1536 64.6836 44.5156C64.6836 43.8646 64.9212 43.3079 65.3965 42.8457C65.8717 42.3835 66.5586 42.0352 67.457 41.8008C68.3555 41.5664 69.4297 41.4492 70.6797 41.4492ZM70.6797 42.6406C69.7552 42.6406 68.9609 42.7155 68.2969 42.8652C67.6328 43.015 67.125 43.2298 66.7734 43.5098C66.4219 43.7897 66.2461 44.125 66.2461 44.5156C66.2461 44.8932 66.4219 45.2188 66.7734 45.4922C67.125 45.7656 67.6328 45.9772 68.2969 46.127C68.9609 46.2767 69.7552 46.3516 70.6797 46.3516C71.5911 46.3516 72.3822 46.2767 73.0527 46.127C73.7233 45.9772 74.2344 45.7656 74.5859 45.4922C74.9375 45.2188 75.1133 44.8932 75.1133 44.5156C75.1133 44.125 74.9375 43.7897 74.5859 43.5098C74.2344 43.2298 73.7266 43.015 73.0625 42.8652C72.3984 42.7155 71.6042 42.6406 70.6797 42.6406ZM71.0508 32.1719C71.0508 33.0703 70.7383 33.8809 70.1133 34.6035C69.4883 35.3262 68.6549 35.9154 67.6133 36.3711C66.5716 36.8268 65.4388 37.1328 64.2148 37.2891L63.668 36.0781C64.7096 35.9609 65.6927 35.7201 66.6172 35.3555C67.5417 34.9909 68.2839 34.5286 68.8438 33.9688C69.4036 33.4089 69.6836 32.8099 69.6836 32.1719V31.6445H71.0508V32.1719ZM71.6758 32.1719C71.6758 32.8099 71.9557 33.4089 72.5156 33.9688C73.0755 34.5286 73.8177 34.9909 74.7422 35.3555C75.6667 35.7201 76.6562 35.9609 77.7109 36.0781L77.1445 37.2891C75.9336 37.1328 74.8073 36.8268 73.7656 36.3711C72.724 35.9154 71.8874 35.3262 71.2559 34.6035C70.6243 33.8809 70.3086 33.0703 70.3086 32.1719V31.6445H71.6758V32.1719ZM77.1836 32.2891H64.2148V31.0391H77.1836V32.2891ZM94.3906 40.1016H92.8672V30.2383H94.3906V40.1016ZM94.3906 47.3477H83.1016V41.0977H94.3906V47.3477ZM84.6055 46.0977H92.8867V42.3477H84.6055V46.0977ZM85.9336 32.6211C85.9336 33.6758 85.7253 34.6719 85.3086 35.6094C84.8919 36.5469 84.3092 37.3639 83.5605 38.0605C82.8118 38.7572 81.9492 39.2878 80.9727 39.6523L80.1914 38.4414C81.0638 38.1289 81.8385 37.6797 82.5156 37.0938C83.1927 36.5078 83.7168 35.8242 84.0879 35.043C84.459 34.2617 84.6445 33.4544 84.6445 32.6211V30.9219H85.9336V32.6211ZM86.207 32.6211C86.207 33.4154 86.3958 34.1803 86.7734 34.916C87.151 35.6517 87.6751 36.2995 88.3457 36.8594C89.0163 37.4193 89.7747 37.849 90.6211 38.1484L89.8398 39.3203C88.8893 38.9818 88.0397 38.4837 87.291 37.8262C86.5423 37.1686 85.9596 36.3939 85.543 35.502C85.1263 34.61 84.918 33.6497 84.918 32.6211V30.9219H86.207V32.6211ZM115.66 32.2305H104.371V30.9805H115.66V32.2305ZM118.258 37.9531H102.359V36.7227H118.258V37.9531ZM116.168 32.0938C116.168 32.9792 116.142 33.7962 116.09 34.5449C116.038 35.2936 115.908 36.1432 115.699 37.0938L114.195 36.918C114.391 35.9805 114.514 35.1536 114.566 34.4375C114.618 33.7214 114.645 32.9401 114.645 32.0938V30.9805H116.168V32.0938ZM116.227 44.0859H105.816V46.5469H104.273V42.875H114.703V40.9414H104.254V39.7109H116.227V44.0859ZM116.676 47.3867H104.273V46.1367H116.676V47.3867ZM135.543 45.4336H119.645V44.1445H135.543V45.4336ZM128.297 44.7109H126.793V40.4141H128.297V44.7109ZM133.531 36.7617H123.16V40.2773H121.637V35.5117H132.027V32.7773H121.598V31.5078H133.531V36.7617ZM133.941 40.8633H121.637V39.5938H133.941V40.8633ZM150.289 35.375H145.23V34.0859H150.289V35.375ZM151.305 39.2812H149.781V30.2188H151.305V39.2812ZM151.305 44.2227H141.617V46.8789H140.094V43.0508H149.781V41.3516H140.055V40.1211H151.305V44.2227ZM151.969 47.3477H140.094V46.1172H151.969V47.3477ZM139.332 33.5195H144.176V31.0391H145.68V38.5781H137.809V31.0391H139.332V33.5195ZM144.176 37.3281V34.75H139.332V37.3281H144.176ZM169.078 33.2852H159.254V32.0156H169.078V33.2852ZM164.215 34.2422C164.983 34.2422 165.667 34.3789 166.266 34.6523C166.865 34.9258 167.333 35.3066 167.672 35.7949C168.01 36.2832 168.18 36.8464 168.18 37.4844C168.18 38.1094 168.01 38.6693 167.672 39.1641C167.333 39.6589 166.865 40.043 166.266 40.3164C165.667 40.5898 164.983 40.7331 164.215 40.7461C163.46 40.7331 162.783 40.5898 162.184 40.3164C161.585 40.043 161.119 39.6589 160.787 39.1641C160.455 38.6693 160.289 38.1094 160.289 37.4844C160.289 36.8464 160.455 36.2832 160.787 35.7949C161.119 35.3066 161.585 34.9258 162.184 34.6523C162.783 34.3789 163.46 34.2422 164.215 34.2422ZM164.215 35.4336C163.733 35.4336 163.3 35.5215 162.916 35.6973C162.532 35.873 162.236 36.1139 162.027 36.4199C161.819 36.7259 161.715 37.0807 161.715 37.4844C161.715 37.875 161.819 38.2266 162.027 38.5391C162.236 38.8516 162.532 39.0924 162.916 39.2617C163.3 39.431 163.733 39.5156 164.215 39.5156C164.71 39.5156 165.149 39.431 165.533 39.2617C165.917 39.0924 166.217 38.8516 166.432 38.5391C166.646 38.2266 166.754 37.875 166.754 37.4844C166.754 37.0807 166.646 36.7259 166.432 36.4199C166.217 36.1139 165.917 35.873 165.533 35.6973C165.149 35.5215 164.71 35.4336 164.215 35.4336ZM164.996 32.8359H163.473V30.082H164.996V32.8359ZM173.629 41.2344H172.086V30.2188H173.629V41.2344ZM172.652 35.7461H169.078V34.5156H172.652V35.7461ZM172.652 39.0469H169.059V37.7578H172.652V39.0469ZM173.629 47.582H172.086V43.5H161.949V42.25H173.629V47.582ZM190.855 42.9727H189.332V30.2383H190.855V42.9727ZM191.402 47.2109H179.645V45.9219H191.402V47.2109ZM181.168 46.5469H179.645V41.8008H181.168V46.5469ZM182.398 32.9531C182.398 34.0729 182.193 35.1309 181.783 36.127C181.373 37.123 180.8 37.9954 180.064 38.7441C179.329 39.4928 178.486 40.0625 177.535 40.4531L176.695 39.2617C177.568 38.9232 178.339 38.4316 179.01 37.7871C179.68 37.1426 180.198 36.4004 180.562 35.5605C180.927 34.7207 181.109 33.8516 181.109 32.9531V31.2148H182.398V32.9531ZM182.672 32.9531C182.672 33.8125 182.854 34.6393 183.219 35.4336C183.583 36.2279 184.101 36.9277 184.771 37.5332C185.442 38.1387 186.201 38.5977 187.047 38.9102L186.246 40.1406C185.283 39.763 184.436 39.2227 183.707 38.5195C182.978 37.8164 182.408 36.9863 181.998 36.0293C181.588 35.0723 181.383 34.0469 181.383 32.9531V31.2148H182.672V32.9531ZM213.16 42.9727H211.637V30.2383H213.16V42.9727ZM213.707 47.2109H201.949V45.9219H213.707V47.2109ZM203.473 46.5469H201.949V41.8008H203.473V46.5469ZM204.703 32.9531C204.703 34.0729 204.498 35.1309 204.088 36.127C203.678 37.123 203.105 37.9954 202.369 38.7441C201.633 39.4928 200.79 40.0625 199.84 40.4531L199 39.2617C199.872 38.9232 200.644 38.4316 201.314 37.7871C201.985 37.1426 202.503 36.4004 202.867 35.5605C203.232 34.7207 203.414 33.8516 203.414 32.9531V31.2148H204.703V32.9531ZM204.977 32.9531C204.977 33.8125 205.159 34.6393 205.523 35.4336C205.888 36.2279 206.406 36.9277 207.076 37.5332C207.747 38.1387 208.505 38.5977 209.352 38.9102L208.551 40.1406C207.587 39.763 206.741 39.2227 206.012 38.5195C205.283 37.8164 204.713 36.9863 204.303 36.0293C203.893 35.0723 203.688 34.0469 203.688 32.9531V31.2148H204.977V32.9531ZM232.262 34.1641H229.234V32.9141H232.262V34.1641ZM232.262 37.9141H229.234V36.6055H232.262V37.9141ZM229.684 40.5508H228.16V30.2188H229.684V40.5508ZM229.684 47.582H228.16V42.6211H218.316V41.3516H229.684V47.582ZM220.992 31.2734C221.865 31.2604 222.646 31.4264 223.336 31.7715C224.026 32.1165 224.57 32.6016 224.967 33.2266C225.364 33.8516 225.562 34.5612 225.562 35.3555C225.562 36.1497 225.364 36.8594 224.967 37.4844C224.57 38.1094 224.026 38.5977 223.336 38.9492C222.646 39.3008 221.865 39.4766 220.992 39.4766C220.12 39.4766 219.339 39.3008 218.648 38.9492C217.958 38.5977 217.418 38.1094 217.027 37.4844C216.637 36.8594 216.441 36.1497 216.441 35.3555C216.441 34.5612 216.637 33.8548 217.027 33.2363C217.418 32.6178 217.958 32.1328 218.648 31.7812C219.339 31.4297 220.12 31.2604 220.992 31.2734ZM220.992 32.582C220.419 32.582 219.898 32.6992 219.43 32.9336C218.961 33.168 218.596 33.4935 218.336 33.9102C218.076 34.3268 217.945 34.8086 217.945 35.3555C217.945 35.9023 218.076 36.3874 218.336 36.8105C218.596 37.2337 218.961 37.5625 219.43 37.7969C219.898 38.0312 220.419 38.1484 220.992 38.1484C221.578 38.1484 222.105 38.0312 222.574 37.7969C223.043 37.5625 223.408 37.2337 223.668 36.8105C223.928 36.3874 224.059 35.9023 224.059 35.3555C224.059 34.8086 223.928 34.3268 223.668 33.9102C223.408 33.4935 223.043 33.168 222.574 32.9336C222.105 32.6992 221.578 32.582 220.992 32.582ZM253.238 47.582H251.734V30.2188H253.238V47.582ZM252.301 38.5H248.883V37.2305H252.301V38.5ZM245.895 32.4844C245.895 34.0469 245.686 35.515 245.27 36.8887C244.853 38.2624 244.16 39.5449 243.189 40.7363C242.219 41.9277 240.934 42.9661 239.332 43.8516L238.434 42.7773C239.866 41.9831 241.025 41.0651 241.91 40.0234C242.796 38.9818 243.437 37.8555 243.834 36.6445C244.231 35.4336 244.43 34.1315 244.43 32.7383V32.4844H245.895ZM244.938 33.7539H239.098V32.4844H244.938V33.7539ZM249.332 46.7227H247.867V30.6875H249.332V46.7227ZM257.945 33.4609H263.004V30.9609H264.527V38.5195H256.441V30.9609H257.945V33.4609ZM263.004 37.2695V34.6523H257.945V37.2695H263.004ZM269.273 39.2031H267.75V30.2188H269.273V39.2031ZM271.891 35.2773H268.59V33.9883H271.891V35.2773ZM269.273 44.2227H259.742V46.8398H258.238V43.0508H267.75V41.2539H258.199V40.0234H269.273V44.2227ZM269.918 47.3867H258.238V46.1367H269.918V47.3867ZM284.586 43.5H283.043V40.6289H284.586V43.5ZM292.242 47.582H290.719V30.2188H292.242V47.582ZM279.156 42.9531C281.148 42.9401 283.001 42.8945 284.713 42.8164C286.425 42.7383 288.043 42.6016 289.566 42.4062L289.684 43.5781C287.965 43.8516 286.174 44.0339 284.312 44.125C282.451 44.2161 280.458 44.2617 278.336 44.2617L278.102 42.9531H279.156ZM289.117 33.6172H278.473V32.3672H289.117V33.6172ZM283.785 34.6133C284.618 34.6133 285.351 34.7467 285.982 35.0137C286.614 35.2806 287.105 35.6549 287.457 36.1367C287.809 36.6185 287.984 37.1849 287.984 37.8359C287.984 38.474 287.809 39.0306 287.457 39.5059C287.105 39.9811 286.614 40.3522 285.982 40.6191C285.351 40.8861 284.618 41.0195 283.785 41.0195C282.965 41.0195 282.239 40.8893 281.607 40.6289C280.976 40.3685 280.488 39.9974 280.143 39.5156C279.798 39.0339 279.625 38.474 279.625 37.8359C279.625 37.1849 279.798 36.6185 280.143 36.1367C280.488 35.6549 280.976 35.2806 281.607 35.0137C282.239 34.7467 282.965 34.6133 283.785 34.6133ZM283.785 35.8047C283.264 35.8047 282.796 35.8893 282.379 36.0586C281.962 36.2279 281.637 36.4655 281.402 36.7715C281.168 37.0775 281.051 37.4323 281.051 37.8359C281.051 38.2266 281.168 38.5716 281.402 38.8711C281.637 39.1706 281.962 39.4017 282.379 39.5645C282.796 39.7272 283.264 39.8086 283.785 39.8086C284.319 39.8086 284.794 39.7305 285.211 39.5742C285.628 39.418 285.95 39.1868 286.178 38.8809C286.406 38.5749 286.52 38.2266 286.52 37.8359C286.52 37.4323 286.406 37.0775 286.178 36.7715C285.95 36.4655 285.628 36.2279 285.211 36.0586C284.794 35.8893 284.319 35.8047 283.785 35.8047ZM284.586 33.0312H283.043V30.2383H284.586V33.0312ZM300.855 34.8867C300.855 36.1367 300.644 37.3607 300.221 38.5586C299.798 39.7565 299.218 40.8177 298.482 41.7422C297.747 42.6667 296.923 43.3763 296.012 43.8711L295.035 42.6406C295.882 42.224 296.65 41.6055 297.34 40.7852C298.03 39.9648 298.58 39.0339 298.99 37.9922C299.4 36.9505 299.605 35.9154 299.605 34.8867V31.7227H300.855V34.8867ZM301.109 34.8867C301.109 35.8763 301.311 36.8691 301.715 37.8652C302.118 38.8613 302.665 39.75 303.355 40.5312C304.046 41.3125 304.794 41.9049 305.602 42.3086L304.664 43.5391C303.766 43.0573 302.952 42.3704 302.223 41.4785C301.493 40.5866 300.921 39.5645 300.504 38.4121C300.087 37.2598 299.879 36.0846 299.879 34.8867V31.7227H301.109V34.8867ZM308.727 47.582H307.203V30.2188H308.727V47.582ZM311.637 38.5977H308.375V37.2695H311.637V38.5977Z" fill="#008944"/>
<rect width="336" height="316" transform="translate(0 91)" fill="white"/>
<g filter="url(#filter0_ddii_2400_5048)">
<path d="M162.313 91C211.2 91.0002 250.831 130.631 250.831 179.518C250.831 189.681 249.116 199.443 245.964 208.533C290.393 213.264 325 250.864 325 296.548C325 345.435 285.369 385.065 236.482 385.065C205.552 385.065 178.327 369.201 162.5 345.166C146.673 369.201 119.448 385.065 88.5176 385.065C39.6307 385.065 8.24758e-05 345.435 0 296.548C0 250.988 34.4202 213.468 78.6748 208.572C75.5137 199.471 73.7949 189.695 73.7949 179.518C73.795 130.631 113.426 91 162.313 91Z" fill="white"/>
</g>
<line x1="132.562" y1="220.433" x2="106.611" y2="257.196" stroke="#008944" stroke-width="1.5"/>
<line x1="137" y1="304.25" x2="197" y2="304.25" stroke="#008944" stroke-width="1.5"/>
<line x1="219.831" y1="256.537" x2="194.382" y2="219.424" stroke="#008944" stroke-width="1.5"/>
<g filter="url(#filter1_d_2400_5048)">
<circle cx="161" cy="179" r="50" fill="#F1F1F1"/>
</g>
<path d="M159.49 162.356C158.395 161.926 157.442 161.343 156.632 160.607C155.822 159.87 155.181 159.005 154.709 158.009C154.236 157.014 154 155.95 154 154.818C154 153.264 154.446 151.828 155.339 150.513C156.231 149.197 157.442 148.191 158.972 147.495C158.987 147.755 159.017 148.017 159.062 148.283C159.107 148.549 159.182 148.859 159.287 149.214C158.207 149.814 157.356 150.608 156.734 151.597C156.111 152.585 155.8 153.659 155.8 154.818C155.8 156.645 156.498 158.193 157.893 159.461C159.288 160.73 160.99 161.364 163 161.364C165.01 161.364 166.712 160.73 168.107 159.461C169.502 158.193 170.2 156.645 170.2 154.818C170.2 153.659 169.889 152.582 169.266 151.586C168.644 150.591 167.785 149.793 166.69 149.193C166.795 148.839 166.87 148.528 166.915 148.262C166.96 147.997 166.997 147.741 167.027 147.495C168.558 148.191 169.769 149.193 170.661 150.502C171.554 151.811 172 153.25 172 154.818C172 155.95 171.764 157.014 171.291 158.009C170.819 159.005 170.178 159.87 169.368 160.607C168.558 161.343 167.605 161.926 166.51 162.356C165.415 162.785 164.245 163 163 163C161.755 163 160.585 162.785 159.49 162.356ZM159.175 158.295C158.125 157.341 157.6 156.182 157.6 154.818C157.6 154.027 157.791 153.284 158.174 152.589C158.556 151.893 159.1 151.314 159.805 150.85C159.88 151.055 159.962 151.29 160.052 151.556C160.142 151.822 160.262 152.152 160.412 152.548C160.082 152.861 159.831 153.209 159.659 153.591C159.486 153.973 159.4 154.382 159.4 154.818C159.4 155.718 159.752 156.489 160.458 157.13C161.163 157.77 162.01 158.091 163 158.091C163.99 158.091 164.837 157.77 165.542 157.13C166.247 156.489 166.6 155.718 166.6 154.818C166.6 154.382 166.514 153.973 166.341 153.591C166.169 153.209 165.917 152.861 165.587 152.548C165.707 152.22 165.816 151.917 165.914 151.638C166.011 151.358 166.098 151.095 166.173 150.85C166.878 151.314 167.425 151.893 167.815 152.589C168.205 153.284 168.4 154.027 168.4 154.818C168.4 156.182 167.875 157.341 166.825 158.295C165.775 159.25 164.5 159.727 163 159.727C161.5 159.727 160.225 159.25 159.175 158.295ZM162.1 151.955C161.545 150.427 161.181 149.353 161.009 148.733C160.836 148.112 160.75 147.55 160.75 147.045C160.75 146.473 160.968 145.989 161.403 145.593C161.838 145.198 162.37 145 163 145C163.63 145 164.163 145.198 164.598 145.593C165.033 145.989 165.25 146.473 165.25 147.045C165.25 147.55 165.164 148.112 164.991 148.733C164.819 149.353 164.455 150.427 163.9 151.955H162.1ZM161.729 155.974C161.376 155.653 161.2 155.268 161.2 154.818C161.2 154.368 161.376 153.983 161.729 153.663C162.081 153.342 162.505 153.182 163 153.182C163.495 153.182 163.919 153.342 164.271 153.663C164.624 153.983 164.8 154.368 164.8 154.818C164.8 155.268 164.624 155.653 164.271 155.974C163.919 156.294 163.495 156.455 163 156.455C162.505 156.455 162.081 156.294 161.729 155.974Z" fill="#333333"/>
<g filter="url(#filter2_d_2400_5048)">
<circle cx="82" cy="301" r="50" fill="#F1F1F1"/>
</g>
<path d="M80.2 288.2H83.8V284.6H80.2V288.2ZM74.8 282.8H78.4V279.2H74.8V282.8ZM80.2 282.8H83.8V279.2H80.2V282.8ZM85.6 282.8H89.2V279.2H85.6V282.8ZM85.6 277.4H89.2V273.8H85.6V277.4ZM78.4 290V284.6H73V277.4H83.8V272H91V284.6H85.6V290H78.4Z" fill="#1C1B1F"/>
<g filter="url(#filter3_d_2400_5048)">
<circle cx="241" cy="301" r="50" fill="#F1F1F1"/>
</g>
<path d="M244 290C242.755 290 241.585 289.764 240.49 289.291C239.395 288.819 238.442 288.178 237.632 287.368C236.822 286.558 236.181 285.605 235.709 284.51C235.236 283.415 235 282.245 235 281C235 279.755 235.236 278.585 235.709 277.49C236.181 276.395 236.822 275.442 237.632 274.632C238.442 273.822 239.395 273.181 240.49 272.709C241.585 272.236 242.755 272 244 272C245.245 272 246.415 272.236 247.51 272.709C248.605 273.181 249.558 273.822 250.368 274.632C251.178 275.442 251.819 276.395 252.291 277.49C252.764 278.585 253 279.755 253 281C253 282.245 252.764 283.415 252.291 284.51C251.819 285.605 251.178 286.558 250.368 287.368C249.558 288.178 248.605 288.819 247.51 289.291C246.415 289.764 245.245 290 244 290ZM244 288.2C246.01 288.2 247.712 287.502 249.107 286.107C250.502 284.712 251.2 283.01 251.2 281C251.2 280.895 251.196 280.786 251.189 280.674C251.181 280.561 251.177 280.467 251.177 280.392C251.102 280.827 250.9 281.188 250.57 281.473C250.24 281.758 249.85 281.9 249.4 281.9H247.6C247.105 281.9 246.681 281.724 246.329 281.371C245.976 281.019 245.8 280.595 245.8 280.1V279.2H242.2V277.4C242.2 276.905 242.376 276.481 242.729 276.129C243.081 275.776 243.505 275.6 244 275.6H244.9C244.9 275.255 244.994 274.951 245.181 274.689C245.369 274.426 245.597 274.213 245.867 274.048C245.567 273.973 245.264 273.912 244.956 273.867C244.649 273.822 244.33 273.8 244 273.8C241.99 273.8 240.288 274.498 238.893 275.893C237.498 277.288 236.8 278.99 236.8 281H241.3C242.29 281 243.137 281.352 243.842 282.057C244.547 282.762 244.9 283.61 244.9 284.6V285.5H242.2V287.975C242.5 288.05 242.796 288.106 243.089 288.144C243.381 288.181 243.685 288.2 244 288.2Z" fill="#1C1B1F"/>
<path d="M233.396 299.361H225.494V298.486H233.396V299.361ZM235.215 303.367H224.086V302.506H235.215V303.367ZM233.752 299.266C233.752 299.885 233.734 300.457 233.697 300.981C233.661 301.506 233.57 302.1 233.424 302.766L232.371 302.643C232.508 301.986 232.594 301.408 232.631 300.906C232.667 300.405 232.686 299.858 232.686 299.266V298.486H233.752V299.266ZM233.793 307.66H226.506V309.383H225.426V306.812H232.727V305.459H225.412V304.598H233.793V307.66ZM234.107 309.971H225.426V309.096H234.107V309.971ZM247.314 308.604H236.186V307.701H247.314V308.604ZM242.242 308.098H241.189V305.09H242.242V308.098ZM245.906 302.533H238.646V304.994H237.58V301.658H244.854V299.744H237.553V298.855H245.906V302.533ZM246.193 305.404H237.58V304.516H246.193V305.404ZM257.637 301.562H254.096V300.66H257.637V301.562ZM258.348 304.297H257.281V297.953H258.348V304.297ZM258.348 307.756H251.566V309.615H250.5V306.936H257.281V305.746H250.473V304.885H258.348V307.756ZM258.812 309.943H250.5V309.082H258.812V309.943ZM249.967 300.264H253.357V298.527H254.41V303.805H248.9V298.527H249.967V300.264ZM253.357 302.93V301.125H249.967V302.93H253.357ZM217.414 316.102H220.777C221.534 316.102 222.165 316.229 222.671 316.484C223.177 316.74 223.55 317.097 223.792 317.558C224.034 318.018 224.154 318.549 224.154 319.15C224.154 319.743 224.034 320.265 223.792 320.716C223.55 321.167 223.177 321.52 222.671 321.775C222.165 322.031 221.538 322.158 220.791 322.158H218.084V321.037H220.736C221.256 321.037 221.677 320.962 222.001 320.812C222.325 320.661 222.562 320.447 222.712 320.169C222.862 319.891 222.938 319.551 222.938 319.15C222.938 318.74 222.862 318.389 222.712 318.098C222.562 317.806 222.322 317.583 221.994 317.428C221.666 317.273 221.242 317.195 220.723 317.195H218.645V326H217.414V316.102ZM224.537 326H223.102L220.709 321.557H222.104L224.537 326ZM228.584 326.137C227.955 326.137 227.401 326.018 226.923 325.781C226.444 325.544 226.075 325.216 225.815 324.797C225.556 324.378 225.426 323.904 225.426 323.375C225.426 322.974 225.51 322.616 225.679 322.302C225.847 321.987 226.077 321.696 226.369 321.427C226.661 321.158 227.035 320.868 227.49 320.559L228.953 319.479C229.263 319.269 229.493 319.062 229.644 318.856C229.794 318.651 229.869 318.394 229.869 318.084C229.869 317.911 229.819 317.742 229.719 317.578C229.618 317.414 229.477 317.28 229.295 317.175C229.113 317.07 228.908 317.018 228.68 317.018C228.443 317.018 228.226 317.077 228.03 317.195C227.834 317.314 227.682 317.471 227.572 317.667C227.463 317.863 227.408 318.066 227.408 318.275C227.408 318.467 227.458 318.667 227.559 318.877C227.659 319.087 227.782 319.289 227.928 319.485C228.074 319.681 228.27 319.93 228.516 320.23C228.579 320.303 228.643 320.381 228.707 320.463L233.26 326H231.852L228.092 321.488C227.964 321.333 227.837 321.178 227.709 321.023C227.354 320.604 227.08 320.262 226.889 319.998C226.697 319.734 226.54 319.458 226.417 319.171C226.294 318.884 226.232 318.581 226.232 318.262C226.232 317.815 226.333 317.421 226.533 317.079C226.734 316.737 227.014 316.473 227.374 316.286C227.734 316.099 228.156 316.006 228.639 316.006C229.122 316.006 229.546 316.099 229.91 316.286C230.275 316.473 230.555 316.724 230.751 317.038C230.947 317.353 231.045 317.701 231.045 318.084C231.045 318.531 230.936 318.927 230.717 319.273C230.498 319.62 230.17 319.957 229.732 320.285L227.764 321.762C227.49 321.953 227.269 322.154 227.101 322.363C226.932 322.573 226.811 322.764 226.738 322.938C226.665 323.111 226.629 323.257 226.629 323.375C226.629 323.676 226.711 323.958 226.875 324.223C227.039 324.487 227.267 324.699 227.559 324.858C227.85 325.018 228.183 325.098 228.557 325.098C229.058 325.098 229.539 324.954 229.999 324.667C230.459 324.38 230.833 323.974 231.12 323.45C231.407 322.926 231.551 322.327 231.551 321.652H232.686C232.686 322.245 232.617 322.751 232.48 323.17C232.344 323.589 232.191 323.915 232.022 324.147C231.854 324.38 231.665 324.596 231.455 324.797C231.419 324.852 231.382 324.897 231.346 324.934C231.337 324.961 231.321 324.986 231.298 325.009C231.275 325.032 231.255 325.057 231.236 325.084C230.926 325.421 230.532 325.681 230.054 325.863C229.575 326.046 229.085 326.137 228.584 326.137ZM235.146 326V324.906H237.457C238.259 324.906 238.927 324.751 239.46 324.441C239.993 324.132 240.392 323.689 240.656 323.115C240.921 322.541 241.053 321.848 241.053 321.037C241.053 320.235 240.923 319.547 240.663 318.973C240.403 318.398 240.016 317.959 239.501 317.653C238.986 317.348 238.346 317.195 237.58 317.195H235.092V316.102H237.662C238.619 316.102 239.442 316.298 240.13 316.689C240.818 317.081 241.344 317.649 241.709 318.392C242.074 319.134 242.256 320.016 242.256 321.037C242.256 322.067 242.071 322.953 241.702 323.696C241.333 324.439 240.795 325.009 240.089 325.405C239.382 325.802 238.533 326 237.539 326H235.146ZM235.693 326H234.463V316.102H235.693V326ZM256.475 322.254H255.408V314.953H256.475V322.254ZM258.307 319.014H256.174V318.125H258.307V319.014ZM253.166 315.855C253.166 316.867 252.936 317.795 252.476 318.638C252.015 319.481 251.357 320.21 250.5 320.825C249.643 321.44 248.622 321.921 247.438 322.268L246.986 321.393C248.025 321.092 248.923 320.691 249.68 320.189C250.436 319.688 251.017 319.112 251.423 318.46C251.828 317.808 252.031 317.104 252.031 316.348V315.855H253.166ZM252.633 316.744H247.52V315.855H252.633V316.744ZM252.633 322.391C253.444 322.391 254.15 322.484 254.752 322.671C255.354 322.858 255.814 323.127 256.133 323.478C256.452 323.828 256.611 324.245 256.611 324.729C256.611 325.212 256.452 325.631 256.133 325.986C255.814 326.342 255.354 326.613 254.752 326.8C254.15 326.987 253.444 327.08 252.633 327.08C251.831 327.08 251.129 326.987 250.527 326.8C249.926 326.613 249.463 326.342 249.14 325.986C248.816 325.631 248.654 325.212 248.654 324.729C248.654 324.245 248.816 323.828 249.14 323.478C249.463 323.127 249.926 322.858 250.527 322.671C251.129 322.484 251.831 322.391 252.633 322.391ZM252.633 323.252C252.049 323.243 251.537 323.298 251.095 323.416C250.653 323.535 250.313 323.708 250.076 323.936C249.839 324.163 249.721 324.428 249.721 324.729C249.721 325.029 249.839 325.291 250.076 325.515C250.313 325.738 250.653 325.911 251.095 326.034C251.537 326.157 252.049 326.219 252.633 326.219C253.225 326.219 253.743 326.157 254.185 326.034C254.627 325.911 254.968 325.738 255.21 325.515C255.451 325.291 255.572 325.029 255.572 324.729C255.572 324.428 255.451 324.163 255.21 323.936C254.968 323.708 254.627 323.535 254.185 323.416C253.743 323.298 253.225 323.243 252.633 323.252ZM263.352 324.182H262.271V322.199H263.352V324.182ZM268.506 327.107H267.426V314.953H268.506V327.107ZM270.447 321.037H268.178V320.135H270.447V321.037ZM258.922 323.867C260.462 323.867 261.861 323.844 263.119 323.799C264.377 323.753 265.566 323.648 266.688 323.484L266.756 324.305C265.936 324.441 265.083 324.544 264.199 324.612C263.315 324.681 262.474 324.726 261.677 324.749C260.879 324.772 260.02 324.783 259.1 324.783L258.922 323.867ZM266.469 317.318H259.141V316.443H266.469V317.318ZM262.818 318.029C263.383 318.029 263.882 318.123 264.315 318.31C264.748 318.496 265.088 318.758 265.334 319.096C265.58 319.433 265.703 319.829 265.703 320.285C265.703 320.732 265.58 321.121 265.334 321.454C265.088 321.787 264.748 322.047 264.315 322.233C263.882 322.42 263.383 322.514 262.818 322.514C262.253 322.514 261.752 322.42 261.314 322.233C260.877 322.047 260.54 321.787 260.303 321.454C260.066 321.121 259.947 320.732 259.947 320.285C259.947 319.829 260.066 319.433 260.303 319.096C260.54 318.758 260.877 318.496 261.314 318.31C261.752 318.123 262.253 318.029 262.818 318.029ZM262.818 318.863C262.454 318.863 262.13 318.923 261.848 319.041C261.565 319.16 261.344 319.326 261.185 319.54C261.025 319.754 260.945 320.003 260.945 320.285C260.945 320.559 261.023 320.802 261.178 321.017C261.333 321.231 261.554 321.393 261.841 321.502C262.128 321.611 262.454 321.666 262.818 321.666C263.183 321.666 263.507 321.611 263.789 321.502C264.072 321.393 264.29 321.231 264.445 321.017C264.6 320.802 264.678 320.559 264.678 320.285C264.678 320.003 264.6 319.754 264.445 319.54C264.29 319.326 264.072 319.16 263.789 319.041C263.507 318.923 263.183 318.863 262.818 318.863ZM263.352 317.004H262.271V314.98H263.352V317.004Z" fill="black"/>
<path d="M72.9629 310.107H71.9102V297.953H72.9629V310.107ZM72.3066 303.75H69.9141V302.861H72.3066V303.75ZM67.8223 299.539C67.8223 300.633 67.6764 301.66 67.3848 302.622C67.0931 303.584 66.6077 304.481 65.9287 305.315C65.2497 306.149 64.3496 306.876 63.2285 307.496L62.5996 306.744C63.6022 306.188 64.4134 305.546 65.0332 304.816C65.653 304.087 66.1019 303.299 66.3799 302.451C66.6579 301.604 66.7969 300.692 66.7969 299.717V299.539H67.8223ZM67.1523 300.428H63.0645V299.539H67.1523V300.428ZM70.2285 309.506H69.2031V298.281H70.2285V309.506ZM80.291 305.596C81.1204 305.596 81.8359 305.682 82.4375 305.855C83.0391 306.029 83.4993 306.284 83.8184 306.621C84.1374 306.958 84.2969 307.364 84.2969 307.838C84.2969 308.312 84.1374 308.717 83.8184 309.055C83.4993 309.392 83.0413 309.649 82.4443 309.827C81.8473 310.005 81.1296 310.098 80.291 310.107C79.4616 310.098 78.7438 310.005 78.1377 309.827C77.5316 309.649 77.0667 309.392 76.7432 309.055C76.4196 308.717 76.2578 308.312 76.2578 307.838C76.2578 307.364 76.4196 306.958 76.7432 306.621C77.0667 306.284 77.5316 306.029 78.1377 305.855C78.7438 305.682 79.4616 305.596 80.291 305.596ZM80.291 306.443C79.6803 306.443 79.154 306.5 78.7119 306.614C78.2699 306.728 77.9303 306.888 77.6934 307.093C77.4564 307.298 77.3379 307.546 77.3379 307.838C77.3379 308.12 77.4564 308.367 77.6934 308.576C77.9303 308.786 78.2721 308.948 78.7188 309.062C79.1654 309.175 79.6895 309.232 80.291 309.232C80.9017 309.232 81.4303 309.175 81.877 309.062C82.3236 308.948 82.6654 308.786 82.9023 308.576C83.1393 308.367 83.2578 308.12 83.2578 307.838C83.2578 307.546 83.1393 307.298 82.9023 307.093C82.6654 306.888 82.3258 306.728 81.8838 306.614C81.4417 306.5 80.9108 306.443 80.291 306.443ZM84.1875 305.268H83.1211V297.953H84.1875V305.268ZM86.0195 301.932H83.8867V301.016H86.0195V301.932ZM76.2578 300.578H79.7988V298.719H80.8652V304.324H75.2051V298.719H76.2578V300.578ZM79.7988 303.449V301.426H76.2578V303.449H79.7988ZM96.1914 301.768H93.6758V300.879H96.1914V301.768ZM96.1777 304.133H93.6621V303.244H96.1777V304.133ZM93.6758 300.195H86.7988V299.32H93.6758V300.195ZM90.2715 300.824C90.8092 300.824 91.29 300.918 91.7139 301.104C92.1377 301.291 92.4658 301.553 92.6982 301.891C92.9307 302.228 93.0469 302.62 93.0469 303.066C93.0469 303.513 92.9307 303.907 92.6982 304.249C92.4658 304.591 92.1377 304.855 91.7139 305.042C91.29 305.229 90.8092 305.322 90.2715 305.322C89.7337 305.322 89.2552 305.229 88.8359 305.042C88.4167 304.855 88.0931 304.591 87.8652 304.249C87.6374 303.907 87.5234 303.513 87.5234 303.066C87.5234 302.62 87.6374 302.226 87.8652 301.884C88.0931 301.542 88.4167 301.28 88.8359 301.098C89.2552 300.915 89.7337 300.824 90.2715 300.824ZM90.2715 301.631C89.9251 301.631 89.6198 301.692 89.3555 301.815C89.0911 301.938 88.8861 302.107 88.7402 302.321C88.5944 302.535 88.5215 302.784 88.5215 303.066C88.5215 303.349 88.5944 303.597 88.7402 303.812C88.8861 304.026 89.0911 304.192 89.3555 304.311C89.6198 304.429 89.9251 304.488 90.2715 304.488C90.6178 304.488 90.9255 304.429 91.1943 304.311C91.4632 304.192 91.6729 304.026 91.8232 303.812C91.9736 303.597 92.0488 303.349 92.0488 303.066C92.0488 302.784 91.9736 302.535 91.8232 302.321C91.6729 302.107 91.4632 301.938 91.1943 301.815C90.9255 301.692 90.6178 301.631 90.2715 301.631ZM90.8184 299.922H89.752V297.857H90.8184V299.922ZM96.8613 305.814H95.7812V297.953H96.8613V305.814ZM92.8555 305.938C93.7031 305.938 94.4323 306.017 95.043 306.177C95.6536 306.336 96.1208 306.573 96.4443 306.888C96.7679 307.202 96.9297 307.578 96.9297 308.016C96.9297 308.444 96.7679 308.813 96.4443 309.123C96.1208 309.433 95.6514 309.67 95.0361 309.834C94.4209 309.998 93.694 310.08 92.8555 310.08C92.0078 310.08 91.2786 309.998 90.668 309.834C90.0573 309.67 89.5879 309.433 89.2598 309.123C88.9316 308.813 88.7676 308.444 88.7676 308.016C88.7676 307.578 88.9316 307.202 89.2598 306.888C89.5879 306.573 90.0573 306.336 90.668 306.177C91.2786 306.017 92.0078 305.938 92.8555 305.938ZM92.8555 306.771C92.2448 306.771 91.7161 306.819 91.2695 306.915C90.8229 307.011 90.4788 307.152 90.2373 307.339C89.9958 307.526 89.875 307.751 89.875 308.016C89.875 308.271 89.9958 308.49 90.2373 308.672C90.4788 308.854 90.8229 308.995 91.2695 309.096C91.7161 309.196 92.2448 309.246 92.8555 309.246C93.457 309.246 93.9788 309.196 94.4209 309.096C94.863 308.995 95.2025 308.854 95.4395 308.672C95.6764 308.49 95.7949 308.271 95.7949 308.016C95.7949 307.751 95.6764 307.526 95.4395 307.339C95.2025 307.152 94.8652 307.011 94.4277 306.915C93.9902 306.819 93.4661 306.771 92.8555 306.771ZM63.4268 317.1H56.5498V316.211H63.4268V317.1ZM60.0225 317.77C60.5602 317.77 61.0387 317.865 61.458 318.057C61.8773 318.248 62.2054 318.515 62.4424 318.856C62.6794 319.198 62.7979 319.592 62.7979 320.039C62.7979 320.477 62.6794 320.868 62.4424 321.215C62.2054 321.561 61.8773 321.83 61.458 322.021C61.0387 322.213 60.5602 322.313 60.0225 322.322C59.4938 322.313 59.0199 322.213 58.6006 322.021C58.1813 321.83 57.8555 321.561 57.623 321.215C57.3906 320.868 57.2744 320.477 57.2744 320.039C57.2744 319.592 57.3906 319.198 57.623 318.856C57.8555 318.515 58.1813 318.248 58.6006 318.057C59.0199 317.865 59.4938 317.77 60.0225 317.77ZM60.0225 318.604C59.6852 318.604 59.3822 318.665 59.1133 318.788C58.8444 318.911 58.637 319.08 58.4912 319.294C58.3454 319.508 58.2725 319.757 58.2725 320.039C58.2725 320.312 58.3454 320.559 58.4912 320.777C58.637 320.996 58.8444 321.165 59.1133 321.283C59.3822 321.402 59.6852 321.461 60.0225 321.461C60.3688 321.461 60.6764 321.402 60.9453 321.283C61.2142 321.165 61.4238 320.996 61.5742 320.777C61.7246 320.559 61.7998 320.312 61.7998 320.039C61.7998 319.757 61.7246 319.508 61.5742 319.294C61.4238 319.08 61.2142 318.911 60.9453 318.788C60.6764 318.665 60.3688 318.604 60.0225 318.604ZM60.5693 316.785H59.5029V314.857H60.5693V316.785ZM66.6123 322.664H65.5322V314.953H66.6123V322.664ZM65.9287 318.822H63.4268V317.961H65.9287V318.822ZM65.9287 321.133H63.4131V320.23H65.9287V321.133ZM66.6123 327.107H65.5322V324.25H58.4365V323.375H66.6123V327.107ZM78.6709 323.881H77.6045V314.967H78.6709V323.881ZM79.0537 326.848H70.8232V325.945H79.0537V326.848ZM71.8896 326.383H70.8232V323.061H71.8896V326.383ZM72.751 316.867C72.751 317.651 72.6074 318.392 72.3203 319.089C72.0332 319.786 71.6322 320.397 71.1172 320.921C70.6022 321.445 70.012 321.844 69.3467 322.117L68.7588 321.283C69.3695 321.046 69.9095 320.702 70.3789 320.251C70.8483 319.8 71.2106 319.28 71.4658 318.692C71.721 318.104 71.8486 317.496 71.8486 316.867V315.65H72.751V316.867ZM72.9424 316.867C72.9424 317.469 73.07 318.048 73.3252 318.604C73.5804 319.16 73.9427 319.649 74.4121 320.073C74.8815 320.497 75.4124 320.818 76.0049 321.037L75.4443 321.898C74.7699 321.634 74.1774 321.256 73.667 320.764C73.1566 320.271 72.7578 319.69 72.4707 319.021C72.1836 318.351 72.04 317.633 72.04 316.867V315.65H72.9424V316.867ZM93.6553 327.107H92.5889V314.953H93.6553V327.107ZM95.624 320.805H93.3818V319.902H95.624V320.805ZM90.5107 316.266C90.5107 317.451 90.3171 318.567 89.9297 319.615C89.5423 320.663 88.9339 321.63 88.1045 322.514C87.2751 323.398 86.2178 324.159 84.9326 324.797L84.3311 323.949C85.4613 323.384 86.4069 322.723 87.168 321.967C87.929 321.21 88.501 320.369 88.8838 319.444C89.2666 318.519 89.458 317.519 89.458 316.443V316.266H90.5107ZM90.0049 317.168H84.8916V316.266H90.0049V317.168ZM107.464 321.953H96.3486V321.064H107.464V321.953ZM102.405 321.461H101.353V319.191H102.405V321.461ZM102.255 315.719C102.255 316.411 102.029 317.045 101.578 317.619C101.127 318.193 100.532 318.672 99.7939 319.055C99.0557 319.438 98.2673 319.702 97.4287 319.848L97.0186 318.986C97.7477 318.886 98.445 318.676 99.1104 318.357C99.7757 318.038 100.313 317.646 100.724 317.182C101.134 316.717 101.339 316.229 101.339 315.719V315.145H102.255V315.719ZM102.419 315.719C102.419 316.229 102.626 316.717 103.041 317.182C103.456 317.646 103.998 318.038 104.668 318.357C105.338 318.676 106.033 318.886 106.753 318.986L106.315 319.848C105.486 319.702 104.704 319.438 103.971 319.055C103.237 318.672 102.645 318.191 102.193 317.612C101.742 317.034 101.517 316.402 101.517 315.719V315.145H102.419V315.719ZM106.056 327.107H104.976V324.004H97.5791V323.143H106.056V327.107Z" fill="black"/>
<path d="M152.697 176.219H149.58V175.33H152.697V176.219ZM153.162 180.881H152.082V171.967H153.162V180.881ZM153.504 183.848H145.355V182.945H153.504V183.848ZM146.436 183.383H145.355V180.074H146.436V183.383ZM147.119 174.469C147.119 175.189 146.976 175.872 146.688 176.52C146.401 177.167 146 177.732 145.485 178.215C144.97 178.698 144.376 179.067 143.701 179.322L143.141 178.447C143.733 178.238 144.264 177.93 144.733 177.524C145.203 177.119 145.57 176.652 145.834 176.123C146.098 175.594 146.23 175.043 146.23 174.469V173.471H147.119V174.469ZM147.311 174.469C147.311 174.988 147.438 175.494 147.693 175.986C147.949 176.479 148.302 176.916 148.753 177.299C149.204 177.682 149.721 177.973 150.305 178.174L149.744 179.035C149.088 178.798 148.511 178.45 148.015 177.989C147.518 177.529 147.131 176.993 146.853 176.383C146.575 175.772 146.436 175.134 146.436 174.469V173.471H147.311V174.469ZM150.031 173.84H143.482V172.951H150.031V173.84ZM166.52 174.797H164.346V173.908H166.52V174.797ZM166.52 177.354H164.346V176.451H166.52V177.354ZM156.676 177.805C157.87 177.805 158.895 177.777 159.752 177.723C160.609 177.668 161.493 177.563 162.404 177.408L162.514 178.297C161.593 178.452 160.695 178.557 159.82 178.611C158.945 178.666 157.897 178.693 156.676 178.693H155.732V177.805H156.676ZM161.215 176.041H156.785V178.256H155.732V175.193H160.162V173.566H155.705V172.691H161.215V176.041ZM164.688 179.35H163.621V171.967H164.688V179.35ZM164.688 184.107H163.621V180.867H156.73V179.992H164.688V184.107ZM171.318 174.209C171.318 174.929 171.173 175.613 170.881 176.26C170.589 176.907 170.186 177.47 169.671 177.948C169.156 178.427 168.566 178.789 167.9 179.035L167.34 178.188C167.932 177.969 168.463 177.657 168.933 177.251C169.402 176.845 169.769 176.376 170.033 175.843C170.298 175.31 170.43 174.765 170.43 174.209V173.197H171.318V174.209ZM171.51 174.195C171.51 174.715 171.635 175.221 171.886 175.713C172.136 176.205 172.49 176.64 172.945 177.019C173.401 177.397 173.921 177.691 174.504 177.9L173.943 178.748C173.287 178.511 172.711 178.165 172.214 177.709C171.717 177.253 171.33 176.72 171.052 176.109C170.774 175.499 170.635 174.861 170.635 174.195V173.197H171.51V174.195ZM176.596 176.041H173.848V175.139H176.596V176.041ZM174.23 173.676H167.682V172.801H174.23V173.676ZM177.361 184.107H176.281V180.771H169.186V179.883H177.361V184.107ZM177.361 179.24H176.281V171.953H177.361V179.24ZM140.379 192.727H137.275V191.824H140.379V192.727ZM134.951 191.209C134.951 191.975 134.81 192.697 134.527 193.376C134.245 194.055 133.851 194.647 133.345 195.153C132.839 195.659 132.249 196.049 131.574 196.322L131 195.447C131.602 195.219 132.135 194.891 132.6 194.463C133.064 194.035 133.429 193.538 133.693 192.973C133.958 192.408 134.09 191.82 134.09 191.209V189.705H134.951V191.209ZM135.143 191.25C135.143 191.806 135.27 192.346 135.525 192.87C135.781 193.394 136.136 193.857 136.592 194.258C137.048 194.659 137.567 194.969 138.15 195.188L137.549 196.021C136.911 195.766 136.346 195.399 135.854 194.921C135.361 194.442 134.976 193.886 134.698 193.253C134.42 192.619 134.281 191.952 134.281 191.25V189.705H135.143V191.25ZM141.062 198.072H139.982V188.967H141.062V198.072ZM141.336 200.848H133.201V199.945H141.336V200.848ZM134.281 200.342H133.201V197.033H134.281V200.342ZM144.398 194.791C145.419 194.791 146.253 194.768 146.9 194.723C147.548 194.677 148.195 194.59 148.842 194.463L148.951 195.352C148.258 195.479 147.584 195.568 146.928 195.618C146.271 195.668 145.428 195.693 144.398 195.693H143.633V194.791H144.398ZM148.35 190.744H144.658V195.27H143.633V189.842H148.35V190.744ZM148.213 193.109H144.33V192.262H148.213V193.109ZM153.408 196.336H152.383V188.967H153.408V196.336ZM152.711 193.014H150.373V192.139H152.711V193.014ZM150.674 196.254H149.676V189.199H150.674V196.254ZM153.408 201.107H152.355V197.84H145.219V196.965H153.408V201.107ZM161.297 191.182H155.746V190.307H161.297V191.182ZM158.74 197.895H157.688V193.779H158.74V197.895ZM161.926 190.936C161.917 191.51 161.908 191.986 161.898 192.364C161.889 192.743 161.86 193.23 161.81 193.827C161.759 194.424 161.68 195.069 161.57 195.762L160.49 195.666C160.645 194.7 160.743 193.854 160.784 193.13C160.825 192.405 160.846 191.674 160.846 190.936V190.307H161.926V190.936ZM164.564 201.107H163.498V188.953H164.564V201.107ZM166.533 194.969H164.277V194.039H166.533V194.969ZM155.062 197.539C156.539 197.53 157.909 197.5 159.171 197.45C160.433 197.4 161.62 197.311 162.732 197.184L162.787 197.99C161.639 198.163 160.422 198.282 159.137 198.346C157.852 198.41 156.539 198.437 155.199 198.428L155.062 197.539ZM174.969 190.963C174.969 191.656 174.823 192.31 174.531 192.925C174.24 193.54 173.832 194.073 173.308 194.524C172.784 194.976 172.184 195.32 171.51 195.557L170.949 194.709C171.56 194.518 172.102 194.233 172.576 193.854C173.05 193.476 173.422 193.036 173.69 192.535C173.959 192.034 174.094 191.51 174.094 190.963V190.006H174.969V190.963ZM175.174 190.963C175.174 191.482 175.308 191.979 175.577 192.453C175.846 192.927 176.217 193.342 176.691 193.697C177.165 194.053 177.703 194.322 178.305 194.504L177.758 195.352C177.083 195.133 176.484 194.809 175.96 194.381C175.436 193.952 175.026 193.442 174.729 192.85C174.433 192.257 174.285 191.628 174.285 190.963V190.006H175.174V190.963ZM177.977 190.648H171.25V189.773H177.977V190.648ZM180.834 195.529H179.768V188.953H180.834V195.529ZM174.025 197.607H179.768V196.131H180.834V200.943H172.959V196.131H174.025V197.607ZM179.768 200.068V198.469H174.025V200.068H179.768ZM188.955 197.143H187.902V195.023H188.955V197.143ZM193.973 195.529H182.898V194.641H193.973V195.529ZM188.436 196.814C189.311 196.814 190.06 196.896 190.685 197.061C191.309 197.225 191.787 197.468 192.12 197.792C192.453 198.116 192.619 198.505 192.619 198.961C192.619 199.408 192.453 199.788 192.12 200.103C191.787 200.417 191.309 200.659 190.685 200.827C190.06 200.996 189.311 201.08 188.436 201.08C187.561 201.08 186.809 200.996 186.18 200.827C185.551 200.659 185.07 200.417 184.737 200.103C184.405 199.788 184.238 199.408 184.238 198.961C184.238 198.505 184.405 198.116 184.737 197.792C185.07 197.468 185.551 197.225 186.18 197.061C186.809 196.896 187.561 196.814 188.436 196.814ZM188.436 197.648C187.788 197.648 187.232 197.701 186.768 197.806C186.303 197.91 185.947 198.061 185.701 198.257C185.455 198.453 185.332 198.688 185.332 198.961C185.332 199.225 185.455 199.453 185.701 199.645C185.947 199.836 186.303 199.984 186.768 200.089C187.232 200.194 187.788 200.246 188.436 200.246C189.074 200.246 189.627 200.194 190.097 200.089C190.566 199.984 190.924 199.836 191.17 199.645C191.416 199.453 191.539 199.225 191.539 198.961C191.539 198.688 191.416 198.453 191.17 198.257C190.924 198.061 190.568 197.91 190.104 197.806C189.639 197.701 189.083 197.648 188.436 197.648ZM188.695 190.32C188.695 190.949 188.477 191.517 188.039 192.022C187.602 192.528 187.018 192.941 186.289 193.26C185.56 193.579 184.767 193.793 183.91 193.902L183.527 193.055C184.257 192.973 184.945 192.804 185.592 192.549C186.239 192.294 186.758 191.97 187.15 191.578C187.542 191.186 187.738 190.767 187.738 190.32V189.951H188.695V190.32ZM189.133 190.32C189.133 190.767 189.329 191.186 189.721 191.578C190.113 191.97 190.632 192.294 191.279 192.549C191.926 192.804 192.619 192.973 193.357 193.055L192.961 193.902C192.113 193.793 191.325 193.579 190.596 193.26C189.867 192.941 189.281 192.528 188.839 192.022C188.397 191.517 188.176 190.949 188.176 190.32V189.951H189.133V190.32ZM192.988 190.402H183.91V189.527H192.988V190.402Z" fill="black"/>
</g>
<defs>
<filter id="filter0_ddii_2400_5048" x="-15" y="80" width="355" height="324.065" filterUnits="userSpaceOnUse" color-interpolation-filters="sRGB">
<feFlood flood-opacity="0" result="BackgroundImageFix"/>
<feColorMatrix in="SourceAlpha" type="matrix" values="0 0 0 0 0 0 0 0 0 0 0 0 0 0 0 0 0 0 127 0" result="hardAlpha"/>
<feOffset dy="3"/>
<feGaussianBlur stdDeviation="3"/>
<feComposite in2="hardAlpha" operator="out"/>
<feColorMatrix type="matrix" values="0 0 0 0 1 0 0 0 0 1 0 0 0 0 1 0 0 0 1 0"/>
<feBlend mode="normal" in2="BackgroundImageFix" result="effect1_dropShadow_2400_5048"/>
<feColorMatrix in="SourceAlpha" type="matrix" values="0 0 0 0 0 0 0 0 0 0 0 0 0 0 0 0 0 0 127 0" result="hardAlpha"/>
<feOffset dy="4"/>
<feGaussianBlur stdDeviation="7.5"/>
<feComposite in2="hardAlpha" operator="out"/>
<feColorMatrix type="matrix" values="0 0 0 0 0 0 0 0 0 0 0 0 0 0 0 0 0 0 0.1 0"/>
<feBlend mode="normal" in2="effect1_dropShadow_2400_5048" result="effect2_dropShadow_2400_5048"/>
<feBlend mode="normal" in="SourceGraphic" in2="effect2_dropShadow_2400_5048" result="shape"/>
<feColorMatrix in="SourceAlpha" type="matrix" values="0 0 0 0 0 0 0 0 0 0 0 0 0 0 0 0 0 0 127 0" result="hardAlpha"/>
<feOffset dx="2" dy="8"/>
<feGaussianBlur stdDeviation="5"/>
<feComposite in2="hardAlpha" operator="arithmetic" k2="-1" k3="1"/>
<feColorMatrix type="matrix" values="0 0 0 0 0 0 0 0 0 0 0 0 0 0 0 0 0 0 0.3 0"/>
<feBlend mode="normal" in2="shape" result="effect3_innerShadow_2400_5048"/>
<feColorMatrix in="SourceAlpha" type="matrix" values="0 0 0 0 0 0 0 0 0 0 0 0 0 0 0 0 0 0 127 0" result="hardAlpha"/>
<feOffset dx="-4" dy="-4"/>
<feGaussianBlur stdDeviation="1"/>
<feComposite in2="hardAlpha" operator="arithmetic" k2="-1" k3="1"/>
<feColorMatrix type="matrix" values="0 0 0 0 1 0 0 0 0 1 0 0 0 0 1 0 0 0 0.6 0"/>
<feBlend mode="normal" in2="effect3_innerShadow_2400_5048" result="effect4_innerShadow_2400_5048"/>
</filter>
<filter id="filter1_d_2400_5048" x="111" y="129" width="104" height="104" filterUnits="userSpaceOnUse" color-interpolation-filters="sRGB">
<feFlood flood-opacity="0" result="BackgroundImageFix"/>
<feColorMatrix in="SourceAlpha" type="matrix" values="0 0 0 0 0 0 0 0 0 0 0 0 0 0 0 0 0 0 127 0" result="hardAlpha"/>
<feOffset dx="2" dy="2"/>
<feGaussianBlur stdDeviation="1"/>
<feComposite in2="hardAlpha" operator="out"/>
<feColorMatrix type="matrix" values="0 0 0 0 0 0 0 0 0 0 0 0 0 0 0 0 0 0 0.1 0"/>
<feBlend mode="normal" in2="BackgroundImageFix" result="effect1_dropShadow_2400_5048"/>
<feBlend mode="normal" in="SourceGraphic" in2="effect1_dropShadow_2400_5048" result="shape"/>
</filter>
<filter id="filter2_d_2400_5048" x="32" y="251" width="104" height="104" filterUnits="userSpaceOnUse" color-interpolation-filters="sRGB">
<feFlood flood-opacity="0" result="BackgroundImageFix"/>
<feColorMatrix in="SourceAlpha" type="matrix" values="0 0 0 0 0 0 0 0 0 0 0 0 0 0 0 0 0 0 127 0" result="hardAlpha"/>
<feOffset dx="2" dy="2"/>
<feGaussianBlur stdDeviation="1"/>
<feComposite in2="hardAlpha" operator="out"/>
<feColorMatrix type="matrix" values="0 0 0 0 0 0 0 0 0 0 0 0 0 0 0 0 0 0 0.1 0"/>
<feBlend mode="normal" in2="BackgroundImageFix" result="effect1_dropShadow_2400_5048"/>
<feBlend mode="normal" in="SourceGraphic" in2="effect1_dropShadow_2400_5048" result="shape"/>
</filter>
<filter id="filter3_d_2400_5048" x="191" y="251" width="104" height="104" filterUnits="userSpaceOnUse" color-interpolation-filters="sRGB">
<feFlood flood-opacity="0" result="BackgroundImageFix"/>
<feColorMatrix in="SourceAlpha" type="matrix" values="0 0 0 0 0 0 0 0 0 0 0 0 0 0 0 0 0 0 127 0" result="hardAlpha"/>
<feOffset dx="2" dy="2"/>
<feGaussianBlur stdDeviation="1"/>
<feComposite in2="hardAlpha" operator="out"/>
<feColorMatrix type="matrix" values="0 0 0 0 0 0 0 0 0 0 0 0 0 0 0 0 0 0 0.1 0"/>
<feBlend mode="normal" in2="BackgroundImageFix" result="effect1_dropShadow_2400_5048"/>
<feBlend mode="normal" in="SourceGraphic" in2="effect1_dropShadow_2400_5048" result="shape"/>
</filter>
<clipPath id="clip0_2400_5048">
<rect width="336" height="424" fill="white"/>
</clipPath>
</defs>
</svg>
